<?xml version="1.0" standalone="no"?>
<!DOCTYPE svg PUBLIC "-//W3C//DTD SVG 20010904//EN"
 "http://www.w3.org/TR/2001/REC-SVG-20010904/DTD/svg10.dtd">
<svg version="1.0" xmlns="http://www.w3.org/2000/svg"
 width="1470.000000pt" height="453.000000pt" viewBox="0 0 1470.000000 453.000000"
 preserveAspectRatio="xMidYMid meet">

<g transform="translate(0.000000,453.000000) scale(0.100000,-0.100000)"
fill="#000000" stroke="none">
<path d="M0 2265 l0 -2265 7350 0 7350 0 0 2265 0 2265 -7350 0 -7350 0 0
-2265z m3750 1620 c0 -58 2 -65 20 -65 11 0 20 -4 20 -10 0 -16 -47 -11 -54 6
-3 9 -6 38 -6 65 0 37 -4 49 -15 49 -8 0 -15 5 -15 10 0 6 11 10 25 10 24 0
25 -2 25 -65z m8051 52 c-1 -12 -15 -9 -19 4 -3 6 1 10 8 8 6 -3 11 -8 11 -12z
m689 -32 c0 -35 4 -45 16 -45 9 0 18 9 21 20 6 22 23 28 23 8 0 -7 -4 -19 -9
-27 -6 -9 -4 -23 6 -38 14 -21 14 -23 0 -23 -9 0 -19 9 -22 20 -3 11 -13 20
-21 20 -8 0 -14 -9 -14 -20 0 -11 -4 -20 -10 -20 -6 0 -10 32 -10 75 0 43 4
75 10 75 6 0 10 -20 10 -45z m-11259 -15 l18 -45 0 48 c1 26 6 47 11 47 6 0
10 -30 10 -70 0 -86 -17 -93 -45 -17 l-20 52 -6 -55 -6 -55 -1 73 c-2 85 10
92 39 22z m2433 34 c32 -32 8 -84 -39 -84 -17 0 -25 -7 -28 -22 -2 -13 -5 10
-6 50 l-1 72 29 0 c16 0 37 -7 45 -16z m2288 1 c-2 -5 -12 -9 -23 -7 -28 5
-49 -16 -49 -47 0 -35 17 -51 53 -51 16 0 26 -4 22 -10 -10 -16 -57 -12 -77 7
-23 21 -24 80 -1 105 18 20 81 22 75 3z m942 9 c28 -11 17 -24 -14 -17 -23 4
-30 2 -30 -10 0 -9 14 -23 30 -32 33 -17 42 -58 14 -69 -24 -9 -62 -7 -69 4
-4 6 8 10 29 10 45 0 48 23 6 45 -58 30 -28 93 34 69z m2040 0 c28 -11 17 -24
-14 -17 -23 4 -30 2 -30 -10 0 -9 14 -23 30 -32 33 -17 42 -58 14 -69 -24 -9
-62 -7 -69 4 -4 6 8 10 29 10 45 0 48 23 6 45 -58 30 -28 93 34 69z m736 -4
c16 -10 14 -11 -35 -13 -29 -2 -30 -4 -30 -47 0 -42 2 -45 28 -48 19 -2 27 1
27 12 0 9 -7 16 -15 16 -8 0 -15 5 -15 10 0 6 12 10 26 10 23 0 25 -3 22 -32
-3 -29 -7 -33 -34 -36 -41 -4 -64 20 -64 65 0 59 46 91 90 63z m2050 0 c0 -5
-9 -10 -20 -10 -18 0 -20 -7 -20 -60 0 -33 -4 -60 -10 -60 -6 0 -10 27 -10 60
0 53 -2 60 -20 60 -11 0 -20 5 -20 10 0 6 23 10 50 10 28 0 50 -4 50 -10z
m600 0 c0 -5 -9 -10 -20 -10 -18 0 -20 -7 -20 -60 0 -33 -4 -60 -10 -60 -6 0
-10 27 -10 60 0 53 -2 60 -20 60 -11 0 -20 5 -20 10 0 6 23 10 50 10 28 0 50
-4 50 -10z m-5700 -15 c0 -9 9 -15 25 -15 14 0 25 -4 25 -10 0 -5 -12 -10 -26
-10 -22 0 -25 -4 -22 -27 2 -20 9 -29 26 -31 29 -4 29 -22 -1 -22 -31 0 -47
18 -47 51 0 15 -6 30 -12 33 -10 5 -10 7 0 12 6 3 12 12 12 20 0 8 5 14 10 14
6 0 10 -7 10 -15z m2400 0 c0 -9 9 -15 25 -15 14 0 25 -4 25 -10 0 -5 -12 -10
-26 -10 -22 0 -25 -4 -22 -27 2 -20 9 -29 26 -31 29 -4 29 -22 -1 -22 -31 0
-47 18 -47 51 0 15 -6 30 -12 33 -10 5 -10 7 0 12 6 3 12 12 12 20 0 8 5 14
10 14 6 0 10 -7 10 -15z m360 0 c0 -9 9 -15 25 -15 14 0 25 -4 25 -10 0 -5
-12 -10 -26 -10 -22 0 -25 -4 -22 -27 2 -20 9 -29 26 -31 29 -4 29 -22 -1 -22
-31 0 -47 18 -47 51 0 15 -6 30 -12 33 -10 5 -10 7 0 12 6 3 12 12 12 20 0 8
5 14 10 14 6 0 10 -7 10 -15z m-8002 -27 c17 -17 15 -63 -3 -78 -20 -16 -65
-4 -67 18 -3 33 3 56 15 64 18 11 41 10 55 -4z m2506 6 c10 -4 16 -18 16 -40
0 -19 5 -34 10 -34 6 0 10 -4 10 -10 0 -5 -7 -10 -15 -10 -14 0 -19 12 -16 33
0 4 -10 7 -24 7 -14 0 -25 -4 -25 -10 0 -5 9 -10 20 -10 11 0 20 -5 20 -11 0
-6 -12 -9 -27 -7 -41 5 -38 40 5 54 35 11 33 24 -5 24 -12 0 -23 5 -23 10 0
11 30 13 54 4z m90 -36 l18 -43 12 39 c6 22 17 41 23 43 18 6 -23 -109 -44
-124 -9 -7 -23 -13 -30 -13 -20 0 -15 17 7 23 l20 5 -20 51 c-23 59 -23 61
-12 61 5 0 17 -19 26 -42z m164 30 c7 -7 12 -20 12 -30 0 -14 -8 -18 -36 -18
-21 0 -33 -4 -29 -10 3 -5 19 -10 36 -10 16 0 29 -4 29 -10 0 -16 -57 -12 -74
6 -9 8 -16 24 -16 34 0 39 52 64 78 38z m83 0 c1 -7 0 -25 -1 -40 -1 -20 3
-28 14 -28 9 0 16 -4 16 -10 0 -5 -16 -10 -35 -10 -19 0 -35 5 -35 10 0 6 5
10 10 10 6 0 10 14 10 30 0 17 -4 30 -10 30 -5 0 -10 5 -10 10 0 15 40 12 41
-2z m56 -3 c3 -9 2 -19 -2 -23 -4 -4 -10 -1 -12 6 -3 6 -11 12 -19 12 -8 0
-14 5 -14 10 0 16 40 11 47 -5z m1748 -60 c16 0 21 8 23 38 4 46 22 49 22 3 0
-19 3 -41 6 -50 5 -12 -2 -14 -38 -13 l-43 2 -1 50 c-2 48 -2 48 5 10 5 -31
10 -40 26 -40z m116 63 c1 -7 0 -25 -1 -40 -1 -20 3 -28 14 -28 9 0 16 -4 16
-10 0 -5 -16 -10 -35 -10 -19 0 -35 5 -35 10 0 6 5 10 10 10 6 0 10 14 10 30
0 17 -4 30 -10 30 -5 0 -10 5 -10 10 0 15 40 12 41 -2z m56 -3 c3 -9 2 -19 -2
-23 -4 -4 -10 -1 -12 6 -3 6 -11 12 -19 12 -8 0 -14 5 -14 10 0 16 40 11 47
-5z m64 3 c1 -7 0 -25 -1 -40 -1 -20 3 -28 14 -28 9 0 16 -4 16 -10 0 -5 -16
-10 -35 -10 -19 0 -35 5 -35 10 0 6 5 10 10 10 6 0 10 14 10 30 0 17 -4 30
-10 30 -5 0 -10 5 -10 10 0 15 40 12 41 -2z m56 -3 c3 -9 2 -19 -2 -23 -4 -4
-10 -1 -12 6 -3 6 -11 12 -19 12 -8 0 -14 5 -14 10 0 16 40 11 47 -5z m101 3
c7 -7 12 -20 12 -30 0 -14 -8 -18 -36 -18 -21 0 -33 -4 -29 -10 3 -5 19 -10
36 -10 16 0 29 -4 29 -10 0 -16 -57 -12 -74 6 -9 8 -16 24 -16 34 0 39 52 64
78 38z m130 -40 c2 -29 -1 -48 -7 -48 -6 0 -11 18 -11 40 0 33 -3 40 -20 40
-17 0 -20 -7 -20 -40 0 -22 -4 -40 -10 -40 -5 0 -10 22 -10 48 l0 48 38 -1 37
0 3 -47z m480 35 c2 -9 -5 -11 -26 -7 -21 4 -31 2 -35 -10 -11 -27 3 -46 34
-46 16 0 29 -4 29 -10 0 -5 -13 -10 -30 -10 -20 0 -35 8 -46 25 -15 23 -15 27
0 51 13 18 24 24 43 22 15 -2 28 -9 31 -15z m110 5 c7 -7 12 -20 12 -30 0 -14
-8 -18 -36 -18 -21 0 -33 -4 -29 -10 3 -5 19 -10 36 -10 16 0 29 -4 29 -10 0
-16 -57 -12 -74 6 -9 8 -16 24 -16 34 0 39 52 64 78 38z m130 -40 c2 -29 -1
-48 -7 -48 -6 0 -11 18 -11 40 0 33 -3 40 -20 40 -17 0 -20 -7 -20 -40 0 -22
-4 -40 -10 -40 -5 0 -10 22 -10 48 l0 48 38 -1 37 0 3 -47z m110 40 c7 -7 12
-20 12 -30 0 -14 -8 -18 -36 -18 -21 0 -33 -4 -29 -10 3 -5 19 -10 36 -10 16
0 29 -4 29 -10 0 -16 -57 -12 -74 6 -9 8 -16 24 -16 34 0 39 52 64 78 38z
m1786 6 c10 -4 16 -18 16 -40 0 -19 5 -34 10 -34 6 0 10 -4 10 -10 0 -5 -7
-10 -15 -10 -14 0 -19 12 -16 33 0 4 -10 7 -24 7 -14 0 -25 -4 -25 -10 0 -5 9
-10 20 -10 11 0 20 -5 20 -11 0 -6 -12 -9 -27 -7 -41 5 -38 40 5 54 35 11 33
24 -5 24 -12 0 -23 5 -23 10 0 11 30 13 54 4z m97 -6 c1 -7 0 -25 -1 -40 -1
-20 3 -28 14 -28 9 0 16 -4 16 -10 0 -5 -16 -10 -35 -10 -19 0 -35 5 -35 10 0
6 5 10 10 10 6 0 10 14 10 30 0 17 -4 30 -10 30 -5 0 -10 5 -10 10 0 15 40 12
41 -2z m56 -3 c3 -9 2 -19 -2 -23 -4 -4 -10 -1 -12 6 -3 6 -11 12 -19 12 -8 0
-14 5 -14 10 0 16 40 11 47 -5z m447 9 c10 -4 16 -18 16 -40 0 -19 5 -34 10
-34 6 0 10 -4 10 -10 0 -5 -7 -10 -15 -10 -14 0 -19 12 -16 33 0 4 -10 7 -24
7 -14 0 -25 -4 -25 -10 0 -5 9 -10 20 -10 11 0 20 -5 20 -11 0 -6 -12 -9 -27
-7 -41 5 -38 40 5 54 35 11 33 24 -5 24 -12 0 -23 5 -23 10 0 11 30 13 54 4z
m148 -8 c11 -17 9 -86 -2 -86 -5 0 -10 18 -10 40 0 22 -4 40 -10 40 -5 0 -10
-18 -10 -40 0 -22 -4 -40 -10 -40 -5 0 -10 18 -10 40 0 22 -4 40 -10 40 -5 0
-10 -18 -10 -40 0 -22 -4 -40 -10 -40 -5 0 -10 22 -10 48 l0 49 43 0 c23 0 45
-5 49 -11z m106 2 c7 -7 12 -20 12 -30 0 -14 -8 -18 -36 -18 -21 0 -33 -4 -29
-10 3 -5 19 -10 36 -10 16 0 29 -4 29 -10 0 -16 -57 -12 -74 6 -9 8 -16 24
-16 34 0 39 52 64 78 38z m1782 -28 c0 -33 3 -40 20 -40 11 0 20 -4 20 -10 0
-5 -20 -10 -45 -10 -25 0 -45 5 -45 10 0 6 9 10 20 10 16 0 20 7 20 30 0 23
-4 30 -20 30 -11 0 -20 5 -20 10 0 6 11 10 25 10 23 0 25 -4 25 -40z m152 26
c11 -17 9 -86 -2 -86 -5 0 -10 18 -10 40 0 22 -4 40 -10 40 -5 0 -10 -18 -10
-40 0 -22 -4 -40 -10 -40 -5 0 -10 18 -10 40 0 22 -4 40 -10 40 -5 0 -10 -18
-10 -40 0 -22 -4 -40 -10 -40 -5 0 -10 22 -10 48 l0 49 43 0 c23 0 45 -5 49
-11z m106 2 c7 -7 12 -20 12 -30 0 -14 -8 -18 -36 -18 -21 0 -33 -4 -29 -10 3
-5 19 -10 36 -10 16 0 29 -4 29 -10 0 -16 -57 -12 -74 6 -9 8 -16 24 -16 34 0
39 52 64 78 38z m346 6 c10 -4 16 -18 16 -40 0 -19 5 -34 10 -34 6 0 10 -4 10
-10 0 -5 -7 -10 -15 -10 -14 0 -19 12 -16 33 0 4 -10 7 -24 7 -14 0 -25 -4
-25 -10 0 -5 9 -10 20 -10 11 0 20 -5 20 -11 0 -6 -12 -9 -27 -7 -41 5 -38 40
5 54 35 11 33 24 -5 24 -12 0 -23 5 -23 10 0 11 30 13 54 4z m254 -6 c7 -7 12
-20 12 -30 0 -14 -8 -18 -36 -18 -21 0 -33 -4 -29 -10 3 -5 19 -10 36 -10 16
0 29 -4 29 -10 0 -16 -57 -12 -74 6 -9 8 -16 24 -16 34 0 39 52 64 78 38z
m130 -40 c2 -29 -1 -48 -7 -48 -6 0 -11 18 -11 40 0 33 -3 40 -20 40 -17 0
-20 -7 -20 -40 0 -22 -4 -40 -10 -40 -5 0 -10 22 -10 48 l0 48 38 -1 37 0 3
-47z m752 -238 c0 -7 -2090 -10 -6250 -10 -4160 0 -6250 3 -6250 10 0 7 2090
10 6250 10 4160 0 6250 -3 6250 -10z m-10290 -170 c0 -22 4 -28 15 -24 25 10
45 -16 45 -57 0 -22 -4 -39 -10 -39 -5 0 -10 18 -10 40 0 33 -3 40 -20 40 -17
0 -20 -7 -20 -40 0 -22 -4 -40 -10 -40 -6 0 -10 32 -10 75 0 43 4 75 10 75 6
0 10 -13 10 -30z m1200 1 c0 -25 3 -28 21 -24 23 6 49 -18 49 -44 0 -22 -38
-53 -65 -53 -24 0 -25 2 -25 75 0 43 4 75 10 75 6 0 10 -13 10 -29z m2700 -44
l0 -74 -32 -1 c-41 -1 -58 13 -58 48 0 33 22 54 50 47 17 -4 20 0 20 24 0 16
5 29 10 29 6 0 10 -31 10 -73z m-5910 3 c0 -47 3 -60 15 -60 8 0 15 -4 15 -10
0 -5 -18 -10 -40 -10 -22 0 -40 5 -40 10 0 6 7 10 15 10 11 0 15 12 15 50 0
40 -3 48 -15 44 -8 -4 -15 -2 -15 4 0 6 6 13 13 15 32 14 37 7 37 -53z m1830
1 c0 -64 -13 -85 -51 -79 -25 3 -48 33 -35 45 4 4 12 0 17 -10 6 -9 19 -17 29
-17 17 0 20 7 20 50 0 38 -4 50 -15 50 -8 0 -15 5 -15 10 0 6 11 10 25 10 24
0 25 -3 25 -59z m590 39 c11 -11 20 -33 20 -50 0 -17 -9 -39 -20 -50 -11 -11
-33 -20 -50 -20 l-30 0 0 70 0 70 30 0 c17 0 39 -9 50 -20z m737 8 c-2 -7 -13
-39 -23 -70 -10 -32 -21 -58 -26 -58 -11 0 -10 12 7 60 20 56 19 60 -10 60
-16 0 -25 -6 -25 -15 0 -8 -4 -15 -10 -15 -5 0 -10 11 -10 25 0 23 3 25 51 25
37 0 50 -4 46 -12z m221 0 c16 -16 16 -100 0 -116 -30 -30 -78 6 -78 58 0 52
48 88 78 58z m1457 2 c-3 -5 -22 -10 -41 -10 -27 0 -34 -4 -34 -20 0 -16 7
-20 30 -20 17 0 30 -4 30 -10 0 -5 -13 -10 -30 -10 -23 0 -30 -4 -30 -20 0
-16 7 -20 34 -20 19 0 38 -4 41 -10 4 -6 -12 -10 -39 -10 l-46 0 0 70 0 70 46
0 c27 0 43 -4 39 -10z m2265 -5 c16 -19 6 -59 -22 -85 l-22 -20 27 0 c15 0 27
-4 27 -10 0 -5 -18 -10 -40 -10 -22 0 -40 4 -40 9 0 5 14 23 31 40 39 40 35
67 -9 64 -27 -1 -31 1 -21 13 15 18 53 18 69 -1z m118 3 c7 -7 12 -33 12 -58
0 -69 -41 -95 -74 -48 -41 58 15 153 62 106z m122 -3 c16 -19 6 -59 -22 -85
l-22 -20 27 0 c15 0 27 -4 27 -10 0 -5 -18 -10 -40 -10 -22 0 -40 4 -40 9 0 5
14 23 31 40 39 40 35 67 -9 64 -27 -1 -31 1 -21 13 15 18 53 18 69 -1z m132
-37 c2 -29 2 -61 0 -70 -5 -22 -22 -24 -22 -3 0 11 -11 15 -35 15 -36 0 -36 0
-30 38 9 52 13 62 24 62 6 0 9 -6 7 -12 -18 -58 -17 -68 9 -68 23 0 25 4 25
45 0 62 17 57 22 -7z m226 40 c7 -7 12 -33 12 -58 0 -69 -41 -95 -74 -48 -41
58 15 153 62 106z m102 -48 c0 -47 3 -60 15 -60 8 0 15 -4 15 -10 0 -5 -18
-10 -40 -10 -22 0 -40 5 -40 10 0 6 7 10 15 10 11 0 15 12 15 50 0 40 -3 48
-15 44 -8 -4 -15 -2 -15 4 0 6 6 13 13 15 32 14 37 7 37 -53z m260 45 c16 -19
6 -59 -22 -85 l-22 -20 27 0 c15 0 27 -4 27 -10 0 -5 -18 -10 -40 -10 -22 0
-40 4 -40 9 0 5 14 23 31 40 39 40 35 67 -9 64 -27 -1 -31 1 -21 13 15 18 53
18 69 -1z m120 0 c16 -19 6 -59 -22 -85 l-22 -20 27 0 c15 0 27 -4 27 -10 0
-5 -18 -10 -40 -10 -22 0 -40 4 -40 9 0 5 14 23 31 40 39 40 35 67 -9 64 -27
-1 -31 1 -21 13 15 18 53 18 69 -1z m238 3 c7 -7 12 -33 12 -58 0 -69 -41 -95
-74 -48 -41 58 15 153 62 106z m116 6 c11 -4 16 -19 16 -49 0 -46 -15 -69 -51
-80 -32 -10 -34 2 -3 17 34 16 44 39 15 31 -43 -11 -67 39 -35 71 16 17 33 20
58 10z m246 -9 c16 -19 6 -59 -22 -85 l-22 -20 27 0 c15 0 27 -4 27 -10 0 -5
-18 -10 -40 -10 -22 0 -40 4 -40 9 0 5 14 23 31 40 39 40 35 67 -9 64 -27 -1
-31 1 -21 13 15 18 53 18 69 -1z m120 7 c0 -4 -10 -12 -22 -17 -31 -14 -34
-33 -4 -28 45 9 59 -68 15 -82 -49 -16 -80 26 -62 82 11 32 73 71 73 45z m240
-7 c16 -19 6 -59 -22 -85 l-22 -20 27 0 c15 0 27 -4 27 -10 0 -5 -18 -10 -40
-10 -22 0 -40 4 -40 9 0 5 14 23 31 40 39 40 35 67 -9 64 -27 -1 -31 1 -21 13
15 18 53 18 69 -1z m121 -1 c10 -12 10 -20 1 -34 -7 -12 -8 -21 -2 -25 16 -10
12 -52 -6 -59 -44 -17 -81 7 -69 44 4 13 18 23 36 27 34 7 42 43 9 43 -13 0
-20 -7 -20 -20 0 -11 -4 -20 -10 -20 -11 0 -14 43 -3 53 12 13 50 7 64 -9z
m1317 4 c7 -7 12 -33 12 -58 0 -69 -41 -95 -74 -48 -41 58 15 153 62 106z
m120 0 c7 -7 12 -33 12 -58 0 -69 -41 -95 -74 -48 -41 58 15 153 62 106z m240
0 c7 -7 12 -33 12 -58 0 -69 -41 -95 -74 -48 -41 58 15 153 62 106z m120 0 c7
-7 12 -33 12 -58 0 -69 -41 -95 -74 -48 -41 58 15 153 62 106z m222 -48 c0
-47 3 -60 15 -60 8 0 15 -4 15 -10 0 -5 -18 -10 -40 -10 -22 0 -40 5 -40 10 0
6 7 10 15 10 11 0 15 12 15 50 0 40 -3 48 -15 44 -8 -4 -15 -2 -15 4 0 6 6 13
13 15 32 14 37 7 37 -53z m138 48 c7 -7 12 -33 12 -58 0 -69 -41 -95 -74 -48
-41 58 15 153 62 106z m-6398 -13 c0 -9 9 -15 25 -15 14 0 25 -4 25 -10 0 -5
-12 -10 -26 -10 -22 0 -25 -4 -22 -27 2 -20 9 -29 26 -31 30 -5 28 -22 -3 -22
-26 0 -45 25 -45 59 0 10 -6 22 -12 25 -10 5 -10 7 0 12 6 3 12 12 12 20 0 8
5 14 10 14 6 0 10 -7 10 -15z m3620 -20 c0 -8 -4 -15 -10 -15 -5 0 -10 7 -10
15 0 8 5 15 10 15 6 0 10 -7 10 -15z m360 0 c0 -8 -4 -15 -10 -15 -5 0 -10 7
-10 15 0 8 5 15 10 15 6 0 10 -7 10 -15z m1800 0 c0 -8 -4 -15 -10 -15 -5 0
-10 7 -10 15 0 8 5 15 10 15 6 0 10 -7 10 -15z m360 0 c0 -8 -4 -15 -10 -15
-5 0 -10 7 -10 15 0 8 5 15 10 15 6 0 10 -7 10 -15z m-9222 -7 c17 -17 15 -63
-3 -78 -20 -16 -65 -4 -67 18 -3 33 3 56 15 64 18 11 41 10 55 -4z m240 0 c14
-12 16 -88 2 -88 -5 0 -10 18 -10 40 0 33 -3 40 -20 40 -17 0 -20 -7 -20 -40
0 -22 -4 -40 -10 -40 -5 0 -10 21 -10 48 0 44 2 47 28 49 15 1 33 -3 40 -9z
m360 0 c17 -17 15 -63 -3 -78 -20 -16 -65 -4 -67 18 -3 33 3 56 15 64 18 11
41 10 55 -4z m120 0 c7 -7 12 -20 12 -30 0 -14 -8 -18 -36 -18 -21 0 -33 -4
-29 -10 3 -5 17 -10 31 -10 13 0 24 -4 24 -10 0 -16 -42 -12 -62 7 -22 20 -23
46 -2 67 18 19 45 21 62 4z m369 -4 c2 -6 -8 -9 -25 -6 -20 3 -31 -1 -35 -12
-11 -27 3 -46 34 -46 16 0 29 -4 29 -10 0 -5 -13 -10 -30 -10 -20 0 -35 8 -46
25 -15 23 -15 27 0 51 13 18 24 24 43 22 15 -2 28 -8 30 -14z m457 10 c10 -4
16 -18 16 -40 0 -19 5 -34 10 -34 6 0 10 -4 10 -10 0 -5 -7 -10 -15 -10 -8 0
-15 5 -15 10 0 6 -7 6 -19 -1 -10 -7 -26 -9 -35 -6 -27 11 -14 41 22 53 35 11
33 24 -5 24 -12 0 -23 5 -23 10 0 11 30 13 54 4z m134 -6 c7 -7 12 -20 12 -30
0 -14 -8 -18 -36 -18 -21 0 -33 -4 -29 -10 3 -5 17 -10 31 -10 13 0 24 -4 24
-10 0 -16 -42 -12 -62 7 -22 20 -23 46 -2 67 18 19 45 21 62 4z m1320 0 c14
-12 16 -88 2 -88 -5 0 -10 18 -10 40 0 33 -3 40 -20 40 -17 0 -20 -7 -20 -40
0 -22 -4 -40 -10 -40 -5 0 -10 21 -10 48 0 44 2 47 28 49 15 1 33 -3 40 -9z
m240 0 c7 -7 12 -20 12 -30 0 -14 -8 -18 -36 -18 -21 0 -33 -4 -29 -10 3 -5
17 -10 31 -10 13 0 24 -4 24 -10 0 -16 -42 -12 -62 7 -22 20 -23 46 -2 67 18
19 45 21 62 4z m82 1 c0 -8 5 -8 15 1 18 15 45 6 45 -15 0 -18 -17 -20 -22 -3
-7 19 -38 0 -38 -23 0 -12 8 -28 18 -35 15 -12 13 -13 -20 -14 -21 0 -38 5
-38 10 0 6 5 10 10 10 14 0 12 54 -2 68 -9 9 -7 12 10 12 12 0 22 -5 22 -11z
m221 -31 c1 -40 2 -41 9 -13 l8 30 1 -32 c1 -28 -13 -52 -25 -41 -2 3 -7 26
-10 51 -5 32 -3 47 5 47 6 0 12 -18 12 -42z m39 12 c0 -16 5 -30 10 -30 6 0
10 14 10 30 0 17 5 30 11 30 7 0 9 -9 5 -22 -3 -13 -6 -35 -6 -50 0 -41 -26
-35 -34 8 -4 19 -10 42 -13 50 -3 8 0 14 6 14 6 0 11 -13 11 -30z m138 18 c17
-17 15 -63 -3 -78 -20 -16 -65 -4 -67 18 -3 33 3 56 15 64 18 11 41 10 55 -4z
m120 0 c17 -17 15 -63 -3 -78 -20 -16 -65 -4 -67 18 -3 33 3 56 15 64 18 11
41 10 55 -4z m247 2 c-3 -5 -17 -10 -31 -10 -34 0 -30 -17 6 -25 33 -7 42 -38
14 -49 -25 -9 -64 -7 -64 4 0 6 14 10 30 10 17 0 30 4 30 9 0 5 -13 12 -30 16
-31 7 -42 38 -17 48 23 10 68 7 62 -3z m1575 -20 c0 -5 -22 -10 -50 -10 -27 0
-50 5 -50 10 0 6 23 10 50 10 28 0 50 -4 50 -10z m360 0 c0 -5 -22 -10 -50
-10 -27 0 -50 5 -50 10 0 6 23 10 50 10 28 0 50 -4 50 -10z m680 -55 c0 -8 -4
-15 -10 -15 -5 0 -10 7 -10 15 0 8 5 15 10 15 6 0 10 -7 10 -15z m360 0 c0 -8
-4 -15 -10 -15 -5 0 -10 7 -10 15 0 8 5 15 10 15 6 0 10 -7 10 -15z m1800 0
c0 -8 -4 -15 -10 -15 -5 0 -10 7 -10 15 0 8 5 15 10 15 6 0 10 -7 10 -15z
m360 0 c0 -8 -4 -15 -10 -15 -5 0 -10 7 -10 15 0 8 5 15 10 15 6 0 10 -7 10
-15z m-8240 -25 c0 -6 -43 -10 -110 -10 -67 0 -110 4 -110 10 0 6 43 10 110
10 67 0 110 -4 110 -10z m-3970 -1760 c0 -5 -9 -10 -20 -10 -18 0 -20 -7 -20
-70 0 -63 2 -70 20 -70 11 0 20 -4 20 -10 0 -5 -13 -10 -30 -10 l-30 0 0 90 0
90 30 0 c17 0 30 -4 30 -10z m220 -80 l0 -90 -30 0 c-16 0 -30 5 -30 10 0 6 9
10 20 10 18 0 20 7 20 70 0 63 -2 70 -20 70 -11 0 -20 5 -20 10 0 6 14 10 30
10 l30 0 0 -90z m-99 49 c8 -16 8 -27 -2 -45 -9 -18 -10 -30 -1 -49 9 -20 9
-25 -2 -25 -7 0 -18 11 -24 25 -6 14 -16 25 -22 25 -5 0 -10 -11 -10 -25 0
-16 -6 -25 -15 -25 -12 0 -15 14 -15 70 l0 70 40 0 c30 0 42 -5 51 -21z m600
0 c8 -16 8 -27 -2 -45 -9 -18 -10 -30 -1 -49 9 -20 9 -25 -2 -25 -7 0 -18 11
-24 25 -6 14 -16 25 -22 25 -5 0 -10 -11 -10 -25 0 -16 -6 -25 -15 -25 -12 0
-15 14 -15 70 l0 70 40 0 c30 0 42 -5 51 -21z m429 -4 c0 -9 9 -15 25 -15 14
0 25 -4 25 -10 0 -5 -12 -10 -26 -10 -22 0 -25 -4 -22 -27 2 -20 9 -29 26 -31
29 -4 29 -22 -1 -22 -31 0 -47 18 -47 51 0 15 -6 30 -12 33 -10 5 -10 7 0 12
6 3 12 12 12 20 0 8 5 14 10 14 6 0 10 -7 10 -15z m-322 -27 c7 -7 12 -20 12
-30 0 -14 -8 -18 -36 -18 -21 0 -33 -4 -29 -10 3 -5 19 -10 36 -10 16 0 29 -4
29 -10 0 -16 -57 -12 -74 6 -19 18 -20 38 -6 65 12 21 50 25 68 7z m132 2 c0
-5 -13 -10 -30 -10 -39 0 -39 -16 1 -24 25 -5 30 -10 27 -28 -2 -19 -10 -24
-40 -26 -22 -2 -38 1 -38 7 0 6 14 11 30 11 17 0 30 4 30 9 0 5 -13 11 -30 15
-29 5 -41 32 -23 49 10 11 73 8 73 -3z m108 -2 c7 -7 12 -20 12 -30 0 -14 -8
-18 -36 -18 -21 0 -33 -4 -29 -10 3 -5 19 -10 36 -10 16 0 29 -4 29 -10 0 -16
-57 -12 -74 6 -19 18 -20 38 -6 65 12 21 50 25 68 7z m372 -49 c0 -62 -13 -79
-59 -79 -31 0 -26 18 6 22 14 2 28 8 30 15 3 7 -3 9 -16 6 -28 -7 -51 14 -51
46 0 36 17 51 57 49 l33 -1 0 -58z m104 45 c9 -8 16 -24 16 -34 0 -10 3 -25 6
-33 4 -11 -5 -15 -41 -15 -32 -1 -48 3 -52 13 -7 20 14 45 38 45 11 0 19 5 19
10 0 6 -11 10 -25 10 -14 0 -25 5 -25 10 0 16 47 12 64 -6z m144 -36 c2 -38 0
-48 -12 -48 -12 0 -16 11 -18 43 l-1 42 -4 -42 c-5 -54 -23 -56 -23 -3 0 22
-4 40 -10 40 -5 0 -10 -18 -10 -40 0 -22 -4 -40 -10 -40 -5 0 -10 22 -10 49
l0 48 48 -1 47 -1 3 -47z m100 40 c7 -7 12 -20 12 -30 0 -14 -8 -18 -36 -18
-21 0 -33 -4 -29 -10 3 -5 19 -10 36 -10 16 0 29 -4 29 -10 0 -16 -57 -12 -74
6 -19 18 -20 38 -6 65 12 21 50 25 68 7z m-1298 -18 c0 -5 -22 -10 -50 -10
-27 0 -50 5 -50 10 0 6 23 10 50 10 28 0 50 -4 50 -10z m-490 -160 c0 -5 -9
-10 -20 -10 -18 0 -20 -7 -20 -70 0 -63 2 -70 20 -70 11 0 20 -4 20 -10 0 -5
-13 -10 -30 -10 l-30 0 0 90 0 90 30 0 c17 0 30 -4 30 -10z m220 -80 l0 -90
-30 0 c-16 0 -30 5 -30 10 0 6 9 10 20 10 18 0 20 7 20 70 0 63 -2 70 -20 70
-11 0 -20 5 -20 10 0 6 14 10 30 10 l30 0 0 -90z m-106 54 c22 -22 20 -76 -4
-107 -24 -30 -25 -37 -5 -37 8 0 15 -4 15 -10 0 -11 -11 -13 -34 -4 -9 3 -16
11 -16 18 0 6 -9 19 -20 29 -22 19 -27 75 -10 108 13 23 53 25 74 3z m607 -5
c8 -16 8 -27 -2 -45 -9 -18 -10 -30 -1 -49 9 -20 9 -25 -2 -25 -7 0 -18 11
-24 25 -6 14 -16 25 -22 25 -5 0 -10 -11 -10 -25 0 -16 -6 -25 -15 -25 -12 0
-15 14 -15 70 l0 70 40 0 c30 0 42 -5 51 -21z m189 -4 c0 -9 9 -15 25 -15 14
0 25 -4 25 -10 0 -5 -12 -10 -26 -10 -22 0 -25 -4 -22 -27 2 -20 9 -29 26 -31
29 -4 29 -22 -1 -22 -31 0 -47 18 -47 51 0 15 -6 30 -12 33 -10 5 -10 7 0 12
6 3 12 12 12 20 0 8 5 14 10 14 6 0 10 -7 10 -15z m600 0 c0 -9 9 -15 25 -15
14 0 25 -4 25 -10 0 -5 -12 -10 -26 -10 -22 0 -25 -4 -22 -27 2 -20 9 -29 26
-31 29 -4 29 -22 -1 -22 -31 0 -47 18 -47 51 0 15 -6 30 -12 33 -10 5 -10 7 0
12 6 3 12 12 12 20 0 8 5 14 10 14 6 0 10 -7 10 -15z m-682 -27 c7 -7 12 -20
12 -30 0 -14 -8 -18 -36 -18 -21 0 -33 -4 -29 -10 3 -5 19 -10 36 -10 16 0 29
-4 29 -10 0 -16 -57 -12 -74 6 -19 18 -20 38 -6 65 12 21 50 25 68 7z m192
-29 c0 -33 3 -40 18 -37 12 2 18 14 20 41 4 46 22 49 22 3 0 -19 3 -41 6 -49
4 -12 -3 -15 -33 -15 -21 0 -44 5 -50 10 -19 15 -17 88 2 88 11 0 15 -11 15
-41z m133 28 c3 -7 3 -25 0 -40 -4 -20 -1 -27 11 -27 9 0 16 -4 16 -10 0 -5
-16 -10 -35 -10 -19 0 -35 5 -35 10 0 6 5 10 10 10 6 0 10 14 10 30 0 17 -4
30 -10 30 -5 0 -10 5 -10 10 0 15 37 12 43 -3z m54 -2 c3 -9 2 -19 -2 -23 -4
-4 -10 -1 -12 6 -3 6 -11 12 -19 12 -8 0 -14 5 -14 10 0 16 40 11 47 -5z m111
-37 c2 -29 -1 -48 -7 -48 -6 0 -11 18 -11 40 0 33 -3 40 -20 40 -17 0 -20 -7
-20 -40 0 -22 -4 -40 -10 -40 -5 0 -10 22 -10 49 l0 49 38 -1 c37 -2 37 -2 40
-49z m350 40 c7 -7 12 -24 12 -38 0 -52 -61 -71 -82 -25 -23 51 32 101 70 63z
m260 -40 c2 -38 0 -48 -12 -48 -12 0 -16 11 -18 43 l-1 42 -4 -42 c-5 -54 -23
-56 -23 -3 0 22 -4 40 -10 40 -5 0 -10 -18 -10 -40 0 -22 -4 -40 -10 -40 -5 0
-10 22 -10 49 l0 48 48 -1 47 -1 3 -47z m100 40 c7 -7 12 -20 12 -30 0 -14 -8
-18 -36 -18 -21 0 -33 -4 -29 -10 3 -5 19 -10 36 -10 16 0 29 -4 29 -10 0 -16
-57 -12 -74 6 -19 18 -20 38 -6 65 12 21 50 25 68 7z m130 -40 c2 -29 -1 -48
-7 -48 -6 0 -11 18 -11 40 0 33 -3 40 -20 40 -17 0 -20 -7 -20 -40 0 -22 -4
-40 -10 -40 -5 0 -10 22 -10 49 l0 49 38 -1 c37 -2 37 -2 40 -49z m62 11 c0
-33 3 -40 18 -37 12 2 18 14 20 41 4 46 22 49 22 3 0 -19 3 -41 6 -49 4 -12
-3 -15 -33 -15 -21 0 -44 5 -50 10 -19 15 -17 88 2 88 11 0 15 -11 15 -41z
m-1730 11 c0 -5 -22 -10 -50 -10 -27 0 -50 5 -50 10 0 6 23 10 50 10 28 0 50
-4 50 -10z m1130 -669 c0 -25 3 -28 25 -24 32 7 53 -33 36 -66 -12 -22 -52
-37 -76 -27 -22 8 -22 146 0 146 10 0 15 -10 15 -29z m-1610 9 c0 -5 -16 -10
-35 -10 -28 0 -35 -4 -35 -20 0 -15 7 -20 25 -20 14 0 25 -4 25 -10 0 -5 -11
-10 -25 -10 -18 0 -25 -5 -25 -20 0 -16 7 -20 35 -20 19 0 35 -4 35 -10 0 -5
-22 -10 -50 -10 l-50 0 0 70 0 70 50 0 c28 0 50 -4 50 -10z m180 -15 c0 -9 9
-15 25 -15 14 0 25 -4 25 -10 0 -5 -12 -10 -26 -10 -22 0 -25 -4 -22 -27 2
-20 9 -29 26 -31 29 -4 29 -22 -1 -22 -31 0 -47 18 -47 51 0 15 -6 30 -12 33
-10 5 -10 7 0 12 6 3 12 12 12 20 0 8 5 14 10 14 6 0 10 -7 10 -15z m1820 -20
c0 -8 -4 -15 -9 -15 -13 0 -22 16 -14 24 11 11 23 6 23 -9z m-1892 -47 c2 -29
-1 -48 -7 -48 -6 0 -11 18 -11 40 0 33 -3 40 -20 40 -17 0 -20 -7 -20 -40 0
-22 -4 -40 -10 -40 -5 0 -10 22 -10 49 l0 49 38 -1 c37 -2 37 -2 40 -49z m230
40 c7 -7 12 -20 12 -30 0 -14 -8 -18 -36 -18 -21 0 -33 -4 -29 -10 3 -5 19
-10 36 -10 16 0 29 -4 29 -10 0 -16 -57 -12 -74 6 -19 18 -20 38 -6 65 12 21
50 25 68 7z m85 -1 c3 -7 3 -25 0 -40 -4 -20 -1 -27 11 -27 9 0 16 -4 16 -10
0 -5 -16 -10 -35 -10 -19 0 -35 5 -35 10 0 6 5 10 10 10 6 0 10 14 10 30 0 17
-4 30 -10 30 -5 0 -10 5 -10 10 0 15 37 12 43 -3z m54 -2 c3 -9 2 -19 -2 -23
-4 -4 -10 -1 -12 6 -3 6 -11 12 -19 12 -8 0 -14 5 -14 10 0 16 40 11 47 -5z
m233 -46 c0 -62 -13 -79 -59 -79 -31 0 -26 18 6 22 14 2 28 8 30 15 3 7 -3 9
-16 6 -28 -7 -51 14 -51 46 0 36 17 51 57 49 l33 -1 0 -58z m104 45 c9 -8 16
-24 16 -34 0 -10 3 -25 6 -33 4 -11 -5 -15 -41 -15 -32 -1 -48 3 -52 13 -7 20
14 45 38 45 11 0 19 5 19 10 0 6 -11 10 -25 10 -14 0 -25 5 -25 10 0 16 47 12
64 -6z m144 -36 c2 -38 0 -48 -12 -48 -12 0 -16 11 -18 43 l-1 42 -4 -42 c-5
-54 -23 -56 -23 -3 0 22 -4 40 -10 40 -5 0 -10 -18 -10 -40 0 -22 -4 -40 -10
-40 -5 0 -10 22 -10 49 l0 48 48 -1 47 -1 3 -47z m100 40 c7 -7 12 -20 12 -30
0 -14 -8 -18 -36 -18 -21 0 -33 -4 -29 -10 3 -5 19 -10 36 -10 16 0 29 -4 29
-10 0 -16 -57 -12 -74 6 -19 18 -20 38 -6 65 12 21 50 25 68 7z m250 -40 c2
-29 -1 -48 -7 -48 -6 0 -11 18 -11 40 0 33 -3 40 -20 40 -17 0 -20 -7 -20 -40
0 -22 -4 -40 -10 -40 -5 0 -10 22 -10 49 l0 49 38 -1 c37 -2 37 -2 40 -49z
m62 11 c0 -33 3 -40 18 -37 12 2 18 14 20 41 4 46 22 49 22 3 0 -19 3 -41 6
-49 4 -12 -3 -15 -33 -15 -21 0 -44 5 -50 10 -19 15 -17 88 2 88 11 0 15 -11
15 -41z m188 -11 c2 -38 0 -48 -12 -48 -12 0 -16 11 -18 43 l-1 42 -4 -42 c-5
-54 -23 -56 -23 -3 0 22 -4 40 -10 40 -5 0 -10 -18 -10 -40 0 -22 -4 -40 -10
-40 -5 0 -10 22 -10 49 l0 48 48 -1 47 -1 3 -47z m220 40 c7 -7 12 -20 12 -30
0 -14 -8 -18 -36 -18 -21 0 -33 -4 -29 -10 3 -5 19 -10 36 -10 16 0 29 -4 29
-10 0 -16 -57 -12 -74 6 -19 18 -20 38 -6 65 12 21 50 25 68 7z m85 -1 c3 -7
3 -25 0 -40 -4 -20 -1 -27 11 -27 9 0 16 -4 16 -10 0 -5 -16 -10 -35 -10 -19
0 -35 5 -35 10 0 6 5 10 10 10 6 0 10 14 10 30 0 17 -4 30 -10 30 -5 0 -10 5
-10 10 0 15 37 12 43 -3z m54 -2 c3 -9 2 -19 -2 -23 -4 -4 -10 -1 -12 6 -3 6
-11 12 -19 12 -8 0 -14 5 -14 10 0 16 40 11 47 -5z m83 -70 c0 -8 -4 -15 -9
-15 -13 0 -22 16 -14 24 11 11 23 6 23 -9z"/>
<path d="M3600 3890 c0 -28 3 -31 28 -28 21 2 27 8 27 28 0 20 -6 26 -27 28
-25 3 -28 0 -28 -28z"/>
<path d="M1326 3865 c-8 -23 4 -45 25 -45 14 0 19 7 19 30 0 23 -5 30 -19 30
-10 0 -21 -7 -25 -15z"/>
<path d="M4087 3874 c-10 -11 3 -24 24 -24 10 0 19 7 19 15 0 15 -31 21 -43 9z"/>
<path d="M6367 3874 c-10 -11 3 -24 24 -24 10 0 19 7 19 15 0 15 -31 21 -43 9z"/>
<path d="M7087 3874 c-10 -11 3 -24 24 -24 10 0 19 7 19 15 0 15 -31 21 -43 9z"/>
<path d="M7327 3874 c-10 -11 3 -24 24 -24 10 0 19 7 19 15 0 15 -31 21 -43 9z"/>
<path d="M9967 3874 c-10 -11 3 -24 24 -24 10 0 19 7 19 15 0 15 -31 21 -43 9z"/>
<path d="M12007 3874 c-10 -11 3 -24 24 -24 10 0 19 7 19 15 0 15 -31 21 -43
9z"/>
<path d="M12607 3874 c-10 -11 3 -24 24 -24 10 0 19 7 19 15 0 15 -31 21 -43
9z"/>
<path d="M4450 3370 c0 -33 19 -40 40 -15 16 20 5 45 -20 45 -16 0 -20 -7 -20
-30z"/>
<path d="M7084 3386 c-9 -24 4 -48 23 -44 12 2 18 12 18 28 0 29 -32 41 -41
16z"/>
<path d="M3600 3390 c0 -41 3 -50 18 -50 25 0 42 20 42 50 0 30 -17 50 -42 50
-15 0 -18 -9 -18 -50z"/>
<path d="M4564 3415 c-9 -38 3 -75 25 -75 13 0 21 9 26 29 12 56 -37 100 -51
46z m36 -25 c0 -5 -4 -10 -10 -10 -5 0 -10 5 -10 10 0 6 5 10 10 10 6 0 10 -4
10 -10z"/>
<path d="M8404 3415 c-9 -38 3 -75 25 -75 13 0 21 9 26 29 12 56 -37 100 -51
46z m36 -25 c0 -5 -4 -10 -10 -10 -5 0 -10 5 -10 10 0 6 5 10 10 10 6 0 10 -4
10 -10z"/>
<path d="M8884 3415 c-9 -38 3 -75 25 -75 13 0 21 9 26 29 12 56 -37 100 -51
46z m36 -25 c0 -5 -4 -10 -10 -10 -5 0 -10 5 -10 10 0 6 5 10 10 10 6 0 10 -4
10 -10z"/>
<path d="M9604 3415 c-9 -38 3 -75 25 -75 13 0 21 9 26 29 12 56 -37 100 -51
46z m36 -25 c0 -5 -4 -10 -10 -10 -5 0 -10 5 -10 10 0 6 5 10 10 10 6 0 10 -4
10 -10z"/>
<path d="M9724 3425 c-8 -19 3 -35 26 -35 19 0 30 17 23 38 -6 17 -42 15 -49
-3z"/>
<path d="M10084 3375 c-4 -9 -2 -21 4 -27 16 -16 47 -5 47 17 0 26 -42 34 -51
10z"/>
<path d="M10445 3370 c-4 -7 -3 -16 3 -22 14 -14 47 -6 47 12 0 18 -40 26 -50
10z"/>
<path d="M11764 3415 c-9 -38 3 -75 25 -75 13 0 21 9 26 29 12 56 -37 100 -51
46z m36 -25 c0 -5 -4 -10 -10 -10 -5 0 -10 5 -10 10 0 6 5 10 10 10 6 0 10 -4
10 -10z"/>
<path d="M11884 3415 c-9 -38 3 -75 25 -75 13 0 21 9 26 29 12 56 -37 100 -51
46z m36 -25 c0 -5 -4 -10 -10 -10 -5 0 -10 5 -10 10 0 6 5 10 10 10 6 0 10 -4
10 -10z"/>
<path d="M12124 3415 c-9 -38 3 -75 25 -75 13 0 21 9 26 29 12 56 -37 100 -51
46z m36 -25 c0 -5 -4 -10 -10 -10 -5 0 -10 5 -10 10 0 6 5 10 10 10 6 0 10 -4
10 -10z"/>
<path d="M12244 3415 c-9 -38 3 -75 25 -75 13 0 21 9 26 29 12 56 -37 100 -51
46z m36 -25 c0 -5 -4 -10 -10 -10 -5 0 -10 5 -10 10 0 6 5 10 10 10 6 0 10 -4
10 -10z"/>
<path d="M12604 3415 c-9 -38 3 -75 25 -75 13 0 21 9 26 29 12 56 -37 100 -51
46z m36 -25 c0 -5 -4 -10 -10 -10 -5 0 -10 5 -10 10 0 6 5 10 10 10 6 0 10 -4
10 -10z"/>
<path d="M3126 3385 c-8 -23 4 -45 25 -45 14 0 19 7 19 30 0 23 -5 30 -19 30
-10 0 -21 -7 -25 -15z"/>
<path d="M3726 3385 c-8 -23 4 -45 25 -45 14 0 19 7 19 30 0 23 -5 30 -19 30
-10 0 -21 -7 -25 -15z"/>
<path d="M3847 3394 c-10 -11 3 -24 24 -24 10 0 19 7 19 15 0 15 -31 21 -43 9z"/>
<path d="M4680 3350 c0 -5 9 -10 19 -10 11 0 23 5 26 10 4 6 -5 10 -19 10 -14
0 -26 -4 -26 -10z"/>
<path d="M4807 3394 c-10 -11 3 -24 24 -24 10 0 19 7 19 15 0 15 -31 21 -43 9z"/>
<path d="M6367 3394 c-10 -11 3 -24 24 -24 10 0 19 7 19 15 0 15 -31 21 -43 9z"/>
<path d="M6846 3385 c-8 -23 4 -45 25 -45 14 0 19 7 19 30 0 23 -5 30 -19 30
-10 0 -21 -7 -25 -15z"/>
<path d="M6966 3385 c-8 -23 4 -45 25 -45 14 0 19 7 19 30 0 23 -5 30 -19 30
-10 0 -21 -7 -25 -15z"/>
<path d="M250 1495 c0 -18 5 -25 20 -25 15 0 20 7 20 25 0 18 -5 25 -20 25
-15 0 -20 -7 -20 -25z"/>
<path d="M850 1495 c0 -18 5 -25 20 -25 15 0 20 7 20 25 0 18 -5 25 -20 25
-15 0 -20 -7 -20 -25z"/>
<path d="M965 1470 c-4 -6 5 -10 19 -10 14 0 26 5 26 10 0 6 -9 10 -19 10 -11
0 -23 -4 -26 -10z"/>
<path d="M1205 1470 c-4 -6 5 -10 19 -10 14 0 26 5 26 10 0 6 -9 10 -19 10
-11 0 -23 -4 -26 -10z"/>
<path d="M1564 1466 c-9 -24 4 -48 23 -44 24 4 24 52 0 56 -9 2 -20 -4 -23
-12z"/>
<path d="M1680 1430 c0 -5 9 -10 20 -10 11 0 20 5 20 10 0 6 -9 10 -20 10 -11
0 -20 -4 -20 -10z"/>
<path d="M1925 1470 c-4 -6 5 -10 19 -10 14 0 26 5 26 10 0 6 -9 10 -19 10
-11 0 -23 -4 -26 -10z"/>
<path d="M244 1266 c-3 -8 -4 -29 -2 -48 2 -25 8 -34 25 -36 26 -4 39 31 29
73 -7 28 -43 35 -52 11z"/>
<path d="M850 1255 c0 -18 5 -25 20 -25 15 0 20 7 20 25 0 18 -5 25 -20 25
-15 0 -20 -7 -20 -25z"/>
<path d="M965 1230 c-4 -6 5 -10 19 -10 14 0 26 5 26 10 0 6 -9 10 -19 10 -11
0 -23 -4 -26 -10z"/>
<path d="M1810 1210 c0 -23 4 -30 20 -30 16 0 20 7 20 30 0 23 -4 30 -20 30
-16 0 -20 -7 -20 -30z"/>
<path d="M2165 1230 c-4 -6 5 -10 19 -10 14 0 26 5 26 10 0 6 -9 10 -19 10
-11 0 -23 -4 -26 -10z"/>
<path d="M1810 490 c0 -33 19 -40 40 -15 16 20 5 45 -20 45 -16 0 -20 -7 -20
-30z"/>
<path d="M485 510 c-4 -6 5 -10 19 -10 14 0 26 5 26 10 0 6 -9 10 -19 10 -11
0 -23 -4 -26 -10z"/>
<path d="M844 506 c-9 -24 4 -48 23 -44 12 2 18 12 18 28 0 29 -32 41 -41 16z"/>
<path d="M960 470 c0 -5 9 -10 20 -10 11 0 20 5 20 10 0 6 -9 10 -20 10 -11 0
-20 -4 -20 -10z"/>
<path d="M1205 510 c-4 -6 5 -10 19 -10 14 0 26 5 26 10 0 6 -9 10 -19 10 -11
0 -23 -4 -26 -10z"/>
<path d="M1925 510 c-4 -6 5 -10 19 -10 14 0 26 5 26 10 0 6 -9 10 -19 10 -11
0 -23 -4 -26 -10z"/>
</g>
</svg>
