<?xml version="1.0" standalone="no"?>
<!DOCTYPE svg PUBLIC "-//W3C//DTD SVG 20010904//EN"
 "http://www.w3.org/TR/2001/REC-SVG-20010904/DTD/svg10.dtd">
<svg version="1.0" xmlns="http://www.w3.org/2000/svg"
 width="1467.000000pt" height="357.000000pt" viewBox="0 0 1467.000000 357.000000"
 preserveAspectRatio="xMidYMid meet">

<g transform="translate(0.000000,357.000000) scale(0.100000,-0.100000)"
fill="#000000" stroke="none">
<path d="M0 1785 l0 -1785 7335 0 7335 0 0 1785 0 1785 -7335 0 -7335 0 0
-1785z m2074 1154 c-3 -5 -10 -7 -15 -3 -5 3 -7 10 -3 15 3 5 10 7 15 3 5 -3
7 -10 3 -15z m360 0 c-3 -5 -10 -7 -15 -3 -5 3 -7 10 -3 15 3 5 10 7 15 3 5
-3 7 -10 3 -15z m4668 -46 c3 -57 6 -68 20 -67 10 1 15 -2 12 -7 -9 -15 -33
-10 -44 10 -5 11 -10 42 -10 70 0 39 -4 51 -17 54 -11 3 -8 5 9 6 27 1 27 0
30 -66z m3588 9 c25 16 50 -5 50 -43 0 -22 -6 -32 -26 -39 -51 -20 -54 -16
-52 68 1 42 3 60 5 40 4 -34 6 -36 23 -26z m638 46 c-22 -7 -28 -16 -28 -39 0
-23 5 -29 23 -30 l22 -2 -22 -4 c-18 -3 -23 -11 -23 -34 0 -16 -4 -29 -10 -29
-5 0 -10 14 -10 30 0 21 -5 30 -17 31 -17 1 -17 2 0 6 9 2 17 12 17 22 0 27
29 61 53 60 19 0 19 -2 -5 -11z m-9723 -9 c17 -8 16 -9 -6 -4 -16 3 -31 -1
-39 -10 -9 -11 -5 -18 24 -37 25 -16 35 -29 34 -43 -4 -26 -53 -44 -71 -26
-10 10 -7 11 14 6 17 -4 30 -1 38 9 11 13 8 19 -23 37 -37 21 -45 46 -24 67
14 14 25 14 53 1z m5405 -9 c11 -11 20 -24 20 -30 0 -17 -39 -50 -59 -50 -12
0 -21 -8 -24 -22 -2 -13 -5 10 -6 50 -1 71 0 72 24 72 14 0 34 -9 45 -20z
m3326 -30 c10 -27 21 -50 25 -50 5 0 10 24 12 53 3 45 4 42 5 -20 2 -70 -10
-97 -25 -55 -3 9 -13 33 -21 52 l-16 35 -6 -55 -7 -55 -1 73 c-1 39 2 72 7 72
5 0 17 -22 27 -50z m-8618 9 l27 -2 -27 -4 c-24 -4 -28 -9 -28 -38 0 -32 20
-52 41 -39 5 3 9 0 9 -5 0 -12 -20 -14 -44 -5 -10 4 -16 18 -16 40 0 21 -6 37
-17 43 -17 10 -17 10 0 11 9 0 18 8 18 18 1 16 2 16 6 0 3 -11 15 -19 31 -19z
m240 0 l27 -2 -27 -4 c-24 -4 -28 -9 -28 -38 0 -32 20 -52 41 -39 5 3 9 0 9
-5 0 -12 -20 -14 -44 -5 -10 4 -16 18 -16 40 0 21 -6 37 -17 43 -17 10 -17 10
0 11 9 0 18 8 18 18 1 16 2 16 6 0 3 -11 15 -19 31 -19z m360 0 l27 -2 -27 -4
c-24 -4 -28 -9 -28 -38 0 -32 20 -52 41 -39 5 3 9 0 9 -5 0 -12 -20 -14 -44
-5 -10 4 -16 18 -16 40 0 21 -6 37 -17 43 -17 10 -17 10 0 11 9 0 18 8 18 18
1 16 2 16 6 0 3 -11 15 -19 31 -19z m-487 -9 c12 -7 19 -21 19 -38 0 -16 5
-33 12 -40 9 -9 8 -12 -5 -12 -10 0 -17 8 -17 20 0 15 -7 20 -26 20 -16 0 -24
-5 -21 -12 2 -7 12 -12 22 -11 13 1 14 -2 6 -10 -8 -8 -16 -9 -29 -1 -26 17
-20 38 12 44 34 6 37 23 6 28 -11 2 -20 8 -20 13 0 12 17 11 41 -1z m239 -30
c0 -27 6 -42 18 -49 13 -8 7 -10 -28 -10 -37 0 -41 2 -22 9 28 12 31 64 5 79
-16 9 -16 10 5 11 19 0 22 -5 22 -40z m121 31 c-36 -10 -36 -27 -1 -39 35 -13
38 -27 11 -42 -23 -12 -61 -13 -61 -2 0 4 12 8 27 7 37 0 40 21 3 33 -16 6
-30 15 -30 21 0 14 31 31 55 30 16 -1 16 -2 -4 -8z m239 -31 c0 -27 6 -42 18
-49 13 -8 7 -10 -28 -10 -37 0 -41 2 -22 9 28 12 31 64 5 79 -16 9 -16 10 5
11 19 0 22 -5 22 -40z m134 34 c9 -3 16 -10 16 -16 0 -5 -7 -5 -17 1 -23 12
-53 -4 -53 -29 0 -23 35 -44 58 -35 14 5 15 4 5 -6 -22 -22 -67 1 -71 36 -5
40 25 63 62 49z m107 -3 c-36 -10 -36 -27 -1 -39 35 -13 38 -27 11 -42 -23
-12 -61 -13 -61 -2 0 4 12 8 27 7 37 0 40 21 3 33 -16 6 -30 15 -30 21 0 14
31 31 55 30 16 -1 16 -2 -4 -8z m4560 -1 c12 -7 19 -21 19 -38 0 -16 5 -33 12
-40 9 -9 8 -12 -5 -12 -10 0 -17 8 -17 20 0 15 -7 20 -26 20 -16 0 -24 -5 -21
-12 2 -7 12 -12 22 -11 13 1 14 -2 6 -10 -8 -8 -16 -9 -29 -1 -26 17 -20 38
12 44 34 6 37 23 6 28 -11 2 -20 8 -20 13 0 12 17 11 41 -1z m88 -30 c16 -56
27 -57 40 -4 7 26 14 44 17 41 4 -3 -2 -28 -11 -56 -15 -47 -45 -82 -70 -81
-5 1 2 7 17 15 l26 15 -24 50 c-27 55 -28 60 -16 60 5 0 14 -18 21 -40z m162
30 c10 -6 19 -19 19 -30 0 -14 -9 -20 -37 -22 l-38 -4 35 -17 c22 -10 28 -16
17 -17 -49 -1 -77 56 -45 88 15 15 24 15 49 2z m87 -36 c2 -21 9 -42 15 -46 7
-4 -4 -8 -23 -8 -24 0 -31 3 -21 9 9 6 12 22 9 50 -2 25 0 40 7 38 5 -2 11
-21 13 -43z m46 40 c9 -3 16 -13 16 -22 0 -13 -2 -13 -18 1 -10 10 -22 14 -27
10 -4 -5 -5 -2 -1 5 8 14 9 14 30 6z m2829 -75 c7 -1 17 -1 22 1 6 1 6 -3 -1
-10 -6 -6 -18 -8 -27 -4 -13 5 -17 17 -15 53 l1 46 4 -42 c2 -24 10 -44 16
-44z m59 -6 c8 -10 6 -13 -6 -13 -13 0 -16 10 -14 53 1 47 2 48 5 12 3 -22 9
-45 15 -52z m48 37 c0 -27 -4 -50 -10 -50 -5 0 -10 23 -10 50 0 28 5 50 10 50
6 0 10 -22 10 -50z m31 -1 c-4 -60 -8 -60 -12 0 -3 30 0 50 6 48 5 -2 8 -23 6
-48z m38 -1 c-1 -55 -5 -50 -11 15 -2 20 0 37 4 37 4 0 7 -24 7 -52z m222 42
c10 -6 19 -19 19 -30 0 -14 -9 -20 -37 -22 l-38 -4 35 -17 c22 -10 28 -16 17
-17 -49 -1 -77 56 -45 88 15 15 24 15 49 2z m87 -36 c2 -21 9 -42 15 -46 7 -4
-4 -8 -23 -8 -24 0 -31 3 -21 9 9 6 12 22 9 50 -2 25 0 40 7 38 5 -2 11 -21
13 -43z m46 40 c9 -3 16 -13 16 -22 0 -13 -2 -13 -18 1 -10 10 -22 14 -27 10
-4 -5 -5 -2 -1 5 8 14 9 14 30 6z m227 -4 c26 -15 26 -66 -1 -80 -44 -23 -84
42 -48 78 15 15 24 15 49 2z m350 1 c-36 -10 -36 -27 -1 -39 35 -13 38 -27 11
-42 -23 -12 -61 -13 -61 -2 0 4 12 8 27 7 37 0 40 21 3 33 -16 6 -30 15 -30
21 0 14 31 31 55 30 16 -1 16 -2 -4 -8z m133 3 c9 -3 16 -10 16 -16 0 -5 -7
-5 -17 1 -23 12 -53 -4 -53 -29 0 -23 35 -44 58 -35 14 5 15 4 5 -6 -22 -22
-67 1 -71 36 -5 40 25 63 62 49z m117 -4 c10 -6 19 -19 19 -30 0 -14 -9 -20
-37 -22 l-38 -4 35 -17 c22 -10 28 -16 17 -17 -49 -1 -77 56 -45 88 15 15 24
15 49 2z m89 2 c28 18 50 -6 50 -53 0 -22 -4 -39 -10 -39 -5 0 -10 18 -10 39
0 69 -45 63 -53 -7 -3 -26 -4 -21 -5 18 0 30 2 50 5 43 3 -9 9 -10 23 -1z
m151 -2 c10 -6 19 -19 19 -30 0 -14 -9 -20 -37 -22 l-38 -4 35 -17 c22 -10 28
-16 17 -17 -49 -1 -77 56 -45 88 15 15 24 15 49 2z m110 1 c-36 -10 -36 -27
-1 -39 35 -13 38 -27 11 -42 -23 -12 -61 -13 -61 -2 0 4 12 8 27 7 37 0 40 21
3 33 -16 6 -30 15 -30 21 0 14 31 31 55 30 16 -1 16 -2 -4 -8z m1019 -281 c0
-7 -1970 -10 -5890 -10 -3920 0 -5890 3 -5890 10 0 7 1970 10 5890 10 3920 0
5890 -3 5890 -10z m-8981 -498 c-5 -28 -7 -16 -7 43 0 66 2 72 8 37 3 -24 3
-60 -1 -80z m645 97 c-3 -5 -10 -7 -15 -3 -5 3 -7 10 -3 15 3 5 10 7 15 3 5
-3 7 -10 3 -15z m1200 0 c-3 -5 -10 -7 -15 -3 -5 3 -7 10 -3 15 3 5 10 7 15 3
5 -3 7 -10 3 -15z m360 0 c-3 -5 -10 -7 -15 -3 -5 3 -7 10 -3 15 3 5 10 7 15
3 5 -3 7 -10 3 -15z m496 8 c-16 -8 -26 -23 -28 -40 -3 -22 1 -27 20 -28 l23
-2 -22 -4 c-18 -3 -23 -11 -23 -34 0 -16 -4 -29 -10 -29 -5 0 -10 14 -10 30 0
21 -5 30 -17 31 -17 1 -17 2 0 6 10 3 17 14 17 28 0 30 25 55 53 55 21 0 21
-1 -3 -13z m490 -62 c0 -43 -4 -75 -10 -75 -6 0 -10 32 -10 75 0 43 4 75 10
75 6 0 10 -32 10 -75z m440 10 c0 -62 4 -71 33 -66 4 0 7 -3 7 -9 0 -14 -33
-13 -48 2 -7 7 -12 38 -12 69 0 46 -3 58 -17 62 -11 3 -7 5 10 6 27 1 27 1 27
-64z m-3687 48 c-21 -4 -23 -10 -23 -69 0 -36 -4 -64 -10 -64 -6 0 -10 27 -10
60 0 54 -3 62 -22 70 -18 7 -10 9 32 8 30 0 45 -3 33 -5z m3601 -9 c9 -8 16
-21 16 -27 0 -24 -32 -57 -55 -57 -17 0 -25 -7 -28 -22 -2 -13 -5 10 -6 50
l-1 72 29 0 c16 0 37 -7 45 -16z m-2056 -25 l27 -1 -25 -7 c-18 -5 -26 -15
-28 -35 -4 -30 13 -49 36 -41 6 2 12 0 12 -5 0 -11 -21 -13 -44 -4 -10 4 -16
18 -16 40 0 21 -6 37 -17 43 -17 10 -17 10 0 11 9 0 18 8 18 18 1 16 2 16 6 0
3 -11 15 -18 31 -19z m240 0 l27 -1 -25 -7 c-18 -5 -26 -15 -28 -35 -4 -30 13
-49 36 -41 6 2 12 0 12 -5 0 -11 -21 -13 -44 -4 -10 4 -16 18 -16 40 0 21 -6
37 -17 43 -17 10 -17 10 0 11 9 0 18 8 18 18 1 16 2 16 6 0 3 -11 15 -18 31
-19z m360 0 l27 -1 -25 -7 c-18 -5 -26 -15 -28 -35 -4 -30 13 -49 36 -41 6 2
12 0 12 -5 0 -11 -21 -13 -44 -4 -10 4 -16 18 -16 40 0 21 -6 37 -17 43 -17
10 -17 10 0 11 9 0 18 8 18 18 1 16 2 16 6 0 3 -11 15 -18 31 -19z m2400 0
l27 -1 -25 -7 c-18 -5 -26 -15 -28 -35 -4 -30 13 -49 36 -41 6 2 12 0 12 -5 0
-11 -21 -13 -44 -4 -10 4 -16 18 -16 40 0 21 -6 37 -17 43 -17 10 -17 10 0 11
9 0 18 8 18 18 1 16 2 16 6 0 3 -11 15 -18 31 -19z m360 0 l27 -1 -25 -7 c-18
-5 -26 -15 -28 -35 -4 -30 13 -49 36 -41 6 2 12 0 12 -5 0 -11 -21 -13 -44 -4
-10 4 -16 18 -16 40 0 21 -6 37 -17 43 -17 10 -17 10 0 11 9 0 18 8 18 18 1
16 2 16 6 0 3 -11 15 -18 31 -19z m-4790 -11 c14 -14 16 -88 3 -88 -6 0 -11
19 -13 43 -2 34 -6 41 -22 39 -11 -2 -15 1 -11 7 8 14 28 14 43 -1z m120 0 c7
-7 12 -20 12 -30 0 -14 -8 -18 -37 -18 -36 -1 -37 -1 -18 -16 11 -8 25 -12 32
-10 7 3 13 1 13 -4 0 -13 -26 -13 -51 0 -36 20 -19 90 21 90 9 0 21 -5 28 -12z
m82 -26 c0 -21 5 -43 12 -50 9 -9 4 -12 -22 -12 -24 0 -31 3 -21 9 9 6 12 22
9 50 -2 29 0 41 9 41 8 0 13 -14 13 -38z m59 13 c3 -19 3 -19 -16 -2 -11 9
-23 14 -28 10 -4 -5 -5 -2 -1 5 11 19 40 10 45 -13z m99 13 c7 -7 12 -20 12
-30 0 -14 -8 -18 -37 -18 -36 -1 -37 -1 -18 -16 11 -8 25 -12 32 -10 7 3 13 1
13 -4 0 -13 -26 -13 -51 0 -36 20 -19 90 21 90 9 0 21 -5 28 -12z m222 -28 c0
-27 6 -42 18 -49 13 -8 7 -10 -28 -10 -37 0 -41 2 -22 9 28 12 31 64 5 79 -16
9 -16 10 5 11 19 0 22 -5 22 -40z m118 28 c-36 -13 -35 -21 2 -35 35 -13 39
-38 8 -47 -35 -9 -58 -7 -58 5 0 6 7 9 15 5 17 -6 45 2 45 14 0 4 -13 13 -30
19 -51 17 -35 48 25 49 15 0 13 -2 -7 -10z m202 -53 c-8 -40 -8 -40 -9 15 0
35 3 50 8 40 5 -8 5 -33 1 -55z m58 53 c14 -14 16 -88 3 -88 -6 0 -11 19 -13
43 -2 34 -6 41 -22 39 -11 -2 -15 1 -11 7 8 14 28 14 43 -1z m113 2 c29 -16
26 -67 -6 -82 -19 -8 -28 -8 -40 2 -18 15 -20 61 -3 78 15 15 24 15 49 2z
m227 -2 c-36 -13 -35 -21 2 -35 35 -13 39 -38 8 -47 -35 -9 -58 -7 -58 5 0 6
7 9 15 5 17 -6 45 2 45 14 0 4 -13 13 -30 19 -51 17 -35 48 25 49 15 0 13 -2
-7 -10z m243 2 c12 -7 19 -21 19 -38 0 -16 5 -33 12 -40 9 -9 8 -12 -5 -12
-10 0 -17 8 -17 20 0 15 -7 20 -26 20 -16 0 -24 -5 -21 -12 2 -7 12 -12 22
-11 13 1 14 -2 6 -10 -8 -8 -16 -9 -29 -1 -26 17 -20 38 12 44 34 6 37 23 6
28 -11 2 -20 8 -20 13 0 12 17 11 41 -1z m239 -30 c0 -27 6 -42 18 -49 13 -8
7 -10 -28 -10 -37 0 -41 2 -22 9 28 12 31 64 5 79 -16 9 -16 10 5 11 19 0 22
-5 22 -40z m118 28 c-36 -13 -35 -21 2 -35 35 -13 39 -38 8 -47 -35 -9 -58 -7
-58 5 0 6 7 9 15 5 17 -6 45 2 45 14 0 4 -13 13 -30 19 -51 17 -35 48 25 49
15 0 13 -2 -7 -10z m242 -28 c0 -27 6 -42 18 -49 13 -8 7 -10 -28 -10 -37 0
-41 2 -22 9 28 12 31 64 5 79 -16 9 -16 10 5 11 19 0 22 -5 22 -40z m134 34
c9 -3 16 -10 16 -16 0 -5 -7 -5 -17 1 -23 12 -53 -4 -53 -29 0 -22 34 -44 56
-36 8 3 14 1 14 -4 0 -13 -36 -13 -61 0 -25 14 -26 65 -1 79 20 12 25 13 46 5z
m104 -6 c-36 -13 -35 -21 2 -35 35 -13 39 -38 8 -47 -35 -9 -58 -7 -58 5 0 6
7 9 15 5 17 -6 45 2 45 14 0 4 -13 13 -30 19 -51 17 -35 48 25 49 15 0 13 -2
-7 -10z m373 2 c29 -16 26 -67 -6 -82 -19 -8 -28 -8 -40 2 -18 15 -20 61 -3
78 15 15 24 15 49 2z m84 -74 c19 -7 33 13 38 54 4 35 4 35 5 -5 1 -23 7 -46
14 -53 9 -9 8 -12 -5 -12 -9 0 -17 5 -17 11 0 8 -5 8 -15 -1 -28 -23 -45 -4
-43 47 l1 48 4 -42 c2 -23 10 -44 18 -47z m105 19 c-8 -40 -8 -40 -9 15 0 35
3 50 8 40 5 -8 5 -33 1 -55z m58 53 c14 -14 16 -88 3 -88 -6 0 -11 19 -13 43
-2 34 -6 41 -22 39 -11 -2 -15 1 -11 7 8 14 28 14 43 -1z m97 2 c4 -6 3 -10
-2 -9 -24 4 -33 -4 -33 -31 0 -27 9 -35 33 -31 5 1 6 -3 2 -9 -3 -5 -10 -10
-15 -10 -15 0 -40 31 -40 50 0 19 25 50 40 50 5 0 12 -5 15 -10z m623 -2 c7
-7 12 -20 12 -30 0 -14 -8 -18 -37 -18 -36 -1 -37 -1 -18 -16 11 -8 25 -12 32
-10 7 3 13 1 13 -4 0 -13 -26 -13 -51 0 -36 20 -19 90 21 90 9 0 21 -5 28 -12z
m103 2 c12 -7 19 -21 19 -38 0 -16 5 -33 12 -40 9 -9 8 -12 -5 -12 -10 0 -17
8 -17 20 0 15 -7 20 -26 20 -16 0 -24 -5 -21 -12 2 -7 12 -12 22 -11 13 1 14
-2 6 -10 -8 -8 -16 -9 -29 -1 -26 17 -20 38 12 44 34 6 37 23 6 28 -11 2 -20
8 -20 13 0 12 17 11 41 -1z m117 -2 c-36 -13 -35 -21 2 -35 35 -13 39 -38 8
-47 -35 -9 -58 -7 -58 5 0 6 7 9 15 5 17 -6 45 2 45 14 0 4 -13 13 -30 19 -51
17 -35 48 25 49 15 0 13 -2 -7 -10z m140 0 c7 -7 12 -20 12 -30 0 -14 -8 -18
-37 -18 -36 -1 -37 -1 -18 -16 11 -8 25 -12 32 -10 7 3 13 1 13 -4 0 -13 -26
-13 -51 0 -36 20 -19 90 21 90 9 0 21 -5 28 -12z m220 0 c-36 -13 -35 -21 2
-35 35 -13 39 -38 8 -47 -35 -9 -58 -7 -58 5 0 6 7 9 15 5 17 -6 45 2 45 14 0
4 -13 13 -30 19 -51 17 -35 48 25 49 15 0 13 -2 -7 -10z m243 2 c12 -7 19 -21
19 -38 0 -16 5 -33 12 -40 9 -9 8 -12 -5 -12 -10 0 -17 8 -17 20 0 15 -7 20
-26 20 -16 0 -24 -5 -21 -12 2 -7 12 -12 22 -11 13 1 14 -2 6 -10 -8 -8 -16
-9 -29 -1 -26 17 -20 38 12 44 34 6 37 23 6 28 -11 2 -20 8 -20 13 0 12 17 11
41 -1z m99 -28 c0 -21 5 -43 12 -50 9 -9 4 -12 -22 -12 -24 0 -31 3 -21 9 9 6
12 22 9 50 -2 29 0 41 9 41 8 0 13 -14 13 -38z m59 13 c3 -19 3 -19 -16 -2
-11 9 -23 14 -28 10 -4 -5 -5 -2 -1 5 11 19 40 10 45 -13z m322 15 c12 -7 19
-21 19 -38 0 -16 5 -33 12 -40 9 -9 8 -12 -5 -12 -10 0 -17 8 -17 20 0 15 -7
20 -26 20 -16 0 -24 -5 -21 -12 2 -7 12 -12 22 -11 13 1 14 -2 6 -10 -8 -8
-16 -9 -29 -1 -26 17 -20 38 12 44 34 6 37 23 6 28 -11 2 -20 8 -20 13 0 12
17 11 41 -1z m199 -55 c-8 -40 -8 -40 -9 15 0 35 3 50 8 40 5 -8 5 -33 1 -55z
m58 53 c14 -14 16 -88 3 -88 -6 0 -11 19 -13 43 -2 34 -6 41 -22 39 -11 -2
-15 1 -11 7 8 14 28 14 43 -1z m120 0 c7 -7 12 -20 12 -30 0 -14 -8 -18 -37
-18 -36 -1 -37 -1 -18 -16 11 -8 25 -12 32 -10 7 3 13 1 13 -4 0 -13 -26 -13
-51 0 -36 20 -19 90 21 90 9 0 21 -5 28 -12z m63 -43 c0 -26 2 -27 9 -10 6 13
9 15 9 5 1 -17 -16 -47 -22 -40 -3 3 -7 28 -11 55 -5 36 -4 46 3 35 6 -8 11
-28 12 -45z m39 27 c0 -15 -2 -15 -10 -2 -13 20 -13 33 0 25 6 -3 10 -14 10
-23z m30 -17 c-7 -48 -15 -63 -27 -50 -5 4 -2 10 5 12 7 3 12 22 12 44 0 21 4
39 8 39 5 0 6 -20 2 -45z m240 -9 c0 -28 -4 -57 -8 -63 -10 -17 -72 -29 -72
-15 0 6 12 12 28 14 24 3 27 7 30 47 2 27 -1 47 -9 52 -21 13 -39 -2 -39 -32
0 -26 9 -34 33 -30 5 1 6 -3 2 -9 -9 -14 -21 -13 -39 6 -35 34 -8 83 44 82 29
-1 30 -2 30 -52z m91 44 c12 -7 19 -21 19 -38 0 -16 5 -33 12 -40 9 -9 8 -12
-5 -12 -10 0 -17 8 -17 20 0 15 -7 20 -26 20 -16 0 -24 -5 -21 -12 2 -7 12
-12 22 -11 13 1 14 -2 6 -10 -8 -8 -16 -9 -29 -1 -26 17 -20 38 12 44 34 6 37
23 6 28 -11 2 -20 8 -20 13 0 12 17 11 41 -1z m79 -40 c0 -27 -4 -50 -10 -50
-5 0 -10 23 -10 50 0 28 5 50 10 50 6 0 10 -22 10 -50z m31 -1 c-4 -60 -8 -60
-12 0 -3 30 0 50 6 48 5 -2 8 -23 6 -48z m39 -1 c0 -28 -2 -49 -4 -47 -8 9
-13 99 -5 99 5 0 9 -23 9 -52z m108 40 c7 -7 12 -20 12 -30 0 -14 -8 -18 -37
-18 -36 -1 -37 -1 -18 -16 11 -8 25 -12 32 -10 7 3 13 1 13 -4 0 -13 -26 -13
-51 0 -36 20 -19 90 21 90 9 0 21 -5 28 -12z m-2898 -73 c0 -8 -4 -15 -10 -15
-5 0 -10 7 -10 15 0 8 5 15 10 15 6 0 10 -7 10 -15z m3000 0 c0 -8 -4 -15 -10
-15 -5 0 -10 7 -10 15 0 8 5 15 10 15 6 0 10 -7 10 -15z m-6930 -583 c0 -4
-10 -12 -22 -17 -41 -18 -34 -135 7 -135 8 0 15 -4 15 -10 0 -13 -16 -13 -40
0 -42 22 -43 135 -2 159 20 12 42 14 42 3z m206 -6 c15 -12 19 -27 19 -76 0
-49 -4 -64 -19 -76 -23 -16 -46 -18 -46 -4 0 6 7 10 15 10 19 0 35 31 35 70 0
39 -16 70 -35 70 -8 0 -15 5 -15 10 0 14 23 12 46 -4z m-1188 -7 c-2 -6 -8
-10 -13 -10 -5 0 -11 4 -13 10 -2 6 4 11 13 11 9 0 15 -5 13 -11z m-2454 -15
c3 -9 6 -34 7 -57 l1 -42 10 43 c9 41 28 50 28 12 0 -10 5 -22 10 -25 6 -4 10
12 10 39 0 32 4 46 14 46 8 0 12 -9 10 -22 -2 -13 -6 -44 -9 -70 -7 -54 -25
-63 -42 -20 l-11 27 -1 -27 c-1 -34 -29 -38 -35 -5 -11 55 -15 117 -7 117 5 0
12 -7 15 -16z m2184 -12 c4 -26 22 -20 22 9 0 12 7 19 20 19 18 0 20 -7 20
-70 0 -56 -3 -70 -15 -70 -11 0 -15 12 -16 43 0 23 -3 36 -6 30 -7 -20 -23
-15 -33 10 -7 17 -9 11 -9 -30 -1 -29 -5 -53 -11 -53 -6 0 -10 30 -10 71 0 62
2 70 18 67 9 -2 18 -13 20 -26z m600 0 c4 -26 22 -20 22 9 0 12 7 19 20 19 18
0 20 -7 20 -70 0 -56 -3 -70 -15 -70 -11 0 -15 12 -16 43 0 23 -3 36 -6 30 -7
-20 -23 -15 -33 10 -7 17 -9 11 -9 -30 -1 -29 -5 -53 -11 -53 -6 0 -10 30 -10
71 0 62 2 70 18 67 9 -2 18 -13 20 -26z m1000 16 c17 -17 15 -29 -12 -62 -29
-35 -44 -19 -16 17 22 28 13 42 -20 32 -19 -6 -27 5 -13 18 11 11 48 8 61 -5z
m-3398 -13 c0 -9 9 -15 25 -15 14 0 25 -4 25 -10 0 -5 -12 -10 -26 -10 -22 0
-25 -4 -22 -27 2 -20 9 -29 26 -31 29 -4 29 -22 -1 -22 -31 0 -47 18 -47 51 0
15 -6 30 -12 33 -10 5 -10 7 0 12 6 3 12 12 12 20 0 8 5 14 10 14 6 0 10 -7
10 -15z m240 0 c0 -9 9 -15 25 -15 14 0 25 -4 25 -10 0 -5 -12 -10 -26 -10
-22 0 -25 -4 -22 -27 2 -20 9 -29 26 -31 29 -4 29 -22 -1 -22 -31 0 -47 18
-47 51 0 15 -6 30 -12 33 -10 5 -10 7 0 12 6 3 12 12 12 20 0 8 5 14 10 14 6
0 10 -7 10 -15z m600 0 c0 -9 9 -15 25 -15 14 0 25 -4 25 -10 0 -5 -12 -10
-26 -10 -22 0 -25 -4 -22 -27 2 -20 9 -29 26 -31 29 -4 29 -22 -1 -22 -31 0
-47 18 -47 51 0 15 -6 30 -12 33 -10 5 -10 7 0 12 6 3 12 12 12 20 0 8 5 14
10 14 6 0 10 -7 10 -15z m600 0 c0 -9 9 -15 25 -15 14 0 25 -4 25 -10 0 -5
-12 -10 -26 -10 -22 0 -25 -4 -22 -27 2 -20 9 -29 26 -31 29 -4 29 -22 -1 -22
-31 0 -47 18 -47 51 0 15 -6 30 -12 33 -10 5 -10 7 0 12 6 3 12 12 12 20 0 8
5 14 10 14 6 0 10 -7 10 -15z m-1646 -31 c9 -8 16 -24 16 -34 0 -10 3 -25 6
-33 4 -11 -5 -15 -41 -15 -32 -1 -48 3 -52 13 -7 20 14 45 38 45 11 0 19 5 19
10 0 6 -11 10 -25 10 -14 0 -25 5 -25 10 0 16 47 12 64 -6z m134 -36 c2 -29
-1 -48 -7 -48 -6 0 -11 18 -11 40 0 33 -3 40 -20 40 -17 0 -20 -7 -20 -40 0
-22 -4 -40 -10 -40 -5 0 -10 22 -10 49 l0 49 38 -1 c37 -2 37 -2 40 -49z m470
40 c15 -15 15 -61 0 -76 -21 -21 -57 -14 -70 13 -23 51 32 101 70 63z m205 -1
c3 -7 3 -25 0 -40 -4 -20 -1 -27 11 -27 9 0 16 -4 16 -10 0 -5 -16 -10 -35
-10 -19 0 -35 5 -35 10 0 6 5 10 10 10 6 0 10 14 10 30 0 17 -4 30 -10 30 -5
0 -10 5 -10 10 0 15 37 12 43 -3z m54 -2 c3 -9 2 -19 -2 -23 -4 -4 -10 -1 -12
6 -3 6 -11 12 -19 12 -8 0 -14 5 -14 10 0 16 40 11 47 -5z m101 3 c7 -7 12
-20 12 -30 0 -14 -8 -18 -36 -18 -21 0 -33 -4 -29 -10 3 -5 19 -10 36 -10 16
0 29 -4 29 -10 0 -16 -57 -12 -74 6 -19 18 -20 38 -6 65 12 21 50 25 68 7z
m192 -29 c0 -33 3 -40 18 -37 12 2 18 14 20 41 4 46 22 49 22 3 0 -19 3 -41 6
-49 4 -12 -3 -15 -33 -15 -21 0 -44 5 -50 10 -19 15 -17 88 2 88 11 0 15 -11
15 -41z m133 28 c3 -7 3 -25 0 -40 -4 -20 -1 -27 11 -27 9 0 16 -4 16 -10 0
-5 -16 -10 -35 -10 -19 0 -35 5 -35 10 0 6 5 10 10 10 6 0 10 14 10 30 0 17
-4 30 -10 30 -5 0 -10 5 -10 10 0 15 37 12 43 -3z m54 -2 c3 -9 2 -19 -2 -23
-4 -4 -10 -1 -12 6 -3 6 -11 12 -19 12 -8 0 -14 5 -14 10 0 16 40 11 47 -5z
m111 -37 c2 -29 -1 -48 -7 -48 -6 0 -11 18 -11 40 0 33 -3 40 -20 40 -17 0
-20 -7 -20 -40 0 -22 -4 -40 -10 -40 -5 0 -10 22 -10 49 l0 49 38 -1 c37 -2
37 -2 40 -49z m350 40 c7 -7 12 -24 12 -38 0 -52 -61 -71 -82 -25 -23 51 32
101 70 63z m356 -4 c9 -8 16 -24 16 -34 0 -10 3 -25 6 -33 4 -11 -5 -15 -41
-15 -32 -1 -48 3 -52 13 -7 20 14 45 38 45 11 0 19 5 19 10 0 6 -11 10 -25 10
-14 0 -25 5 -25 10 0 16 47 12 64 -6z m116 -24 c0 -29 4 -40 15 -40 8 0 15 -4
15 -10 0 -5 -23 -10 -51 -10 -31 0 -48 4 -44 10 3 6 13 10 21 10 9 0 14 11 14
30 0 20 -5 30 -15 30 -8 0 -15 5 -15 10 0 6 14 10 30 10 28 0 30 -2 30 -40z
m138 -12 c2 -29 -1 -48 -7 -48 -6 0 -11 18 -11 40 0 33 -3 40 -20 40 -17 0
-20 -7 -20 -40 0 -22 -4 -40 -10 -40 -5 0 -10 22 -10 49 l0 49 38 -1 c37 -2
37 -2 40 -49z m350 40 c7 -7 12 -20 12 -30 0 -14 -8 -18 -36 -18 -21 0 -33 -4
-29 -10 3 -5 19 -10 36 -10 16 0 29 -4 29 -10 0 -16 -57 -12 -74 6 -19 18 -20
38 -6 65 12 21 50 25 68 7z m130 -40 c2 -29 -1 -48 -7 -48 -6 0 -11 18 -11 40
0 33 -3 40 -20 40 -17 0 -20 -7 -20 -40 0 -22 -4 -40 -10 -40 -5 0 -10 22 -10
49 l0 49 38 -1 c37 -2 37 -2 40 -49z m62 11 c0 -33 3 -40 18 -37 12 2 18 14
20 41 4 46 22 49 22 3 0 -19 3 -41 6 -49 4 -12 -3 -15 -33 -15 -21 0 -44 5
-50 10 -19 15 -17 88 2 88 11 0 15 -11 15 -41z m364 -1 l18 -43 12 39 c6 22
17 41 23 43 8 3 6 -14 -7 -53 -23 -67 -36 -84 -61 -84 -25 0 -24 16 1 23 l20
5 -20 51 c-23 59 -23 61 -12 61 5 0 17 -19 26 -42z m266 -49 c0 -5 -7 -9 -15
-9 -15 0 -20 12 -9 23 8 8 24 -1 24 -14z"/>
<path d="M10682 2888 c-14 -14 -16 -54 -2 -63 15 -9 50 14 50 33 0 17 -18 42
-30 42 -3 0 -11 -5 -18 -12z"/>
<path d="M6957 2933 c-13 -13 -7 -64 8 -69 21 -8 45 14 45 41 0 27 -36 46 -53
28z"/>
<path d="M7442 2888 c-19 -19 -14 -28 18 -28 17 0 30 4 30 8 0 9 -21 32 -30
32 -3 0 -11 -5 -18 -12z"/>
<path d="M10802 2888 c-19 -19 -14 -28 18 -28 17 0 30 4 30 8 0 9 -21 32 -30
32 -3 0 -11 -5 -18 -12z"/>
<path d="M11162 2888 c-21 -21 -7 -68 20 -68 17 0 29 40 18 60 -12 23 -21 25
-38 8z"/>
<path d="M11762 2888 c-19 -19 -14 -28 18 -28 17 0 30 4 30 8 0 9 -21 32 -30
32 -3 0 -11 -5 -18 -12z"/>
<path d="M12002 2888 c-19 -19 -14 -28 18 -28 17 0 30 4 30 8 0 9 -21 32 -30
32 -3 0 -11 -5 -18 -12z"/>
<path d="M7677 2213 c-11 -10 -8 -61 3 -68 16 -10 50 14 50 35 0 24 -38 48
-53 33z"/>
<path d="M4322 2168 c-19 -19 -14 -28 18 -28 34 0 39 14 12 29 -13 7 -23 6
-30 -1z"/>
<path d="M4562 2168 c-19 -19 -14 -28 18 -28 34 0 39 14 12 29 -13 7 -23 6
-30 -1z"/>
<path d="M5282 2168 c-16 -16 -15 -43 2 -57 11 -9 18 -8 30 4 20 20 20 29 0
49 -19 19 -17 19 -32 4z"/>
<path d="M6962 2168 c-16 -16 -15 -43 2 -57 11 -9 18 -8 30 4 20 20 20 29 0
49 -19 19 -17 19 -32 4z"/>
<path d="M7922 2168 c-19 -19 -14 -28 18 -28 34 0 39 14 12 29 -13 7 -23 6
-30 -1z"/>
<path d="M8282 2168 c-19 -19 -14 -28 18 -28 34 0 39 14 12 29 -13 7 -23 6
-30 -1z"/>
<path d="M9602 2168 c-19 -19 -14 -28 18 -28 34 0 39 14 12 29 -13 7 -23 6
-30 -1z"/>
<path d="M10322 2168 c-19 -19 -14 -28 18 -28 34 0 39 14 12 29 -13 7 -23 6
-30 -1z"/>
<path d="M230 1400 c0 -5 9 -10 20 -10 11 0 20 5 20 10 0 6 -9 10 -20 10 -11
0 -20 -4 -20 -10z"/>
<path d="M840 1420 c0 -23 4 -30 20 -30 16 0 20 7 20 30 0 23 -4 30 -20 30
-16 0 -20 -7 -20 -30z"/>
<path d="M1195 1440 c-4 -6 5 -10 19 -10 14 0 26 5 26 10 0 6 -9 10 -19 10
-11 0 -23 -4 -26 -10z"/>
<path d="M2040 1420 c0 -23 4 -30 20 -30 16 0 20 7 20 30 0 23 -4 30 -20 30
-16 0 -20 -7 -20 -30z"/>
<path d="M2390 1400 c0 -5 9 -10 20 -10 11 0 20 5 20 10 0 6 -9 10 -20 10 -11
0 -20 -4 -20 -10z"/>
<path d="M2995 1440 c-4 -6 5 -10 19 -10 14 0 26 5 26 10 0 6 -9 10 -19 10
-11 0 -23 -4 -26 -10z"/>
</g>
</svg>
