<?xml version="1.0" standalone="no"?>
<!DOCTYPE svg PUBLIC "-//W3C//DTD SVG 20010904//EN"
 "http://www.w3.org/TR/2001/REC-SVG-20010904/DTD/svg10.dtd">
<svg version="1.0" xmlns="http://www.w3.org/2000/svg"
 width="915.000000pt" height="432.000000pt" viewBox="0 0 915.000000 432.000000"
 preserveAspectRatio="xMidYMid meet">

<g transform="translate(0.000000,432.000000) scale(0.100000,-0.100000)"
fill="#000000" stroke="none">
<path d="M0 2160 l0 -2160 4575 0 4575 0 0 2160 0 2160 -4575 0 -4575 0 0
-2160z m240 1992 c0 -24 4 -28 28 -27 25 0 27 -3 30 -47 2 -29 -1 -48 -7 -48
-6 0 -11 18 -11 40 0 33 -3 40 -20 40 -17 0 -20 -7 -20 -40 0 -22 -4 -40 -10
-40 -6 0 -10 32 -10 75 0 43 4 75 10 75 6 0 10 -13 10 -28z m158 17 c-2 -6 -8
-10 -13 -10 -5 0 -11 4 -13 10 -2 6 4 11 13 11 9 0 15 -5 13 -11z m960 0 c-2
-6 -8 -10 -13 -10 -5 0 -11 4 -13 10 -2 6 4 11 13 11 9 0 15 -5 13 -11z m382
-62 l0 -74 -32 -1 c-41 -1 -58 13 -58 48 0 33 22 54 50 47 17 -4 20 0 20 24 0
16 5 29 10 29 6 0 10 -31 10 -73z m440 8 c0 -58 2 -65 20 -65 11 0 20 -5 20
-11 0 -6 -12 -9 -27 -7 -27 3 -28 6 -31 66 -2 46 -7 62 -17 62 -8 0 -15 5 -15
10 0 6 11 10 25 10 24 0 25 -2 25 -65z m520 -8 l0 -74 -32 -1 c-41 -1 -58 13
-58 48 0 33 22 54 50 47 17 -4 20 0 20 24 0 16 5 29 10 29 6 0 10 -31 10 -73z
m180 44 c0 -25 3 -28 25 -24 32 7 53 -33 36 -66 -12 -22 -52 -37 -76 -27 -22
8 -22 146 0 146 10 0 15 -10 15 -29z m-2690 9 c0 -5 -9 -10 -20 -10 -18 0 -20
-7 -20 -60 0 -33 -4 -60 -10 -60 -6 0 -10 27 -10 60 0 53 -2 60 -20 60 -11 0
-20 5 -20 10 0 6 23 10 50 10 28 0 50 -4 50 -10z m2960 -35 c0 -8 -4 -15 -9
-15 -13 0 -22 16 -14 24 11 11 23 6 23 -9z m-2750 -35 c0 -29 4 -40 15 -40 8
0 15 -4 15 -10 0 -5 -23 -10 -51 -10 -31 0 -48 4 -44 10 3 6 13 10 21 10 9 0
14 11 14 30 0 20 -5 30 -15 30 -8 0 -15 5 -15 10 0 6 14 10 30 10 28 0 30 -2
30 -40z m140 30 c0 -5 -13 -10 -30 -10 -39 0 -39 -16 1 -24 25 -5 30 -10 27
-28 -2 -19 -10 -24 -40 -26 -22 -2 -38 1 -38 7 0 6 14 11 30 11 17 0 30 4 30
9 0 5 -13 11 -30 15 -29 5 -41 32 -23 49 10 11 73 8 73 -3z m240 -51 c0 -62
-13 -79 -59 -79 -31 0 -26 18 6 22 14 2 28 8 30 15 3 7 -3 9 -16 6 -28 -7 -51
14 -51 46 0 36 17 51 57 49 l33 -1 0 -58z m104 45 c9 -8 16 -24 16 -34 0 -10
3 -25 6 -33 4 -11 -5 -15 -41 -15 -32 -1 -48 3 -52 13 -7 20 14 45 38 45 11 0
19 5 19 10 0 6 -11 10 -25 10 -14 0 -25 5 -25 10 0 16 47 12 64 -6z m144 -36
c2 -38 0 -48 -12 -48 -12 0 -16 11 -18 43 l-1 42 -4 -42 c-5 -54 -23 -56 -23
-3 0 22 -4 40 -10 40 -5 0 -10 -18 -10 -40 0 -22 -4 -40 -10 -40 -5 0 -10 22
-10 49 l0 48 48 -1 47 -1 3 -47z m100 40 c7 -7 12 -20 12 -30 0 -14 -8 -18
-36 -18 -21 0 -33 -4 -29 -10 3 -5 19 -10 36 -10 16 0 29 -4 29 -10 0 -16 -57
-12 -74 6 -19 18 -20 38 -6 65 12 21 50 25 68 7z m232 -28 c0 -29 4 -40 15
-40 8 0 15 -4 15 -10 0 -5 -23 -10 -51 -10 -31 0 -48 4 -44 10 3 6 13 10 21
10 9 0 14 11 14 30 0 20 -5 30 -15 30 -8 0 -15 5 -15 10 0 6 14 10 30 10 28 0
30 -2 30 -40z m140 30 c0 -5 -13 -10 -30 -10 -39 0 -39 -16 1 -24 25 -5 30
-10 27 -28 -2 -19 -10 -24 -40 -26 -22 -2 -38 1 -38 7 0 6 14 11 30 11 17 0
30 4 30 9 0 5 -13 11 -30 15 -29 5 -41 32 -23 49 10 11 73 8 73 -3z m348 -2
c7 -7 12 -20 12 -30 0 -14 -8 -18 -36 -18 -21 0 -33 -4 -29 -10 3 -5 19 -10
36 -10 16 0 29 -4 29 -10 0 -16 -57 -12 -74 6 -19 18 -20 38 -6 65 12 21 50
25 68 7z m75 -30 c10 -28 17 -38 21 -28 3 8 10 27 15 43 6 15 15 27 21 27 15
0 -24 -94 -41 -98 -9 -2 -20 11 -28 35 -8 21 -16 44 -18 51 -3 6 -1 12 5 12 6
0 17 -19 25 -42z m165 30 c7 -7 12 -20 12 -30 0 -14 -8 -18 -36 -18 -21 0 -33
-4 -29 -10 3 -5 19 -10 36 -10 16 0 29 -4 29 -10 0 -16 -57 -12 -74 6 -19 18
-20 38 -6 65 12 21 50 25 68 7z m240 0 c7 -7 12 -24 12 -38 0 -52 -61 -71 -82
-25 -23 51 32 101 70 63z m134 -13 c17 -38 -4 -79 -37 -72 -21 3 -25 0 -25
-19 0 -13 -4 -24 -10 -24 -6 0 -10 29 -10 68 l0 69 35 1 c29 1 38 -3 47 -23z
m106 13 c7 -7 12 -20 12 -30 0 -14 -8 -18 -36 -18 -21 0 -33 -4 -29 -10 3 -5
19 -10 36 -10 16 0 29 -4 29 -10 0 -16 -57 -12 -74 6 -19 18 -20 38 -6 65 12
21 50 25 68 7z m436 -30 l18 -43 12 39 c6 22 17 41 23 43 8 3 6 -14 -7 -53
-23 -67 -36 -84 -61 -84 -25 0 -24 16 1 23 l20 5 -20 51 c-23 59 -23 61 -12
61 5 0 17 -19 26 -42z m146 -43 c0 -8 -4 -15 -9 -15 -13 0 -22 16 -14 24 11
11 23 6 23 -9z m-2910 -133 c0 -24 4 -28 28 -27 25 0 27 -3 30 -47 2 -29 -1
-48 -7 -48 -6 0 -11 18 -11 40 0 33 -3 40 -20 40 -17 0 -20 -7 -20 -40 0 -22
-4 -40 -10 -40 -6 0 -10 32 -10 75 0 43 4 75 10 75 6 0 10 -13 10 -28z m758
17 c-2 -6 -8 -10 -13 -10 -5 0 -11 4 -13 10 -2 6 4 11 13 11 9 0 15 -5 13 -11z
m322 -17 c0 -24 4 -28 28 -27 25 0 27 -3 30 -47 2 -29 -1 -48 -7 -48 -6 0 -11
18 -11 40 0 33 -3 40 -20 40 -17 0 -20 -7 -20 -40 0 -22 -4 -40 -10 -40 -6 0
-10 32 -10 75 0 43 4 75 10 75 6 0 10 -13 10 -28z m158 17 c-2 -6 -8 -10 -13
-10 -5 0 -11 4 -13 10 -2 6 4 11 13 11 9 0 15 -5 13 -11z m-1296 -14 c-2 -5
-12 -9 -23 -7 -28 5 -49 -16 -49 -47 0 -35 17 -51 53 -51 16 0 26 -4 22 -10
-10 -16 -57 -12 -77 7 -23 21 -24 80 -1 105 18 20 81 22 75 3z m522 -1 c3 -9
6 -34 7 -57 l1 -42 10 43 c9 41 28 50 28 12 0 -10 5 -22 10 -25 6 -4 10 12 10
39 0 32 4 46 14 46 8 0 12 -9 10 -22 -2 -13 -6 -44 -9 -70 -7 -54 -25 -63 -42
-20 l-11 27 -1 -27 c-1 -34 -29 -38 -35 -5 -11 55 -15 117 -7 117 5 0 12 -7
15 -16z m556 4 c0 -7 -14 -33 -30 -58 l-30 -45 28 -3 c52 -6 48 -22 -6 -22
-29 0 -52 3 -52 8 0 4 14 27 30 52 36 55 37 60 6 60 -14 0 -28 5 -31 10 -4 6
12 10 39 10 30 0 46 -4 46 -12z m-852 -40 c7 -7 12 -20 12 -30 0 -14 -8 -18
-36 -18 -21 0 -33 -4 -29 -10 3 -5 19 -10 36 -10 16 0 29 -4 29 -10 0 -16 -57
-12 -74 6 -19 18 -20 38 -6 65 12 21 50 25 68 7z m63 -25 c1 -39 3 -38 13 10
8 34 26 35 26 1 0 -14 4 -23 10 -19 6 3 10 15 10 26 0 10 5 19 11 19 8 0 9
-11 5 -31 -3 -17 -6 -40 -6 -50 0 -31 -26 -21 -38 14 l-10 32 -1 -32 c-1 -21
-6 -33 -15 -33 -17 0 -26 22 -26 66 0 47 20 43 21 -3z m417 25 c7 -7 12 -20
12 -30 0 -14 -8 -18 -36 -18 -21 0 -33 -4 -29 -10 3 -5 19 -10 36 -10 16 0 29
-4 29 -10 0 -16 -57 -12 -74 6 -19 18 -20 38 -6 65 12 21 50 25 68 7z m112
-28 c0 -29 4 -40 15 -40 8 0 15 -4 15 -10 0 -5 -23 -10 -51 -10 -31 0 -48 4
-44 10 3 6 13 10 21 10 9 0 14 11 14 30 0 20 -5 30 -15 30 -8 0 -15 5 -15 10
0 6 14 10 30 10 28 0 30 -2 30 -40z m480 0 c0 -29 4 -40 15 -40 8 0 15 -4 15
-10 0 -5 -23 -10 -51 -10 -31 0 -48 4 -44 10 3 6 13 10 21 10 9 0 14 11 14 30
0 20 -5 30 -15 30 -8 0 -15 5 -15 10 0 6 14 10 30 10 28 0 30 -2 30 -40z
m-722 -161 c-2 -6 -8 -10 -13 -10 -5 0 -11 4 -13 10 -2 6 4 11 13 11 9 0 15
-5 13 -11z m-638 -59 l0 -60 35 0 c19 0 35 -4 35 -10 0 -5 -22 -10 -50 -10
l-50 0 0 70 c0 56 3 70 15 70 12 0 15 -13 15 -60z m550 18 c0 -61 -19 -93 -54
-93 -29 0 -57 27 -42 42 4 4 12 0 17 -10 6 -9 19 -17 29 -17 17 0 20 7 20 50
0 38 -4 50 -15 50 -8 0 -15 5 -15 10 0 6 14 10 30 10 29 0 30 -2 30 -42z m410
12 c0 -23 4 -30 20 -30 16 0 20 7 20 30 0 17 5 30 10 30 6 0 10 -30 10 -70 0
-40 -4 -70 -10 -70 -5 0 -10 14 -10 30 0 23 -4 30 -20 30 -16 0 -20 -7 -20
-30 0 -20 -5 -30 -15 -30 -12 0 -15 14 -15 70 0 56 3 70 15 70 10 0 15 -10 15
-30z m-792 -22 c7 -7 12 -20 12 -30 0 -14 -8 -18 -36 -18 -21 0 -33 -4 -29
-10 3 -5 19 -10 36 -10 16 0 29 -4 29 -10 0 -16 -57 -12 -74 6 -19 18 -20 38
-6 65 12 21 50 25 68 7z m120 0 c7 -7 12 -20 12 -30 0 -14 -8 -18 -36 -18 -21
0 -33 -4 -29 -10 3 -5 19 -10 36 -10 16 0 29 -4 29 -10 0 -16 -57 -12 -74 6
-19 18 -20 38 -6 65 12 21 50 25 68 7z m352 -28 c0 -29 4 -40 15 -40 8 0 15
-4 15 -10 0 -5 -23 -10 -51 -10 -31 0 -48 4 -44 10 3 6 13 10 21 10 9 0 14 11
14 30 0 20 -5 30 -15 30 -8 0 -15 5 -15 10 0 6 14 10 30 10 28 0 30 -2 30 -40z
m124 24 c9 -8 16 -24 16 -34 0 -10 3 -25 6 -33 4 -11 -5 -15 -41 -15 -32 -1
-48 3 -52 13 -7 20 14 45 38 45 11 0 19 5 19 10 0 6 -11 10 -25 10 -14 0 -25
5 -25 10 0 16 47 12 64 -6z m364 4 c7 -7 12 -20 12 -30 0 -14 -8 -18 -36 -18
-21 0 -33 -4 -29 -10 3 -5 19 -10 36 -10 16 0 29 -4 29 -10 0 -16 -57 -12 -74
6 -19 18 -20 38 -6 65 12 21 50 25 68 7z m120 0 c7 -7 12 -20 12 -30 0 -14 -8
-18 -36 -18 -21 0 -33 -4 -29 -10 3 -5 19 -10 36 -10 16 0 29 -4 29 -10 0 -16
-57 -12 -74 6 -19 18 -20 38 -6 65 12 21 50 25 68 7z m1057 -729 c-41 -95 -43
-99 -55 -99 -5 0 6 36 25 81 41 95 43 99 55 99 5 0 -6 -36 -25 -81z m125 76
c0 -5 -71 -169 -76 -174 -2 -2 -7 -1 -10 2 -8 8 66 177 78 177 4 0 8 -2 8 -5z
m1351 -17 c-29 -74 -72 -158 -80 -158 -6 0 -1 20 9 45 11 25 29 65 40 90 20
46 48 66 31 23z m1560 0 c-29 -74 -72 -158 -80 -158 -6 0 -1 20 9 45 11 25 29
65 40 90 20 46 48 66 31 23z m-4201 -61 l0 -74 -32 -1 c-41 -1 -58 13 -58 48
0 33 22 54 50 47 17 -4 20 0 20 24 0 16 5 29 10 29 6 0 10 -31 10 -73z m420
45 c0 -24 4 -28 28 -27 25 0 27 -3 30 -47 2 -29 -1 -48 -7 -48 -6 0 -11 18
-11 40 0 33 -3 40 -20 40 -17 0 -20 -7 -20 -40 0 -22 -4 -40 -10 -40 -6 0 -10
32 -10 75 0 43 4 75 10 75 6 0 10 -13 10 -28z m1118 17 c-2 -6 -8 -10 -13 -10
-5 0 -11 4 -13 10 -2 6 4 11 13 11 9 0 15 -5 13 -11z m202 -17 c0 -24 4 -28
28 -27 25 0 27 -3 30 -47 2 -29 -1 -48 -7 -48 -6 0 -11 18 -11 40 0 33 -3 40
-20 40 -17 0 -20 -7 -20 -40 0 -22 -4 -40 -10 -40 -6 0 -10 32 -10 75 0 43 4
75 10 75 6 0 10 -13 10 -28z m240 -1 c0 -25 3 -28 25 -24 32 7 53 -33 36 -66
-12 -22 -52 -37 -76 -27 -22 8 -22 146 0 146 10 0 15 -10 15 -29z m780 -44 l0
-74 -32 -1 c-41 -1 -58 13 -58 48 0 33 22 54 50 47 17 -4 20 0 20 24 0 16 5
29 10 29 6 0 10 -31 10 -73z m102 58 c0 -5 -5 -11 -11 -13 -6 -2 -11 4 -11 13
0 9 5 15 11 13 6 -2 11 -8 11 -13z m738 -58 l0 -74 -32 -1 c-41 -1 -58 13 -58
48 0 33 22 54 50 47 17 -4 20 0 20 24 0 16 5 29 10 29 6 0 10 -31 10 -73z
m1440 0 l0 -74 -32 -1 c-41 -1 -58 13 -58 48 0 33 22 54 50 47 17 -4 20 0 20
24 0 16 5 29 10 29 6 0 10 -31 10 -73z m-6122 46 c2 -9 -5 -11 -27 -7 -41 8
-43 -19 -3 -38 30 -15 42 -55 20 -69 -18 -12 -65 -11 -73 1 -4 6 8 10 29 10
45 0 48 23 6 45 -29 15 -41 51 -23 69 11 11 66 2 71 -11z m4772 -43 c0 -47 3
-60 15 -60 8 0 15 -4 15 -10 0 -5 -18 -10 -40 -10 -22 0 -40 5 -40 10 0 6 7
10 15 10 11 0 15 12 15 50 0 40 -3 48 -15 44 -8 -4 -15 -2 -15 4 0 6 6 13 13
15 32 14 37 7 37 -53z m141 44 c19 -23 17 -90 -3 -110 -27 -27 -66 -11 -74 30
-6 37 2 77 20 88 18 13 43 9 57 -8z m99 -44 c0 -47 3 -60 15 -60 8 0 15 -4 15
-10 0 -5 -18 -10 -40 -10 -22 0 -40 5 -40 10 0 6 7 10 15 10 11 0 15 12 15 50
0 40 -3 48 -15 44 -8 -4 -15 -2 -15 4 0 6 6 13 13 15 32 14 37 7 37 -53z m150
50 c0 -5 -13 -10 -30 -10 -20 0 -30 -5 -30 -15 0 -9 9 -15 25 -15 33 0 52 -38
36 -69 -15 -28 -66 -29 -81 -1 -9 16 -8 20 5 20 8 0 15 -4 15 -10 0 -14 38
-12 43 3 8 23 -5 37 -34 37 -26 0 -29 3 -29 35 0 34 1 35 40 35 22 0 40 -4 40
-10z m-3530 -15 c0 -9 9 -15 25 -15 14 0 25 -4 25 -10 0 -5 -12 -10 -26 -10
-22 0 -25 -4 -22 -27 2 -20 9 -29 26 -31 29 -4 29 -22 -1 -22 -31 0 -47 18
-47 51 0 15 -6 30 -12 33 -10 5 -10 7 0 12 6 3 12 12 12 20 0 8 5 14 10 14 6
0 10 -7 10 -15z m120 0 c0 -9 9 -15 25 -15 14 0 25 -4 25 -10 0 -5 -12 -10
-26 -10 -22 0 -25 -4 -22 -27 2 -20 9 -29 26 -31 29 -4 29 -22 -1 -22 -31 0
-47 18 -47 51 0 15 -6 30 -12 33 -10 5 -10 7 0 12 6 3 12 12 12 20 0 8 5 14
10 14 6 0 10 -7 10 -15z m960 0 c0 -9 9 -15 25 -15 14 0 25 -4 25 -10 0 -5
-12 -10 -26 -10 -22 0 -25 -4 -22 -27 2 -20 9 -29 26 -31 29 -4 29 -22 -1 -22
-31 0 -47 18 -47 51 0 15 -6 30 -12 33 -10 5 -10 7 0 12 6 3 12 12 12 20 0 8
5 14 10 14 6 0 10 -7 10 -15z m2640 0 c0 -9 9 -15 25 -15 14 0 25 -4 25 -10 0
-5 -12 -10 -26 -10 -22 0 -25 -4 -22 -27 2 -20 9 -29 26 -31 29 -4 29 -22 -1
-22 -31 0 -47 18 -47 51 0 15 -6 30 -12 33 -10 5 -10 7 0 12 6 3 12 12 12 20
0 8 5 14 10 14 6 0 10 -7 10 -15z m360 0 c0 -9 9 -15 25 -15 14 0 25 -4 25
-10 0 -5 -12 -10 -26 -10 -22 0 -25 -4 -22 -27 2 -20 9 -29 26 -31 29 -4 29
-22 -1 -22 -31 0 -47 18 -47 51 0 15 -6 30 -12 33 -10 5 -10 7 0 12 6 3 12 12
12 20 0 8 5 14 10 14 6 0 10 -7 10 -15z m840 0 c0 -9 9 -15 25 -15 14 0 25 -4
25 -10 0 -5 -12 -10 -26 -10 -22 0 -25 -4 -22 -27 2 -20 9 -29 26 -31 29 -4
29 -22 -1 -22 -31 0 -47 18 -47 51 0 15 -6 30 -12 33 -10 5 -10 7 0 12 6 3 12
12 12 20 0 8 5 14 10 14 6 0 10 -7 10 -15z m-5260 -20 c0 -8 -4 -15 -9 -15
-13 0 -22 16 -14 24 11 11 23 6 23 -9z m850 0 c0 -8 -4 -15 -9 -15 -13 0 -22
16 -14 24 11 11 23 6 23 -9z m-2032 -7 c15 -15 15 -61 0 -76 -38 -38 -93 12
-70 63 13 27 49 34 70 13z m72 -29 c0 -33 3 -40 18 -37 12 2 18 14 20 41 4 46
22 49 22 3 0 -19 3 -41 6 -49 4 -12 -3 -15 -33 -15 -21 0 -44 5 -50 10 -19 15
-17 88 2 88 11 0 15 -11 15 -41z m133 28 c3 -7 3 -25 0 -40 -4 -20 -1 -27 11
-27 9 0 16 -4 16 -10 0 -5 -16 -10 -35 -10 -19 0 -35 5 -35 10 0 6 5 10 10 10
6 0 10 14 10 30 0 17 -4 30 -10 30 -5 0 -10 5 -10 10 0 15 37 12 43 -3z m54
-2 c3 -9 2 -19 -2 -23 -4 -4 -10 -1 -12 6 -3 6 -11 12 -19 12 -8 0 -14 5 -14
10 0 16 40 11 47 -5z m111 -2 c2 -9 -5 -11 -28 -7 -30 7 -31 5 -28 -22 2 -23
9 -30 31 -32 35 -4 35 -22 0 -22 -30 0 -63 25 -63 48 0 41 76 70 88 35z m110
5 c7 -7 12 -20 12 -30 0 -14 -8 -18 -36 -18 -21 0 -33 -4 -29 -10 3 -5 19 -10
36 -10 16 0 29 -4 29 -10 0 -16 -57 -12 -74 6 -19 18 -20 38 -6 65 12 21 50
25 68 7z m250 -5 c2 -9 -5 -11 -28 -7 -30 7 -31 5 -28 -22 2 -23 9 -30 31 -32
35 -4 35 -22 0 -22 -30 0 -63 25 -63 48 0 41 76 70 88 35z m110 5 c15 -15 15
-61 0 -76 -21 -21 -57 -14 -70 13 -23 51 32 101 70 63z m240 0 c7 -7 12 -20
12 -30 0 -14 -8 -18 -36 -18 -21 0 -33 -4 -29 -10 3 -5 19 -10 36 -10 16 0 29
-4 29 -10 0 -16 -57 -12 -74 6 -19 18 -20 38 -6 65 12 21 50 25 68 7z m734
-13 c17 -38 -4 -79 -37 -72 -21 3 -25 0 -25 -19 0 -13 -4 -24 -10 -24 -6 0
-10 29 -10 68 l0 69 35 1 c29 1 38 -3 47 -23z m118 15 c0 -5 -13 -10 -30 -10
-39 0 -39 -16 1 -24 25 -5 30 -10 27 -28 -2 -19 -10 -24 -40 -26 -22 -2 -38 1
-38 7 0 6 14 11 30 11 17 0 30 4 30 9 0 5 -13 11 -30 15 -29 5 -41 32 -23 49
10 11 73 8 73 -3z m480 -51 c0 -62 -13 -79 -59 -79 -31 0 -26 18 6 22 14 2 28
8 30 15 3 7 -3 9 -16 6 -28 -7 -51 14 -51 46 0 36 17 51 57 49 l33 -1 0 -58z
m100 21 c0 -29 4 -40 15 -40 8 0 15 -4 15 -10 0 -5 -23 -10 -51 -10 -31 0 -48
4 -44 10 3 6 13 10 21 10 9 0 14 11 14 30 0 20 -5 30 -15 30 -8 0 -15 5 -15
10 0 6 14 10 30 10 28 0 30 -2 30 -40z m320 -1 c0 -33 3 -40 18 -37 12 2 18
14 20 41 4 46 22 49 22 3 0 -19 3 -41 6 -49 4 -12 -3 -15 -33 -15 -21 0 -44 5
-50 10 -19 15 -17 88 2 88 11 0 15 -11 15 -41z m418 24 c2 -9 -5 -11 -28 -7
-30 7 -31 5 -28 -22 2 -23 9 -30 31 -32 35 -4 35 -22 0 -22 -30 0 -63 25 -63
48 0 41 76 70 88 35z m110 5 c7 -7 12 -24 12 -38 0 -52 -61 -71 -82 -25 -23
51 32 101 70 63z m140 -40 c2 -38 0 -48 -12 -48 -12 0 -16 11 -18 43 l-1 42
-4 -42 c-5 -54 -23 -56 -23 -3 0 22 -4 40 -10 40 -5 0 -10 -18 -10 -40 0 -22
-4 -40 -10 -40 -5 0 -10 22 -10 49 l0 48 48 -1 47 -1 3 -47z m342 0 c0 -34 -6
-58 -17 -70 -17 -19 -53 -25 -53 -8 0 6 9 10 20 10 17 0 20 7 20 50 0 37 -4
50 -14 50 -8 0 -18 5 -21 10 -4 6 8 10 29 10 l36 0 0 -52z m118 40 c7 -7 12
-20 12 -30 0 -14 -8 -18 -36 -18 -21 0 -33 -4 -29 -10 3 -5 19 -10 36 -10 16
0 29 -4 29 -10 0 -16 -57 -12 -74 6 -19 18 -20 38 -6 65 12 21 50 25 68 7z
m132 2 c0 -5 -13 -10 -30 -10 -39 0 -39 -16 1 -24 25 -5 30 -10 27 -28 -2 -19
-10 -24 -40 -26 -22 -2 -38 1 -38 7 0 6 14 11 30 11 17 0 30 4 30 9 0 5 -13
11 -30 15 -29 5 -41 32 -23 49 10 11 73 8 73 -3z m128 -42 c2 -38 0 -48 -12
-48 -12 0 -16 11 -18 43 l-1 42 -4 -42 c-5 -54 -23 -56 -23 -3 0 22 -4 40 -10
40 -5 0 -10 -18 -10 -40 0 -22 -4 -40 -10 -40 -5 0 -10 22 -10 49 l0 48 48 -1
47 -1 3 -47z m100 40 c7 -7 12 -24 12 -38 0 -52 -61 -71 -82 -25 -23 51 32
101 70 63z m130 -40 c2 -29 -1 -48 -7 -48 -6 0 -11 18 -11 40 0 33 -3 40 -20
40 -17 0 -20 -7 -20 -40 0 -22 -4 -40 -10 -40 -5 0 -10 22 -10 49 l0 49 38 -1
c37 -2 37 -2 40 -49z m950 40 c7 -7 12 -20 12 -30 0 -14 -8 -18 -36 -18 -21 0
-33 -4 -29 -10 3 -5 19 -10 36 -10 16 0 29 -4 29 -10 0 -16 -57 -12 -74 6 -19
18 -20 38 -6 65 12 21 50 25 68 7z m78 -5 c12 -17 14 -17 28 2 8 11 18 17 22
13 4 -5 -1 -17 -11 -28 -17 -19 -17 -21 0 -40 10 -11 15 -23 11 -28 -4 -4 -14
2 -22 13 -14 19 -16 19 -28 3 -7 -10 -19 -18 -26 -18 -9 0 -8 5 3 18 10 10 17
25 17 32 0 7 -7 22 -17 32 -11 13 -12 18 -3 18 7 0 19 -8 26 -17z m398 1 c9
-8 16 -24 16 -34 0 -10 3 -25 6 -33 4 -11 -5 -15 -41 -15 -32 -1 -48 3 -52 13
-7 20 14 45 38 45 11 0 19 5 19 10 0 6 -11 10 -25 10 -14 0 -25 5 -25 10 0 16
47 12 64 -6z m199 -26 c10 -28 17 -38 21 -28 3 8 10 27 15 43 6 15 15 27 21
27 15 0 -24 -94 -41 -98 -9 -2 -20 11 -28 35 -8 21 -16 44 -18 51 -3 6 -1 12
5 12 6 0 17 -19 25 -42z m165 30 c7 -7 12 -20 12 -30 0 -14 -8 -18 -36 -18
-21 0 -33 -4 -29 -10 3 -5 19 -10 36 -10 16 0 29 -4 29 -10 0 -16 -57 -12 -74
6 -19 18 -20 38 -6 65 12 21 50 25 68 7z m130 -40 c2 -29 -1 -48 -7 -48 -6 0
-11 18 -11 40 0 33 -3 40 -20 40 -17 0 -20 -7 -20 -40 0 -22 -4 -40 -10 -40
-5 0 -10 22 -10 49 l0 49 38 -1 c37 -2 37 -2 40 -49z m182 11 c0 -33 3 -40 18
-37 12 2 18 14 20 41 4 46 22 49 22 3 0 -19 3 -41 6 -49 4 -12 -3 -15 -33 -15
-21 0 -44 5 -50 10 -19 15 -17 88 2 88 11 0 15 -11 15 -41z m133 28 c3 -7 3
-25 0 -40 -4 -20 -1 -27 11 -27 9 0 16 -4 16 -10 0 -5 -16 -10 -35 -10 -19 0
-35 5 -35 10 0 6 5 10 10 10 6 0 10 14 10 30 0 17 -4 30 -10 30 -5 0 -10 5
-10 10 0 15 37 12 43 -3z m54 -2 c3 -9 2 -19 -2 -23 -4 -4 -10 -1 -12 6 -3 6
-11 12 -19 12 -8 0 -14 5 -14 10 0 16 40 11 47 -5z m101 3 c7 -7 12 -20 12
-30 0 -14 -8 -18 -36 -18 -21 0 -33 -4 -29 -10 3 -5 19 -10 36 -10 16 0 29 -4
29 -10 0 -16 -57 -12 -74 6 -19 18 -20 38 -6 65 12 21 50 25 68 7z m252 -49
c0 -62 -13 -79 -59 -79 -31 0 -26 18 6 22 14 2 28 8 30 15 3 7 -3 9 -16 6 -28
-7 -51 14 -51 46 0 36 17 51 57 49 l33 -1 0 -58z m104 45 c9 -8 16 -24 16 -34
0 -10 3 -25 6 -33 4 -11 -5 -15 -41 -15 -32 -1 -48 3 -52 13 -7 20 14 45 38
45 11 0 19 5 19 10 0 6 -11 10 -25 10 -14 0 -25 5 -25 10 0 16 47 12 64 -6z
m144 -36 c2 -38 0 -48 -12 -48 -12 0 -16 11 -18 43 l-1 42 -4 -42 c-5 -54 -23
-56 -23 -3 0 22 -4 40 -10 40 -5 0 -10 -18 -10 -40 0 -22 -4 -40 -10 -40 -5 0
-10 22 -10 49 l0 48 48 -1 47 -1 3 -47z m100 40 c7 -7 12 -20 12 -30 0 -14 -8
-18 -36 -18 -21 0 -33 -4 -29 -10 3 -5 19 -10 36 -10 16 0 29 -4 29 -10 0 -16
-57 -12 -74 6 -19 18 -20 38 -6 65 12 21 50 25 68 7z m252 2 c0 -5 -13 -10
-30 -10 -39 0 -39 -16 1 -24 25 -5 30 -10 27 -28 -2 -19 -10 -24 -40 -26 -22
-2 -38 1 -38 7 0 6 14 11 30 11 17 0 30 4 30 9 0 5 -13 11 -30 15 -29 5 -41
32 -23 49 10 11 73 8 73 -3z m122 -15 c17 -38 -4 -79 -37 -72 -21 3 -25 0 -25
-19 0 -13 -4 -24 -10 -24 -6 0 -10 29 -10 68 l0 69 35 1 c29 1 38 -3 47 -23z
m-6632 -60 c0 -8 -4 -15 -9 -15 -13 0 -22 16 -14 24 11 11 23 6 23 -9z m850 0
c0 -8 -4 -15 -9 -15 -13 0 -22 16 -14 24 11 11 23 6 23 -9z m1070 0 c0 -8 -4
-15 -9 -15 -13 0 -22 16 -14 24 11 11 23 6 23 -9z m2680 -25 c0 -5 -22 -10
-50 -10 -27 0 -50 5 -50 10 0 6 23 10 50 10 28 0 50 -4 50 -10z m1200 0 c0 -5
-22 -10 -50 -10 -27 0 -50 5 -50 10 0 6 23 10 50 10 28 0 50 -4 50 -10z m600
0 c0 -5 -22 -10 -50 -10 -27 0 -50 5 -50 10 0 6 23 10 50 10 28 0 50 -4 50
-10z m-6250 -558 c0 -4 -10 -12 -22 -17 -41 -18 -34 -135 7 -135 8 0 15 -4 15
-10 0 -13 -16 -13 -40 0 -42 22 -43 135 -2 159 20 12 42 14 42 3z m4166 -6
c15 -12 19 -27 19 -76 0 -49 -4 -64 -19 -76 -23 -16 -46 -18 -46 -4 0 6 7 10
15 10 19 0 35 31 35 70 0 39 -16 70 -35 70 -8 0 -15 5 -15 10 0 14 23 12 46
-4z m-4766 -69 l0 -74 -32 -1 c-41 -1 -58 13 -58 48 0 33 22 54 50 47 17 -4
20 0 20 24 0 16 5 29 10 29 6 0 10 -31 10 -73z m1680 0 l0 -74 -32 -1 c-41 -1
-58 13 -58 48 0 33 22 54 50 47 17 -4 20 0 20 24 0 16 5 29 10 29 6 0 10 -31
10 -73z m250 64 c0 -5 -10 -11 -22 -13 -31 -4 -39 -48 -9 -48 12 0 21 -4 21
-10 0 -5 -9 -10 -20 -10 -16 0 -20 -7 -20 -30 0 -16 -4 -30 -10 -30 -5 0 -10
14 -10 30 0 20 -5 30 -15 30 -8 0 -15 5 -15 10 0 6 7 10 15 10 9 0 15 9 15 23
0 13 5 28 12 35 14 14 58 16 58 3z m88 -2 c-2 -6 -8 -10 -13 -10 -5 0 -11 4
-13 10 -2 6 4 11 13 11 9 0 15 -5 13 -11z m102 -54 c0 -58 2 -65 20 -65 11 0
20 -5 20 -11 0 -6 -12 -9 -27 -7 -27 3 -28 6 -31 66 -2 46 -7 62 -17 62 -8 0
-15 5 -15 10 0 6 11 10 25 10 24 0 25 -2 25 -65z m410 56 c0 -5 -10 -11 -22
-13 -31 -4 -39 -48 -9 -48 12 0 21 -4 21 -10 0 -5 -9 -10 -20 -10 -16 0 -20
-7 -20 -30 0 -16 -4 -30 -10 -30 -5 0 -10 14 -10 30 0 20 -5 30 -15 30 -8 0
-15 5 -15 10 0 6 7 10 15 10 9 0 15 9 15 23 0 13 5 28 12 35 14 14 58 16 58 3z
m1172 -6 c0 -5 -5 -11 -11 -13 -6 -2 -11 4 -11 13 0 9 5 15 11 13 6 -2 11 -8
11 -13z m-4532 -5 c0 -5 -16 -10 -35 -10 -28 0 -35 -4 -35 -20 0 -15 7 -20 25
-20 14 0 25 -4 25 -10 0 -5 -11 -10 -25 -10 -18 0 -25 -5 -25 -20 0 -16 7 -20
35 -20 19 0 35 -4 35 -10 0 -5 -22 -10 -50 -10 l-50 0 0 70 0 70 50 0 c28 0
50 -4 50 -10z m1548 -7 c2 -9 -5 -11 -27 -7 -41 8 -43 -19 -3 -38 30 -15 42
-55 20 -69 -18 -12 -65 -11 -73 1 -4 6 8 10 29 10 45 0 48 23 6 45 -29 15 -41
51 -23 69 11 11 66 2 71 -11z m-1008 -8 c0 -9 9 -15 25 -15 14 0 25 -4 25 -10
0 -5 -12 -10 -26 -10 -22 0 -25 -4 -22 -27 2 -20 9 -29 26 -31 29 -4 29 -22
-1 -22 -31 0 -47 18 -47 51 0 15 -6 30 -12 33 -10 5 -10 7 0 12 6 3 12 12 12
20 0 8 5 14 10 14 6 0 10 -7 10 -15z m480 0 c0 -9 9 -15 25 -15 14 0 25 -4 25
-10 0 -5 -12 -10 -26 -10 -22 0 -25 -4 -22 -27 2 -20 9 -29 26 -31 29 -4 29
-22 -1 -22 -31 0 -47 18 -47 51 0 15 -6 30 -12 33 -10 5 -10 7 0 12 6 3 12 12
12 20 0 8 5 14 10 14 6 0 10 -7 10 -15z m1200 0 c0 -9 9 -15 25 -15 14 0 25
-4 25 -10 0 -5 -12 -10 -26 -10 -22 0 -25 -4 -22 -27 2 -20 9 -29 26 -31 29
-4 29 -22 -1 -22 -31 0 -47 18 -47 51 0 15 -6 30 -12 33 -10 5 -10 7 0 12 6 3
12 12 12 20 0 8 5 14 10 14 6 0 10 -7 10 -15z m1680 0 c0 -9 9 -15 25 -15 14
0 25 -4 25 -10 0 -5 -12 -10 -26 -10 -22 0 -25 -4 -22 -27 2 -20 9 -29 26 -31
29 -4 29 -22 -1 -22 -31 0 -47 18 -47 51 0 15 -6 30 -12 33 -10 5 -10 7 0 12
6 3 12 12 12 20 0 8 5 14 10 14 6 0 10 -7 10 -15z m1320 0 c0 -9 9 -15 25 -15
14 0 25 -4 25 -10 0 -5 -12 -10 -26 -10 -22 0 -25 -4 -22 -27 2 -20 9 -29 26
-31 29 -4 29 -22 -1 -22 -31 0 -47 18 -47 51 0 15 -6 30 -12 33 -10 5 -10 7 0
12 6 3 12 12 12 20 0 8 5 14 10 14 6 0 10 -7 10 -15z m240 0 c0 -9 9 -15 25
-15 14 0 25 -4 25 -10 0 -5 -12 -10 -26 -10 -22 0 -25 -4 -22 -27 2 -20 9 -29
26 -31 29 -4 29 -22 -1 -22 -31 0 -47 18 -47 51 0 15 -6 30 -12 33 -10 5 -10
7 0 12 6 3 12 12 12 20 0 8 5 14 10 14 6 0 10 -7 10 -15z m-5404 -32 c12 -17
14 -17 28 2 8 11 18 17 22 13 4 -5 -1 -17 -11 -28 -17 -19 -17 -21 0 -40 10
-11 15 -23 11 -28 -4 -4 -14 2 -22 13 -14 19 -16 19 -28 3 -7 -10 -19 -18 -26
-18 -9 0 -8 5 3 18 10 10 17 25 17 32 0 7 -7 22 -17 32 -11 13 -12 18 -3 18 7
0 19 -8 26 -17z m176 -8 c17 -38 -4 -79 -37 -72 -21 3 -25 0 -25 -19 0 -13 -4
-24 -10 -24 -6 0 -10 29 -10 68 l0 69 35 1 c29 1 38 -3 47 -23z m106 13 c15
-15 15 -61 0 -76 -21 -21 -57 -14 -70 13 -23 51 32 101 70 63z m85 -1 c3 -7 3
-25 0 -40 -4 -20 -1 -27 11 -27 9 0 16 -4 16 -10 0 -5 -16 -10 -35 -10 -19 0
-35 5 -35 10 0 6 5 10 10 10 6 0 10 14 10 30 0 17 -4 30 -10 30 -5 0 -10 5
-10 10 0 15 37 12 43 -3z m54 -2 c3 -9 2 -19 -2 -23 -4 -4 -10 -1 -12 6 -3 6
-11 12 -19 12 -8 0 -14 5 -14 10 0 16 40 11 47 -5z m457 -1 c9 -8 16 -24 16
-34 0 -10 3 -25 6 -33 4 -11 -5 -15 -41 -15 -32 -1 -48 3 -52 13 -7 20 14 45
38 45 11 0 19 5 19 10 0 6 -11 10 -25 10 -14 0 -25 5 -25 10 0 16 47 12 64 -6z
m240 0 c9 -8 16 -24 16 -34 0 -10 3 -25 6 -33 4 -11 -5 -15 -41 -15 -32 -1
-48 3 -52 13 -7 20 14 45 38 45 11 0 19 5 19 10 0 6 -11 10 -25 10 -14 0 -25
5 -25 10 0 16 47 12 64 -6z m436 -25 c0 -33 3 -40 18 -37 12 2 18 14 20 41 4
46 22 49 22 3 0 -19 3 -41 6 -49 4 -12 -3 -15 -33 -15 -21 0 -44 5 -50 10 -19
15 -17 88 2 88 11 0 15 -11 15 -41z m182 16 c17 -38 -4 -79 -37 -72 -21 3 -25
0 -25 -19 0 -13 -4 -24 -10 -24 -6 0 -10 29 -10 68 l0 69 35 1 c29 1 38 -3 47
-23z m120 0 c17 -38 -4 -79 -37 -72 -21 3 -25 0 -25 -19 0 -13 -4 -24 -10 -24
-6 0 -10 29 -10 68 l0 69 35 1 c29 1 38 -3 47 -23z m106 13 c7 -7 12 -24 12
-38 0 -52 -61 -71 -82 -25 -23 51 32 101 70 63z m85 -1 c3 -7 3 -25 0 -40 -4
-20 -1 -27 11 -27 9 0 16 -4 16 -10 0 -5 -16 -10 -35 -10 -19 0 -35 5 -35 10
0 6 5 10 10 10 6 0 10 14 10 30 0 17 -4 30 -10 30 -5 0 -10 5 -10 10 0 15 37
12 43 -3z m54 -2 c3 -9 2 -19 -2 -23 -4 -4 -10 -1 -12 6 -3 6 -11 12 -19 12
-8 0 -14 5 -14 10 0 16 40 11 47 -5z m221 3 c7 -7 12 -20 12 -30 0 -14 -8 -18
-36 -18 -21 0 -33 -4 -29 -10 3 -5 19 -10 36 -10 16 0 29 -4 29 -10 0 -16 -57
-12 -74 6 -19 18 -20 38 -6 65 12 21 50 25 68 7z m472 -28 c0 -29 4 -40 15
-40 8 0 15 -4 15 -10 0 -5 -23 -10 -51 -10 -31 0 -48 4 -44 10 3 6 13 10 21
10 9 0 14 11 14 30 0 20 -5 30 -15 30 -8 0 -15 5 -15 10 0 6 14 10 30 10 28 0
30 -2 30 -40z m248 28 c7 -7 12 -20 12 -30 0 -14 -8 -18 -36 -18 -21 0 -33 -4
-29 -10 3 -5 19 -10 36 -10 16 0 29 -4 29 -10 0 -16 -57 -12 -74 6 -19 18 -20
38 -6 65 12 21 50 25 68 7z m360 0 c7 -7 12 -24 12 -38 0 -52 -61 -71 -82 -25
-23 51 32 101 70 63z m85 -1 c3 -7 3 -25 0 -40 -4 -20 -1 -27 11 -27 9 0 16
-4 16 -10 0 -5 -16 -10 -35 -10 -19 0 -35 5 -35 10 0 6 5 10 10 10 6 0 10 14
10 30 0 17 -4 30 -10 30 -5 0 -10 5 -10 10 0 15 37 12 43 -3z m54 -2 c3 -9 2
-19 -2 -23 -4 -4 -10 -1 -12 6 -3 6 -11 12 -19 12 -8 0 -14 5 -14 10 0 16 40
11 47 -5z m121 -37 c2 -38 0 -48 -12 -48 -12 0 -16 11 -18 43 l-1 42 -4 -42
c-5 -54 -23 -56 -23 -3 0 22 -4 40 -10 40 -5 0 -10 -18 -10 -40 0 -22 -4 -40
-10 -40 -5 0 -10 22 -10 49 l0 48 48 -1 47 -1 3 -47z m96 36 c9 -8 16 -24 16
-34 0 -10 3 -25 6 -33 4 -11 -5 -15 -41 -15 -32 -1 -48 3 -52 13 -7 20 14 45
38 45 11 0 19 5 19 10 0 6 -11 10 -25 10 -14 0 -25 5 -25 10 0 16 47 12 64 -6z
m256 6 c0 -5 -13 -10 -30 -10 -39 0 -39 -16 1 -24 25 -5 30 -10 27 -28 -2 -19
-10 -24 -40 -26 -22 -2 -38 1 -38 7 0 6 14 11 30 11 17 0 30 4 30 9 0 5 -13
11 -30 15 -29 5 -41 32 -23 49 10 11 73 8 73 -3z m470 -42 c0 -34 -6 -58 -17
-70 -17 -19 -53 -25 -53 -8 0 6 9 10 20 10 17 0 20 7 20 50 0 37 -4 50 -14 50
-8 0 -18 5 -21 10 -4 6 8 10 29 10 l36 0 0 -52z m130 42 c0 -5 -13 -10 -30
-10 -39 0 -39 -16 1 -24 25 -5 30 -10 27 -28 -2 -19 -10 -24 -40 -26 -22 -2
-38 1 -38 7 0 6 14 11 30 11 17 0 30 4 30 9 0 5 -13 11 -30 15 -29 5 -41 32
-23 49 10 11 73 8 73 -3z m108 -2 c7 -7 12 -24 12 -38 0 -52 -61 -71 -82 -25
-23 51 32 101 70 63z m130 -40 c2 -29 -1 -48 -7 -48 -6 0 -11 18 -11 40 0 33
-3 40 -20 40 -17 0 -20 -7 -20 -40 0 -22 -4 -40 -10 -40 -5 0 -10 22 -10 49
l0 49 38 -1 c37 -2 37 -2 40 -49z m428 35 c12 -17 14 -17 28 2 8 11 18 17 22
13 4 -5 -1 -17 -11 -28 -17 -19 -17 -21 0 -40 10 -11 15 -23 11 -28 -4 -4 -14
2 -22 13 -14 19 -16 19 -28 3 -7 -10 -19 -18 -26 -18 -9 0 -8 5 3 18 10 10 17
25 17 32 0 7 -7 22 -17 32 -11 13 -12 18 -3 18 7 0 19 -8 26 -17z m-1016 -13
c0 -5 -22 -10 -50 -10 -27 0 -50 5 -50 10 0 6 23 10 50 10 28 0 50 -4 50 -10z
m675 -77 c-8 -32 -13 -39 -21 -30 -10 9 5 57 17 57 7 0 9 -10 4 -27z m-5005
-83 c0 -5 -9 -10 -20 -10 -18 0 -20 -7 -20 -70 0 -63 2 -70 20 -70 11 0 20 -4
20 -10 0 -5 -13 -10 -30 -10 l-30 0 0 90 0 90 30 0 c17 0 30 -4 30 -10z m220
-80 l0 -90 -30 0 c-16 0 -30 5 -30 10 0 6 9 10 20 10 18 0 20 7 20 70 0 63 -2
70 -20 70 -11 0 -20 5 -20 10 0 6 14 10 30 10 l30 0 0 -90z m2900 82 c0 -4
-10 -12 -22 -17 -41 -18 -34 -135 7 -135 8 0 15 -4 15 -10 0 -13 -16 -13 -40
0 -42 22 -43 135 -2 159 20 12 42 14 42 3z m566 -6 c15 -12 19 -27 19 -76 0
-49 -4 -64 -19 -76 -23 -16 -46 -18 -46 -4 0 6 7 10 15 10 19 0 35 31 35 70 0
39 -16 70 -35 70 -8 0 -15 5 -15 10 0 14 23 12 46 -4z m-1526 -69 l0 -74 -32
-1 c-41 -1 -58 13 -58 48 0 33 22 54 50 47 17 -4 20 0 20 24 0 16 5 29 10 29
6 0 10 -31 10 -73z m1062 58 c0 -5 -5 -11 -11 -13 -6 -2 -11 4 -11 13 0 9 5
15 11 13 6 -2 11 -8 11 -13z m-3132 -55 c0 -47 3 -60 15 -60 8 0 15 -4 15 -10
0 -5 -18 -10 -40 -10 -22 0 -40 5 -40 10 0 6 7 10 15 10 11 0 15 12 15 50 0
40 -3 48 -15 44 -8 -4 -15 -2 -15 4 0 6 6 13 13 15 32 14 37 7 37 -53z m640
50 c0 -5 -16 -10 -35 -10 -28 0 -35 -4 -35 -20 0 -15 7 -20 25 -20 14 0 25 -4
25 -10 0 -5 -11 -10 -25 -10 -18 0 -25 -5 -25 -20 0 -16 7 -20 35 -20 19 0 35
-4 35 -10 0 -5 -22 -10 -50 -10 l-50 0 0 70 0 70 50 0 c28 0 50 -4 50 -10z
m540 -15 c0 -9 9 -15 25 -15 14 0 25 -4 25 -10 0 -5 -12 -10 -26 -10 -22 0
-25 -4 -22 -27 2 -20 9 -29 26 -31 29 -4 29 -22 -1 -22 -31 0 -47 18 -47 51 0
15 -6 30 -12 33 -10 5 -10 7 0 12 6 3 12 12 12 20 0 8 5 14 10 14 6 0 10 -7
10 -15z m1080 0 c0 -9 9 -15 25 -15 14 0 25 -4 25 -10 0 -5 -12 -10 -26 -10
-22 0 -25 -4 -22 -27 2 -20 9 -29 26 -31 29 -4 29 -22 -1 -22 -31 0 -47 18
-47 51 0 15 -6 30 -12 33 -10 5 -10 7 0 12 6 3 12 12 12 20 0 8 5 14 10 14 6
0 10 -7 10 -15z m480 0 c0 -9 9 -15 25 -15 14 0 25 -4 25 -10 0 -5 -12 -10
-26 -10 -22 0 -25 -4 -22 -27 2 -20 9 -29 26 -31 29 -4 29 -22 -1 -22 -31 0
-47 18 -47 51 0 15 -6 30 -12 33 -10 5 -10 7 0 12 6 3 12 12 12 20 0 8 5 14
10 14 6 0 10 -7 10 -15z m-2044 -32 c12 -17 14 -17 28 2 8 11 18 17 22 13 4
-5 -1 -17 -11 -28 -17 -19 -17 -21 0 -40 10 -11 15 -23 11 -28 -4 -4 -14 2
-22 13 -14 19 -16 19 -28 3 -7 -10 -19 -18 -26 -18 -9 0 -8 5 3 18 10 10 17
25 17 32 0 7 -7 22 -17 32 -11 13 -12 18 -3 18 7 0 19 -8 26 -17z m176 -8 c17
-38 -4 -79 -37 -72 -21 3 -25 0 -25 -19 0 -13 -4 -24 -10 -24 -6 0 -10 29 -10
68 l0 69 35 1 c29 1 38 -3 47 -23z m106 13 c15 -15 15 -61 0 -76 -21 -21 -57
-14 -70 13 -23 51 32 101 70 63z m85 -1 c3 -7 3 -25 0 -40 -4 -20 -1 -27 11
-27 9 0 16 -4 16 -10 0 -5 -16 -10 -35 -10 -19 0 -35 5 -35 10 0 6 5 10 10 10
6 0 10 14 10 30 0 17 -4 30 -10 30 -5 0 -10 5 -10 10 0 15 37 12 43 -3z m54
-2 c3 -9 2 -19 -2 -23 -4 -4 -10 -1 -12 6 -3 6 -11 12 -19 12 -8 0 -14 5 -14
10 0 16 40 11 47 -5z m353 -46 c0 -62 -13 -79 -59 -79 -31 0 -26 18 6 22 14 2
28 8 30 15 3 7 -3 9 -16 6 -28 -7 -51 14 -51 46 0 36 17 51 57 49 l33 -1 0
-58z m104 45 c9 -8 16 -24 16 -34 0 -10 3 -25 6 -33 4 -11 -5 -15 -41 -15 -32
-1 -48 3 -52 13 -7 20 14 45 38 45 11 0 19 5 19 10 0 6 -11 10 -25 10 -14 0
-25 5 -25 10 0 16 47 12 64 -6z m144 -36 c2 -38 0 -48 -12 -48 -12 0 -16 11
-18 43 l-1 42 -4 -42 c-5 -54 -23 -56 -23 -3 0 22 -4 40 -10 40 -5 0 -10 -18
-10 -40 0 -22 -4 -40 -10 -40 -5 0 -10 22 -10 49 l0 48 48 -1 47 -1 3 -47z
m100 40 c7 -7 12 -20 12 -30 0 -14 -8 -18 -36 -18 -21 0 -33 -4 -29 -10 3 -5
19 -10 36 -10 16 0 29 -4 29 -10 0 -16 -57 -12 -74 6 -19 18 -20 38 -6 65 12
21 50 25 68 7z m356 -4 c9 -8 16 -24 16 -34 0 -10 3 -25 6 -33 4 -11 -5 -15
-41 -15 -32 -1 -48 3 -52 13 -7 20 14 45 38 45 11 0 19 5 19 10 0 6 -11 10
-25 10 -14 0 -25 5 -25 10 0 16 47 12 64 -6z m240 0 c9 -8 16 -24 16 -34 0
-10 3 -25 6 -33 4 -11 -5 -15 -41 -15 -32 -1 -48 3 -52 13 -7 20 14 45 38 45
11 0 19 5 19 10 0 6 -11 10 -25 10 -14 0 -25 5 -25 10 0 16 47 12 64 -6z m136
6 c0 -5 -13 -10 -30 -10 -39 0 -39 -16 1 -24 25 -5 30 -10 27 -28 -2 -19 -10
-24 -40 -26 -22 -2 -38 1 -38 7 0 6 14 11 30 11 17 0 30 4 30 9 0 5 -13 11
-30 15 -29 5 -41 32 -23 49 10 11 73 8 73 -3z m108 -2 c7 -7 12 -20 12 -30 0
-14 -8 -18 -36 -18 -21 0 -33 -4 -29 -10 3 -5 19 -10 36 -10 16 0 29 -4 29
-10 0 -16 -57 -12 -74 6 -19 18 -20 38 -6 65 12 21 50 25 68 7z m482 -40 c0
-34 -6 -58 -17 -70 -17 -19 -53 -25 -53 -8 0 6 9 10 20 10 17 0 20 7 20 50 0
37 -4 50 -14 50 -8 0 -18 5 -21 10 -4 6 8 10 29 10 l36 0 0 -52z m130 42 c0
-5 -13 -10 -30 -10 -39 0 -39 -16 1 -24 25 -5 30 -10 27 -28 -2 -19 -10 -24
-40 -26 -22 -2 -38 1 -38 7 0 6 14 11 30 11 17 0 30 4 30 9 0 5 -13 11 -30 15
-29 5 -41 32 -23 49 10 11 73 8 73 -3z m108 -2 c7 -7 12 -24 12 -38 0 -52 -61
-71 -82 -25 -23 51 32 101 70 63z m130 -40 c2 -29 -1 -48 -7 -48 -6 0 -11 18
-11 40 0 33 -3 40 -20 40 -17 0 -20 -7 -20 -40 0 -22 -4 -40 -10 -40 -5 0 -10
22 -10 49 l0 49 38 -1 c37 -2 37 -2 40 -49z m-3108 22 c0 -5 -22 -10 -50 -10
-27 0 -50 5 -50 10 0 6 23 10 50 10 28 0 50 -4 50 -10z m-490 -160 c0 -5 -9
-10 -20 -10 -18 0 -20 -7 -20 -70 0 -63 2 -70 20 -70 11 0 20 -4 20 -10 0 -5
-13 -10 -30 -10 l-30 0 0 90 0 90 30 0 c17 0 30 -4 30 -10z m220 -80 l0 -90
-30 0 c-16 0 -30 5 -30 10 0 6 9 10 20 10 18 0 20 7 20 70 0 63 -2 70 -20 70
-11 0 -20 5 -20 10 0 6 14 10 30 10 l30 0 0 -90z m2900 82 c0 -4 -10 -12 -22
-17 -41 -18 -34 -135 7 -135 8 0 15 -4 15 -10 0 -13 -16 -13 -40 0 -42 22 -43
135 -2 159 20 12 42 14 42 3z m446 -6 c15 -12 19 -27 19 -76 0 -49 -4 -64 -19
-76 -23 -16 -46 -18 -46 -4 0 6 7 10 15 10 19 0 35 31 35 70 0 39 -16 70 -35
70 -8 0 -15 5 -15 10 0 14 23 12 46 -4z m-1406 -69 l0 -74 -32 -1 c-41 -1 -58
13 -58 48 0 33 22 54 50 47 17 -4 20 0 20 24 0 16 5 29 10 29 6 0 10 -31 10
-73z m-2052 51 c19 -19 14 -53 -13 -82 l-24 -26 24 0 c13 0 27 -4 30 -10 4 -6
-13 -10 -44 -10 -28 0 -51 3 -51 6 0 3 16 21 36 39 45 42 43 71 -4 68 -27 -1
-31 1 -21 13 14 17 51 18 67 2z m622 2 c0 -5 -16 -10 -35 -10 -28 0 -35 -4
-35 -20 0 -15 7 -20 25 -20 14 0 25 -4 25 -10 0 -5 -11 -10 -25 -10 -18 0 -25
-5 -25 -20 0 -16 7 -20 35 -20 19 0 35 -4 35 -10 0 -5 -22 -10 -50 -10 l-50 0
0 70 0 70 50 0 c28 0 50 -4 50 -10z m540 -15 c0 -9 9 -15 25 -15 14 0 25 -4
25 -10 0 -5 -12 -10 -26 -10 -22 0 -25 -4 -22 -27 2 -20 9 -29 26 -31 29 -4
29 -22 -1 -22 -31 0 -47 18 -47 51 0 15 -6 30 -12 33 -10 5 -10 7 0 12 6 3 12
12 12 20 0 8 5 14 10 14 6 0 10 -7 10 -15z m1080 0 c0 -9 9 -15 25 -15 14 0
25 -4 25 -10 0 -5 -12 -10 -26 -10 -22 0 -25 -4 -22 -27 2 -20 9 -29 26 -31
29 -4 29 -22 -1 -22 -31 0 -47 18 -47 51 0 15 -6 30 -12 33 -10 5 -10 7 0 12
6 3 12 12 12 20 0 8 5 14 10 14 6 0 10 -7 10 -15z m480 0 c0 -9 9 -15 25 -15
14 0 25 -4 25 -10 0 -5 -12 -10 -26 -10 -22 0 -25 -4 -22 -27 2 -20 9 -29 26
-31 29 -4 29 -22 -1 -22 -31 0 -47 18 -47 51 0 15 -6 30 -12 33 -10 5 -10 7 0
12 6 3 12 12 12 20 0 8 5 14 10 14 6 0 10 -7 10 -15z m360 0 c0 -9 9 -15 25
-15 14 0 25 -4 25 -10 0 -5 -12 -10 -26 -10 -22 0 -25 -4 -22 -27 2 -20 9 -29
26 -31 29 -4 29 -22 -1 -22 -31 0 -47 18 -47 51 0 15 -6 30 -12 33 -10 5 -10
7 0 12 6 3 12 12 12 20 0 8 5 14 10 14 6 0 10 -7 10 -15z m240 0 c0 -9 9 -15
25 -15 14 0 25 -4 25 -10 0 -5 -12 -10 -26 -10 -22 0 -25 -4 -22 -27 2 -20 9
-29 26 -31 29 -4 29 -22 -1 -22 -31 0 -47 18 -47 51 0 15 -6 30 -12 33 -10 5
-10 7 0 12 6 3 12 12 12 20 0 8 5 14 10 14 6 0 10 -7 10 -15z m-2644 -32 c12
-17 14 -17 28 2 8 11 18 17 22 13 4 -5 -1 -17 -11 -28 -17 -19 -17 -21 0 -40
10 -11 15 -23 11 -28 -4 -4 -14 2 -22 13 -14 19 -16 19 -28 3 -7 -10 -19 -18
-26 -18 -9 0 -8 5 3 18 10 10 17 25 17 32 0 7 -7 22 -17 32 -11 13 -12 18 -3
18 7 0 19 -8 26 -17z m176 -8 c17 -38 -4 -79 -37 -72 -21 3 -25 0 -25 -19 0
-13 -4 -24 -10 -24 -6 0 -10 29 -10 68 l0 69 35 1 c29 1 38 -3 47 -23z m106
13 c15 -15 15 -61 0 -76 -21 -21 -57 -14 -70 13 -23 51 32 101 70 63z m85 -1
c3 -7 3 -25 0 -40 -4 -20 -1 -27 11 -27 9 0 16 -4 16 -10 0 -5 -16 -10 -35
-10 -19 0 -35 5 -35 10 0 6 5 10 10 10 6 0 10 14 10 30 0 17 -4 30 -10 30 -5
0 -10 5 -10 10 0 15 37 12 43 -3z m54 -2 c3 -9 2 -19 -2 -23 -4 -4 -10 -1 -12
6 -3 6 -11 12 -19 12 -8 0 -14 5 -14 10 0 16 40 11 47 -5z m353 -46 c0 -62
-13 -79 -59 -79 -31 0 -26 18 6 22 14 2 28 8 30 15 3 7 -3 9 -16 6 -28 -7 -51
14 -51 46 0 36 17 51 57 49 l33 -1 0 -58z m104 45 c9 -8 16 -24 16 -34 0 -10
3 -25 6 -33 4 -11 -5 -15 -41 -15 -32 -1 -48 3 -52 13 -7 20 14 45 38 45 11 0
19 5 19 10 0 6 -11 10 -25 10 -14 0 -25 5 -25 10 0 16 47 12 64 -6z m144 -36
c2 -38 0 -48 -12 -48 -12 0 -16 11 -18 43 l-1 42 -4 -42 c-5 -54 -23 -56 -23
-3 0 22 -4 40 -10 40 -5 0 -10 -18 -10 -40 0 -22 -4 -40 -10 -40 -5 0 -10 22
-10 49 l0 48 48 -1 47 -1 3 -47z m100 40 c7 -7 12 -20 12 -30 0 -14 -8 -18
-36 -18 -21 0 -33 -4 -29 -10 3 -5 19 -10 36 -10 16 0 29 -4 29 -10 0 -16 -57
-12 -74 6 -19 18 -20 38 -6 65 12 21 50 25 68 7z m356 -4 c9 -8 16 -24 16 -34
0 -10 3 -25 6 -33 4 -11 -5 -15 -41 -15 -32 -1 -48 3 -52 13 -7 20 14 45 38
45 11 0 19 5 19 10 0 6 -11 10 -25 10 -14 0 -25 5 -25 10 0 16 47 12 64 -6z
m240 0 c9 -8 16 -24 16 -34 0 -10 3 -25 6 -33 4 -11 -5 -15 -41 -15 -32 -1
-48 3 -52 13 -7 20 14 45 38 45 11 0 19 5 19 10 0 6 -11 10 -25 10 -14 0 -25
5 -25 10 0 16 47 12 64 -6z m136 6 c0 -5 -13 -10 -30 -10 -39 0 -39 -16 1 -24
25 -5 30 -10 27 -28 -2 -19 -10 -24 -40 -26 -22 -2 -38 1 -38 7 0 6 14 11 30
11 17 0 30 4 30 9 0 5 -13 11 -30 15 -29 5 -41 32 -23 49 10 11 73 8 73 -3z
m108 -2 c7 -7 12 -20 12 -30 0 -14 -8 -18 -36 -18 -21 0 -33 -4 -29 -10 3 -5
19 -10 36 -10 16 0 29 -4 29 -10 0 -16 -57 -12 -74 6 -19 18 -20 38 -6 65 12
21 50 25 68 7z m558 -5 c12 -17 14 -17 28 2 8 11 18 17 22 13 4 -5 -1 -17 -11
-28 -17 -19 -17 -21 0 -40 10 -11 15 -23 11 -28 -4 -4 -14 2 -22 13 -14 19
-16 19 -28 3 -7 -10 -19 -18 -26 -18 -9 0 -8 5 3 18 10 10 17 25 17 32 0 7 -7
22 -17 32 -11 13 -12 18 -3 18 7 0 19 -8 26 -17z m-2816 -13 c0 -5 -22 -10
-50 -10 -27 0 -50 5 -50 10 0 6 23 10 50 10 28 0 50 -4 50 -10z m-430 -668 c0
-24 4 -28 28 -27 25 0 27 -3 30 -47 2 -29 -1 -48 -7 -48 -6 0 -11 18 -11 40 0
33 -3 40 -20 40 -17 0 -20 -7 -20 -40 0 -22 -4 -40 -10 -40 -6 0 -10 32 -10
75 0 43 4 75 10 75 6 0 10 -13 10 -28z m360 -17 c0 -35 4 -45 16 -45 9 0 18 9
21 20 3 11 9 20 14 20 12 0 11 -37 -1 -45 -6 -4 -4 -16 6 -31 15 -21 15 -24 1
-24 -9 0 -19 9 -22 20 -3 11 -13 20 -21 20 -8 0 -14 -9 -14 -20 0 -11 -7 -20
-15 -20 -12 0 -15 15 -15 75 0 60 3 75 15 75 11 0 15 -12 15 -45z m790 36 c0
-5 -10 -11 -22 -13 -31 -4 -39 -48 -9 -48 12 0 21 -4 21 -10 0 -5 -9 -10 -20
-10 -16 0 -20 -7 -20 -30 0 -16 -4 -30 -10 -30 -5 0 -10 14 -10 30 0 20 -5 30
-15 30 -8 0 -15 5 -15 10 0 6 7 10 15 10 9 0 15 9 15 23 0 13 5 28 12 35 14
14 58 16 58 3z m550 -56 c0 -58 2 -65 20 -65 11 0 20 -5 20 -11 0 -6 -12 -9
-27 -7 -27 3 -28 6 -31 66 -2 46 -7 62 -17 62 -8 0 -15 5 -15 10 0 6 11 10 25
10 24 0 25 -2 25 -65z m378 54 c-2 -6 -8 -10 -13 -10 -5 0 -11 4 -13 10 -2 6
4 11 13 11 9 0 15 -5 13 -11z m-2128 -9 c0 -5 -9 -10 -20 -10 -18 0 -20 -7
-20 -60 0 -33 -4 -60 -10 -60 -6 0 -10 27 -10 60 0 53 -2 60 -20 60 -11 0 -20
5 -20 10 0 6 23 10 50 10 28 0 50 -4 50 -10z m2480 -34 c0 -25 -4 -48 -10 -51
-6 -4 -10 13 -10 44 0 28 5 51 10 51 6 0 10 -20 10 -44z m-2266 -12 c9 -8 16
-24 16 -34 0 -10 3 -25 6 -33 4 -11 -5 -15 -41 -15 -32 -1 -48 3 -52 13 -7 20
14 45 38 45 11 0 19 5 19 10 0 6 -11 10 -25 10 -14 0 -25 5 -25 10 0 16 47 12
64 -6z m134 -36 c2 -29 -1 -48 -7 -48 -6 0 -11 18 -11 40 0 33 -3 40 -20 40
-17 0 -20 -7 -20 -40 0 -22 -4 -40 -10 -40 -5 0 -10 22 -10 49 l0 49 38 -1
c37 -2 37 -2 40 -49z m306 10 l18 -43 12 39 c6 22 17 41 23 43 8 3 6 -14 -7
-53 -23 -67 -36 -84 -61 -84 -25 0 -24 16 1 23 l20 5 -20 51 c-23 59 -23 61
-12 61 5 0 17 -19 26 -42z m164 30 c15 -15 15 -61 0 -76 -21 -21 -57 -14 -70
13 -23 51 32 101 70 63z m72 -29 c0 -33 3 -40 18 -37 12 2 18 14 20 41 4 46
22 49 22 3 0 -19 3 -41 6 -49 4 -12 -3 -15 -33 -15 -21 0 -44 5 -50 10 -19 15
-17 88 2 88 11 0 15 -11 15 -41z m408 29 c7 -7 12 -24 12 -38 0 -52 -61 -71
-82 -25 -23 51 32 101 70 63z m85 -1 c3 -7 3 -25 0 -40 -4 -20 -1 -27 11 -27
9 0 16 -4 16 -10 0 -5 -16 -10 -35 -10 -19 0 -35 5 -35 10 0 6 5 10 10 10 6 0
10 14 10 30 0 17 -4 30 -10 30 -5 0 -10 5 -10 10 0 15 37 12 43 -3z m54 -2 c3
-9 2 -19 -2 -23 -4 -4 -10 -1 -12 6 -3 6 -11 12 -19 12 -8 0 -14 5 -14 10 0
16 40 11 47 -5z m235 -10 c17 -38 -4 -79 -37 -72 -21 3 -25 0 -25 -19 0 -13
-4 -24 -10 -24 -6 0 -10 29 -10 68 l0 69 35 1 c29 1 38 -3 47 -23z m222 9 c9
-8 16 -24 16 -34 0 -10 3 -25 6 -33 4 -11 -5 -15 -41 -15 -32 -1 -48 3 -52 13
-7 20 14 45 38 45 11 0 19 5 19 10 0 6 -11 10 -25 10 -14 0 -25 5 -25 10 0 16
47 12 64 -6z m80 -26 l18 -43 12 39 c6 22 17 41 23 43 8 3 6 -14 -7 -53 -23
-67 -36 -84 -61 -84 -25 0 -24 16 1 23 l20 5 -20 51 c-23 59 -23 61 -12 61 5
0 17 -19 26 -42z m156 2 c0 -29 4 -40 15 -40 8 0 15 -4 15 -10 0 -5 -23 -10
-51 -10 -31 0 -48 4 -44 10 3 6 13 10 21 10 9 0 14 11 14 30 0 20 -5 30 -15
30 -8 0 -15 5 -15 10 0 6 14 10 30 10 28 0 30 -2 30 -40z m138 -12 c2 -29 -1
-48 -7 -48 -6 0 -11 18 -11 40 0 33 -3 40 -20 40 -17 0 -20 -7 -20 -40 0 -22
-4 -40 -10 -40 -5 0 -10 22 -10 49 l0 49 38 -1 c37 -2 37 -2 40 -49z m122 -9
c0 -62 -13 -79 -59 -79 -31 0 -26 18 6 22 14 2 28 8 30 15 3 7 -3 9 -16 6 -28
-7 -51 14 -51 46 0 36 17 51 57 49 l33 -1 0 -58z m90 -24 c0 -8 -4 -15 -9 -15
-13 0 -22 16 -14 24 11 11 23 6 23 -9z m4497 -728 c-2 -34 -3 -6 -3 63 0 69 1
97 3 63 2 -35 2 -91 0 -126z m-5607 115 c0 -24 4 -28 28 -27 25 0 27 -3 30
-47 2 -29 -1 -48 -7 -48 -6 0 -11 18 -11 40 0 33 -3 40 -20 40 -17 0 -20 -7
-20 -40 0 -22 -4 -40 -10 -40 -6 0 -10 32 -10 75 0 43 4 75 10 75 6 0 10 -13
10 -28z m278 17 c-2 -6 -8 -10 -13 -10 -5 0 -11 4 -13 10 -2 6 4 11 13 11 9 0
15 -5 13 -11z m2002 -34 c0 -35 4 -45 16 -45 9 0 18 9 21 20 3 11 9 20 14 20
12 0 11 -37 -1 -45 -6 -4 -4 -16 6 -31 15 -21 15 -24 1 -24 -9 0 -19 9 -22 20
-3 11 -13 20 -21 20 -8 0 -14 -9 -14 -20 0 -11 -7 -20 -15 -20 -12 0 -15 15
-15 75 0 60 3 75 15 75 11 0 15 -12 15 -45z m2318 34 c-2 -6 -8 -10 -13 -10
-5 0 -11 4 -13 10 -2 6 4 11 13 11 9 0 15 -5 13 -11z m-5968 -9 c0 -5 -16 -10
-35 -10 -28 0 -35 -4 -35 -20 0 -15 7 -20 25 -20 14 0 25 -4 25 -10 0 -5 -11
-10 -25 -10 -18 0 -25 -5 -25 -20 0 -16 7 -20 35 -20 19 0 35 -4 35 -10 0 -5
-22 -10 -50 -10 l-50 0 0 70 0 70 50 0 c28 0 50 -4 50 -10z m5698 -18 c4 -26
22 -20 22 9 0 12 7 19 20 19 18 0 20 -7 20 -70 0 -56 -3 -70 -15 -70 -11 0
-15 12 -16 43 0 23 -3 36 -6 30 -7 -20 -23 -15 -33 10 -7 17 -9 11 -9 -30 -1
-29 -5 -53 -11 -53 -6 0 -10 30 -10 71 0 62 2 70 18 67 9 -2 18 -13 20 -26z
m600 0 c4 -26 22 -20 22 9 0 12 7 19 20 19 18 0 20 -7 20 -70 0 -56 -3 -70
-15 -70 -11 0 -15 12 -16 43 0 23 -3 36 -6 30 -7 -20 -23 -15 -33 10 -7 17 -9
11 -9 -30 -1 -29 -5 -53 -11 -53 -6 0 -10 30 -10 71 0 62 2 70 18 67 9 -2 18
-13 20 -26z m-6118 3 c0 -9 9 -15 25 -15 14 0 25 -4 25 -10 0 -5 -12 -10 -26
-10 -22 0 -25 -4 -22 -27 2 -20 9 -29 26 -31 29 -4 29 -22 -1 -22 -31 0 -47
18 -47 51 0 15 -6 30 -12 33 -10 5 -10 7 0 12 6 3 12 12 12 20 0 8 5 14 10 14
6 0 10 -7 10 -15z m3960 0 c0 -9 9 -15 25 -15 14 0 25 -4 25 -10 0 -5 -12 -10
-26 -10 -22 0 -25 -4 -22 -27 2 -20 9 -29 26 -31 29 -4 29 -22 -1 -22 -31 0
-47 18 -47 51 0 15 -6 30 -12 33 -10 5 -10 7 0 12 6 3 12 12 12 20 0 8 5 14
10 14 6 0 10 -7 10 -15z m600 0 c0 -9 9 -15 25 -15 14 0 25 -4 25 -10 0 -5
-12 -10 -26 -10 -22 0 -25 -4 -22 -27 2 -20 9 -29 26 -31 29 -4 29 -22 -1 -22
-31 0 -47 18 -47 51 0 15 -6 30 -12 33 -10 5 -10 7 0 12 6 3 12 12 12 20 0 8
5 14 10 14 6 0 10 -7 10 -15z m600 0 c0 -9 9 -15 25 -15 14 0 25 -4 25 -10 0
-5 -12 -10 -26 -10 -22 0 -25 -4 -22 -27 2 -20 9 -29 26 -31 29 -4 29 -22 -1
-22 -31 0 -47 18 -47 51 0 15 -6 30 -12 33 -10 5 -10 7 0 12 6 3 12 12 12 20
0 8 5 14 10 14 6 0 10 -7 10 -15z m1460 -20 c0 -8 -4 -15 -9 -15 -13 0 -22 16
-14 24 11 11 23 6 23 -9z m-6692 -47 c2 -29 -1 -48 -7 -48 -6 0 -11 18 -11 40
0 33 -3 40 -20 40 -17 0 -20 -7 -20 -40 0 -22 -4 -40 -10 -40 -5 0 -10 22 -10
49 l0 49 38 -1 c37 -2 37 -2 40 -49z m230 40 c7 -7 12 -20 12 -30 0 -14 -8
-18 -36 -18 -21 0 -33 -4 -29 -10 3 -5 19 -10 36 -10 16 0 29 -4 29 -10 0 -16
-57 -12 -74 6 -19 18 -20 38 -6 65 12 21 50 25 68 7z m85 -1 c3 -7 3 -25 0
-40 -4 -20 -1 -27 11 -27 9 0 16 -4 16 -10 0 -5 -16 -10 -35 -10 -19 0 -35 5
-35 10 0 6 5 10 10 10 6 0 10 14 10 30 0 17 -4 30 -10 30 -5 0 -10 5 -10 10 0
15 37 12 43 -3z m54 -2 c3 -9 2 -19 -2 -23 -4 -4 -10 -1 -12 6 -3 6 -11 12
-19 12 -8 0 -14 5 -14 10 0 16 40 11 47 -5z m177 -27 l18 -43 12 39 c6 22 17
41 23 43 8 3 6 -14 -7 -53 -23 -67 -36 -84 -61 -84 -25 0 -24 16 1 23 l20 5
-20 51 c-23 59 -23 61 -12 61 5 0 17 -19 26 -42z m164 30 c15 -15 15 -61 0
-76 -21 -21 -57 -14 -70 13 -23 51 32 101 70 63z m72 -29 c0 -33 3 -40 18 -37
12 2 18 14 20 41 4 46 22 49 22 3 0 -19 3 -41 6 -49 4 -12 -3 -15 -33 -15 -21
0 -44 5 -50 10 -19 15 -17 88 2 88 11 0 15 -11 15 -41z m133 28 c3 -7 3 -25 0
-40 -4 -20 -1 -27 11 -27 9 0 16 -4 16 -10 0 -5 -16 -10 -35 -10 -19 0 -35 5
-35 10 0 6 5 10 10 10 6 0 10 14 10 30 0 17 -4 30 -10 30 -5 0 -10 5 -10 10 0
15 37 12 43 -3z m54 -2 c3 -9 2 -19 -2 -23 -4 -4 -10 -1 -12 6 -3 6 -11 12
-19 12 -8 0 -14 5 -14 10 0 16 40 11 47 -5z m231 -2 c2 -9 -5 -11 -28 -7 -30
7 -31 5 -28 -22 2 -23 9 -30 31 -32 35 -4 35 -22 0 -22 -30 0 -63 25 -63 48 0
41 76 70 88 35z m230 5 c7 -7 12 -24 12 -38 0 -52 -61 -71 -82 -25 -23 51 32
101 70 63z m112 -28 c0 -29 4 -40 15 -40 8 0 15 -4 15 -10 0 -5 -23 -10 -51
-10 -31 0 -48 4 -44 10 3 6 13 10 21 10 9 0 14 11 14 30 0 20 -5 30 -15 30 -8
0 -15 5 -15 10 0 6 14 10 30 10 28 0 30 -2 30 -40z m138 23 c2 -9 -5 -11 -28
-7 -30 7 -31 5 -28 -22 2 -23 9 -30 31 -32 35 -4 35 -22 0 -22 -30 0 -63 25
-63 48 0 41 76 70 88 35z m110 5 c7 -7 12 -20 12 -30 0 -14 -8 -18 -36 -18
-21 0 -33 -4 -29 -10 3 -5 19 -10 36 -10 16 0 29 -4 29 -10 0 -16 -57 -12 -74
6 -19 18 -20 38 -6 65 12 21 50 25 68 7z m240 0 c7 -7 12 -24 12 -38 0 -52
-61 -71 -82 -25 -23 51 32 101 70 63z m85 -1 c3 -7 3 -25 0 -40 -4 -20 -1 -27
11 -27 9 0 16 -4 16 -10 0 -5 -16 -10 -35 -10 -19 0 -35 5 -35 10 0 6 5 10 10
10 6 0 10 14 10 30 0 17 -4 30 -10 30 -5 0 -10 5 -10 10 0 15 37 12 43 -3z
m54 -2 c3 -9 2 -19 -2 -23 -4 -4 -10 -1 -12 6 -3 6 -11 12 -19 12 -8 0 -14 5
-14 10 0 16 40 11 47 -5z m235 -10 c17 -38 -4 -79 -37 -72 -21 3 -25 0 -25
-19 0 -13 -4 -24 -10 -24 -6 0 -10 29 -10 68 l0 69 35 1 c29 1 38 -3 47 -23z
m71 12 c3 -7 3 -25 0 -40 -4 -20 -1 -27 11 -27 9 0 16 -4 16 -10 0 -5 -16 -10
-35 -10 -19 0 -35 5 -35 10 0 6 5 10 10 10 6 0 10 14 10 30 0 17 -4 30 -10 30
-5 0 -10 5 -10 10 0 15 37 12 43 -3z m54 -2 c3 -9 2 -19 -2 -23 -4 -4 -10 -1
-12 6 -3 6 -11 12 -19 12 -8 0 -14 5 -14 10 0 16 40 11 47 -5z m101 3 c7 -7
12 -20 12 -30 0 -14 -8 -18 -36 -18 -21 0 -33 -4 -29 -10 3 -5 19 -10 36 -10
16 0 29 -4 29 -10 0 -16 -57 -12 -74 6 -19 18 -20 38 -6 65 12 21 50 25 68 7z
m132 2 c0 -5 -13 -10 -30 -10 -39 0 -39 -16 1 -24 25 -5 30 -10 27 -28 -2 -19
-10 -24 -40 -26 -22 -2 -38 1 -38 7 0 6 14 11 30 11 17 0 30 4 30 9 0 5 -13
11 -30 15 -29 5 -41 32 -23 49 10 11 73 8 73 -3z m120 0 c0 -5 -13 -10 -30
-10 -39 0 -39 -16 1 -24 25 -5 30 -10 27 -28 -2 -19 -10 -24 -40 -26 -22 -2
-38 1 -38 7 0 6 14 11 30 11 17 0 30 4 30 9 0 5 -13 11 -30 15 -29 5 -41 32
-23 49 10 11 73 8 73 -3z m224 -6 c9 -8 16 -24 16 -34 0 -10 3 -25 6 -33 4
-11 -5 -15 -41 -15 -32 -1 -48 3 -52 13 -7 20 14 45 38 45 11 0 19 5 19 10 0
6 -11 10 -25 10 -14 0 -25 5 -25 10 0 16 47 12 64 -6z m134 -36 c2 -29 -1 -48
-7 -48 -6 0 -11 18 -11 40 0 33 -3 40 -20 40 -17 0 -20 -7 -20 -40 0 -22 -4
-40 -10 -40 -5 0 -10 22 -10 49 l0 49 38 -1 c37 -2 37 -2 40 -49z m66 10 l18
-43 12 39 c6 22 17 41 23 43 8 3 6 -14 -7 -53 -23 -67 -36 -84 -61 -84 -25 0
-24 16 1 23 l20 5 -20 51 c-23 59 -23 61 -12 61 5 0 17 -19 26 -42z m404 30
c7 -7 12 -20 12 -30 0 -14 -8 -18 -36 -18 -21 0 -33 -4 -29 -10 3 -5 19 -10
36 -10 16 0 29 -4 29 -10 0 -16 -57 -12 -74 6 -19 18 -20 38 -6 65 12 21 50
25 68 7z m76 -30 l18 -43 12 39 c6 22 17 41 23 43 8 3 6 -14 -7 -53 -23 -67
-36 -84 -61 -84 -25 0 -24 16 1 23 l20 5 -20 51 c-23 59 -23 61 -12 61 5 0 17
-19 26 -42z m404 30 c7 -7 12 -24 12 -38 0 -52 -61 -71 -82 -25 -23 51 32 101
70 63z m205 -1 c3 -7 3 -25 0 -40 -4 -20 -1 -27 11 -27 9 0 16 -4 16 -10 0 -5
-16 -10 -35 -10 -19 0 -35 5 -35 10 0 6 5 10 10 10 6 0 10 14 10 30 0 17 -4
30 -10 30 -5 0 -10 5 -10 10 0 15 37 12 43 -3z m54 -2 c3 -9 2 -19 -2 -23 -4
-4 -10 -1 -12 6 -3 6 -11 12 -19 12 -8 0 -14 5 -14 10 0 16 40 11 47 -5z m101
3 c7 -7 12 -20 12 -30 0 -14 -8 -18 -36 -18 -21 0 -33 -4 -29 -10 3 -5 19 -10
36 -10 16 0 29 -4 29 -10 0 -16 -57 -12 -74 6 -19 18 -20 38 -6 65 12 21 50
25 68 7z m192 -29 c0 -33 3 -40 18 -37 12 2 18 14 20 41 4 46 22 49 22 3 0
-19 3 -41 6 -49 4 -12 -3 -15 -33 -15 -21 0 -44 5 -50 10 -19 15 -17 88 2 88
11 0 15 -11 15 -41z m133 28 c3 -7 3 -25 0 -40 -4 -20 -1 -27 11 -27 9 0 16
-4 16 -10 0 -5 -16 -10 -35 -10 -19 0 -35 5 -35 10 0 6 5 10 10 10 6 0 10 14
10 30 0 17 -4 30 -10 30 -5 0 -10 5 -10 10 0 15 37 12 43 -3z m54 -2 c3 -9 2
-19 -2 -23 -4 -4 -10 -1 -12 6 -3 6 -11 12 -19 12 -8 0 -14 5 -14 10 0 16 40
11 47 -5z m111 -37 c2 -29 -1 -48 -7 -48 -6 0 -11 18 -11 40 0 33 -3 40 -20
40 -17 0 -20 -7 -20 -40 0 -22 -4 -40 -10 -40 -5 0 -10 22 -10 49 l0 49 38 -1
c37 -2 37 -2 40 -49z m350 40 c7 -7 12 -24 12 -38 0 -52 -61 -71 -82 -25 -23
51 32 101 70 63z m356 -4 c9 -8 16 -24 16 -34 0 -10 3 -25 6 -33 4 -11 -5 -15
-41 -15 -32 -1 -48 3 -52 13 -7 20 14 45 38 45 11 0 19 5 19 10 0 6 -11 10
-25 10 -14 0 -25 5 -25 10 0 16 47 12 64 -6z m116 -24 c0 -29 4 -40 15 -40 8
0 15 -4 15 -10 0 -5 -23 -10 -51 -10 -31 0 -48 4 -44 10 3 6 13 10 21 10 9 0
14 11 14 30 0 20 -5 30 -15 30 -8 0 -15 5 -15 10 0 6 14 10 30 10 28 0 30 -2
30 -40z m138 -12 c2 -29 -1 -48 -7 -48 -6 0 -11 18 -11 40 0 33 -3 40 -20 40
-17 0 -20 -7 -20 -40 0 -22 -4 -40 -10 -40 -5 0 -10 22 -10 49 l0 49 38 -1
c37 -2 37 -2 40 -49z m350 40 c7 -7 12 -20 12 -30 0 -14 -8 -18 -36 -18 -21 0
-33 -4 -29 -10 3 -5 19 -10 36 -10 16 0 29 -4 29 -10 0 -16 -57 -12 -74 6 -19
18 -20 38 -6 65 12 21 50 25 68 7z m130 -40 c2 -29 -1 -48 -7 -48 -6 0 -11 18
-11 40 0 33 -3 40 -20 40 -17 0 -20 -7 -20 -40 0 -22 -4 -40 -10 -40 -5 0 -10
22 -10 49 l0 49 38 -1 c37 -2 37 -2 40 -49z m62 11 c0 -33 3 -40 18 -37 12 2
18 14 20 41 4 46 22 49 22 3 0 -19 3 -41 6 -49 4 -12 -3 -15 -33 -15 -21 0
-44 5 -50 10 -19 15 -17 88 2 88 11 0 15 -11 15 -41z m150 -44 c0 -8 -4 -15
-9 -15 -13 0 -22 16 -14 24 11 11 23 6 23 -9z"/>
<path d="M1674 4096 c-9 -24 4 -48 23 -44 12 2 18 12 18 28 0 29 -32 41 -41
16z"/>
<path d="M2634 4096 c-9 -24 4 -48 23 -44 12 2 18 12 18 28 0 29 -32 41 -41
16z"/>
<path d="M2880 4080 c0 -33 19 -40 40 -15 16 20 5 45 -20 45 -16 0 -20 -7 -20
-30z"/>
<path d="M714 4096 c-9 -24 4 -48 23 -44 12 2 18 12 18 28 0 29 -32 41 -41 16z"/>
<path d="M830 4060 c0 -5 9 -10 20 -10 11 0 20 5 20 10 0 6 -9 10 -20 10 -11
0 -20 -4 -20 -10z"/>
<path d="M1075 4100 c-4 -6 5 -10 19 -10 14 0 26 5 26 10 0 6 -9 10 -19 10
-11 0 -23 -4 -26 -10z"/>
<path d="M1795 4100 c-4 -6 5 -10 19 -10 14 0 26 5 26 10 0 6 -9 10 -19 10
-11 0 -23 -4 -26 -10z"/>
<path d="M2035 4100 c-4 -6 5 -10 19 -10 14 0 26 5 26 10 0 6 -9 10 -19 10
-11 0 -23 -4 -26 -10z"/>
<path d="M2280 4080 c0 -23 4 -30 20 -30 16 0 20 7 20 30 0 23 -4 30 -20 30
-16 0 -20 -7 -20 -30z"/>
<path d="M2400 4080 c0 -27 3 -31 23 -28 16 2 22 10 22 28 0 18 -6 26 -22 28
-20 3 -23 -1 -23 -28z"/>
<path d="M2515 4100 c-4 -6 5 -10 19 -10 14 0 26 5 26 10 0 6 -9 10 -19 10
-11 0 -23 -4 -26 -10z"/>
<path d="M355 3860 c-4 -6 5 -10 19 -10 14 0 26 5 26 10 0 6 -9 10 -19 10 -11
0 -23 -4 -26 -10z"/>
<path d="M835 3860 c-4 -6 5 -10 19 -10 14 0 26 5 26 10 0 6 -9 10 -19 10 -11
0 -23 -4 -26 -10z"/>
<path d="M235 3620 c-4 -6 5 -10 19 -10 14 0 26 5 26 10 0 6 -9 10 -19 10 -11
0 -23 -4 -26 -10z"/>
<path d="M355 3620 c-4 -6 5 -10 19 -10 14 0 26 5 26 10 0 6 -9 10 -19 10 -11
0 -23 -4 -26 -10z"/>
<path d="M830 3580 c0 -5 9 -10 20 -10 11 0 20 5 20 10 0 6 -9 10 -20 10 -11
0 -20 -4 -20 -10z"/>
<path d="M1195 3620 c-4 -6 5 -10 19 -10 14 0 26 5 26 10 0 6 -9 10 -19 10
-11 0 -23 -4 -26 -10z"/>
<path d="M1315 3620 c-4 -6 5 -10 19 -10 14 0 26 5 26 10 0 6 -9 10 -19 10
-11 0 -23 -4 -26 -10z"/>
<path d="M1194 2896 c-9 -24 4 -48 23 -44 12 2 18 12 18 28 0 29 -32 41 -41
16z"/>
<path d="M3240 2880 c0 -33 19 -40 40 -15 16 20 5 45 -20 45 -16 0 -20 -7 -20
-30z"/>
<path d="M3954 2896 c-9 -24 4 -48 23 -44 12 2 18 12 18 28 0 29 -32 41 -41
16z"/>
<path d="M4794 2896 c-9 -24 4 -48 23 -44 12 2 18 12 18 28 0 29 -32 41 -41
16z"/>
<path d="M6234 2896 c-9 -24 4 -48 23 -44 12 2 18 12 18 28 0 29 -32 41 -41
16z"/>
<path d="M5034 2926 c-9 -39 3 -78 24 -74 13 3 17 14 17 48 0 34 -4 45 -17 48
-12 2 -19 -5 -24 -22z m36 -26 c0 -5 -7 -10 -16 -10 -8 0 -12 5 -9 10 3 6 10
10 16 10 5 0 9 -4 9 -10z"/>
<path d="M240 2880 c0 -23 4 -30 20 -30 16 0 20 7 20 30 0 23 -4 30 -20 30
-16 0 -20 -7 -20 -30z"/>
<path d="M715 2900 c-4 -6 5 -10 19 -10 14 0 26 5 26 10 0 6 -9 10 -19 10 -11
0 -23 -4 -26 -10z"/>
<path d="M1080 2880 c0 -23 4 -30 20 -30 16 0 20 7 20 30 0 23 -4 30 -20 30
-16 0 -20 -7 -20 -30z"/>
<path d="M1315 2900 c-4 -6 5 -10 19 -10 14 0 26 5 26 10 0 6 -9 10 -19 10
-11 0 -23 -4 -26 -10z"/>
<path d="M2040 2880 c0 -27 3 -31 23 -28 16 2 22 10 22 28 0 18 -6 26 -22 28
-20 3 -23 -1 -23 -28z"/>
<path d="M2634 2896 c-9 -24 4 -48 23 -44 12 2 18 12 18 28 0 29 -32 41 -41
16z"/>
<path d="M3600 2880 c0 -23 4 -30 20 -30 16 0 20 7 20 30 0 23 -4 30 -20 30
-16 0 -20 -7 -20 -30z"/>
<path d="M4195 2900 c-4 -6 5 -10 19 -10 14 0 26 5 26 10 0 6 -9 10 -19 10
-11 0 -23 -4 -26 -10z"/>
<path d="M4560 2880 c0 -23 4 -30 20 -30 16 0 20 7 20 30 0 23 -4 30 -20 30
-16 0 -20 -7 -20 -30z"/>
<path d="M5635 2900 c-4 -6 5 -10 19 -10 14 0 26 5 26 10 0 6 -9 10 -19 10
-11 0 -23 -4 -26 -10z"/>
<path d="M6110 2860 c0 -5 9 -10 20 -10 11 0 20 5 20 10 0 6 -9 10 -20 10 -11
0 -20 -4 -20 -10z"/>
<path d="M6475 2900 c-4 -6 5 -10 19 -10 14 0 26 5 26 10 0 6 -9 10 -19 10
-11 0 -23 -4 -26 -10z"/>
<path d="M7075 2900 c-4 -6 5 -10 19 -10 14 0 26 5 26 10 0 6 -9 10 -19 10
-11 0 -23 -4 -26 -10z"/>
<path d="M7314 2896 c-9 -24 4 -48 23 -44 12 2 18 12 18 28 0 29 -32 41 -41
16z"/>
<path d="M7430 2860 c0 -5 9 -10 20 -10 11 0 20 5 20 10 0 6 -9 10 -20 10 -11
0 -20 -4 -20 -10z"/>
<path d="M7675 2900 c-4 -6 5 -10 19 -10 14 0 26 5 26 10 0 6 -9 10 -19 10
-11 0 -23 -4 -26 -10z"/>
<path d="M8040 2880 c0 -27 3 -31 23 -28 16 2 22 10 22 28 0 18 -6 26 -22 28
-20 3 -23 -1 -23 -28z"/>
<path d="M954 2176 c-9 -24 4 -48 23 -44 12 2 18 12 18 28 0 29 -32 41 -41 16z"/>
<path d="M2634 2176 c-9 -24 4 -48 23 -44 12 2 18 12 18 28 0 29 -32 41 -41
16z"/>
<path d="M360 2160 c0 -27 3 -31 23 -28 16 2 22 10 22 28 0 18 -6 26 -22 28
-20 3 -23 -1 -23 -28z"/>
<path d="M480 2160 c0 -23 4 -30 20 -30 16 0 20 7 20 30 0 23 -4 30 -20 30
-16 0 -20 -7 -20 -30z"/>
<path d="M1070 2140 c0 -5 9 -10 20 -10 11 0 20 5 20 10 0 6 -9 10 -20 10 -11
0 -20 -4 -20 -10z"/>
<path d="M1310 2140 c0 -5 9 -10 20 -10 11 0 20 5 20 10 0 6 -9 10 -20 10 -11
0 -20 -4 -20 -10z"/>
<path d="M1920 2160 c0 -27 3 -31 23 -28 16 2 22 10 22 28 0 18 -6 26 -22 28
-20 3 -23 -1 -23 -28z"/>
<path d="M2040 2160 c0 -27 3 -31 23 -28 16 2 22 10 22 28 0 18 -6 26 -22 28
-20 3 -23 -1 -23 -28z"/>
<path d="M2160 2160 c0 -23 4 -30 20 -30 16 0 20 7 20 30 0 23 -4 30 -20 30
-16 0 -20 -7 -20 -30z"/>
<path d="M2515 2180 c-4 -6 5 -10 19 -10 14 0 26 5 26 10 0 6 -9 10 -19 10
-11 0 -23 -4 -26 -10z"/>
<path d="M3235 2180 c-4 -6 5 -10 19 -10 14 0 26 5 26 10 0 6 -9 10 -19 10
-11 0 -23 -4 -26 -10z"/>
<path d="M3600 2160 c0 -23 4 -30 20 -30 16 0 20 7 20 30 0 23 -4 30 -20 30
-16 0 -20 -7 -20 -30z"/>
<path d="M3950 2140 c0 -5 9 -10 20 -10 11 0 20 5 20 10 0 6 -9 10 -20 10 -11
0 -20 -4 -20 -10z"/>
<path d="M4920 2160 c0 -23 4 -30 20 -30 16 0 20 7 20 30 0 23 -4 30 -20 30
-16 0 -20 -7 -20 -30z"/>
<path d="M2274 1936 c-9 -24 4 -48 23 -44 24 4 24 52 0 56 -9 2 -20 -4 -23
-12z"/>
<path d="M1080 1920 c0 -27 3 -31 23 -28 16 2 22 10 22 28 0 18 -6 26 -22 28
-20 3 -23 -1 -23 -28z"/>
<path d="M1200 1920 c0 -23 4 -30 20 -30 16 0 20 7 20 30 0 23 -4 30 -20 30
-16 0 -20 -7 -20 -30z"/>
<path d="M1674 1936 c-9 -24 4 -48 23 -44 24 4 24 52 0 56 -9 2 -20 -4 -23
-12z"/>
<path d="M1790 1900 c0 -5 9 -10 20 -10 11 0 20 5 20 10 0 6 -9 10 -20 10 -11
0 -20 -4 -20 -10z"/>
<path d="M2035 1940 c-4 -6 5 -10 19 -10 14 0 26 5 26 10 0 6 -9 10 -19 10
-11 0 -23 -4 -26 -10z"/>
<path d="M2390 1900 c0 -5 9 -10 20 -10 11 0 20 5 20 10 0 6 -9 10 -20 10 -11
0 -20 -4 -20 -10z"/>
<path d="M2630 1900 c0 -5 9 -10 20 -10 11 0 20 5 20 10 0 6 -9 10 -20 10 -11
0 -20 -4 -20 -10z"/>
<path d="M2875 1940 c-4 -6 5 -10 19 -10 14 0 26 5 26 10 0 6 -9 10 -19 10
-11 0 -23 -4 -26 -10z"/>
<path d="M3600 1920 c0 -23 4 -30 20 -30 16 0 20 7 20 30 0 23 -4 30 -20 30
-16 0 -20 -7 -20 -30z"/>
<path d="M2274 1696 c-9 -24 4 -48 23 -44 24 4 24 52 0 56 -9 2 -20 -4 -23
-12z"/>
<path d="M1080 1680 c0 -27 3 -31 23 -28 16 2 22 10 22 28 0 18 -6 26 -22 28
-20 3 -23 -1 -23 -28z"/>
<path d="M1200 1680 c0 -23 4 -30 20 -30 16 0 20 7 20 30 0 23 -4 30 -20 30
-16 0 -20 -7 -20 -30z"/>
<path d="M1674 1696 c-9 -24 4 -48 23 -44 24 4 24 52 0 56 -9 2 -20 -4 -23
-12z"/>
<path d="M1790 1660 c0 -5 9 -10 20 -10 11 0 20 5 20 10 0 6 -9 10 -20 10 -11
0 -20 -4 -20 -10z"/>
<path d="M2035 1700 c-4 -6 5 -10 19 -10 14 0 26 5 26 10 0 6 -9 10 -19 10
-11 0 -23 -4 -26 -10z"/>
<path d="M2390 1660 c0 -5 9 -10 20 -10 11 0 20 5 20 10 0 6 -9 10 -20 10 -11
0 -20 -4 -20 -10z"/>
<path d="M2630 1660 c0 -5 9 -10 20 -10 11 0 20 5 20 10 0 6 -9 10 -20 10 -11
0 -20 -4 -20 -10z"/>
<path d="M2875 1700 c-4 -6 5 -10 19 -10 14 0 26 5 26 10 0 6 -9 10 -19 10
-11 0 -23 -4 -26 -10z"/>
<path d="M350 940 c0 -5 9 -10 20 -10 11 0 20 5 20 10 0 6 -9 10 -20 10 -11 0
-20 -4 -20 -10z"/>
<path d="M960 960 c0 -23 4 -30 20 -30 16 0 20 7 20 30 0 23 -4 30 -20 30 -16
0 -20 -7 -20 -30z"/>
<path d="M1440 960 c0 -23 4 -30 20 -30 16 0 20 7 20 30 0 23 -4 30 -20 30
-16 0 -20 -7 -20 -30z"/>
<path d="M1800 960 c0 -27 3 -31 23 -28 16 2 22 10 22 28 0 18 -6 26 -22 28
-20 3 -23 -1 -23 -28z"/>
<path d="M2030 940 c0 -5 9 -10 20 -10 11 0 20 5 20 10 0 6 -9 10 -20 10 -11
0 -20 -4 -20 -10z"/>
<path d="M2514 976 c-9 -24 4 -48 23 -44 12 2 18 12 18 28 0 29 -32 41 -41 16z"/>
<path d="M475 260 c-4 -6 5 -10 19 -10 14 0 26 5 26 10 0 6 -9 10 -19 10 -11
0 -23 -4 -26 -10z"/>
<path d="M960 240 c0 -23 4 -30 20 -30 16 0 20 7 20 30 0 23 -4 30 -20 30 -16
0 -20 -7 -20 -30z"/>
<path d="M1680 240 c0 -23 4 -30 20 -30 16 0 20 7 20 30 0 23 -4 30 -20 30
-16 0 -20 -7 -20 -30z"/>
<path d="M2035 260 c-4 -6 5 -10 19 -10 14 0 26 5 26 10 0 6 -9 10 -19 10 -11
0 -23 -4 -26 -10z"/>
<path d="M2280 240 c0 -23 4 -30 20 -30 16 0 20 7 20 30 0 23 -4 30 -20 30
-16 0 -20 -7 -20 -30z"/>
<path d="M2640 240 c0 -27 3 -31 23 -28 16 2 22 10 22 28 0 18 -6 26 -22 28
-20 3 -23 -1 -23 -28z"/>
<path d="M2875 260 c-4 -6 5 -10 19 -10 14 0 26 5 26 10 0 6 -9 10 -19 10 -11
0 -23 -4 -26 -10z"/>
<path d="M3350 220 c0 -5 9 -10 20 -10 11 0 20 5 20 10 0 6 -9 10 -20 10 -11
0 -20 -4 -20 -10z"/>
<path d="M3955 260 c-4 -6 5 -10 19 -10 14 0 26 5 26 10 0 6 -9 10 -19 10 -11
0 -23 -4 -26 -10z"/>
<path d="M4440 240 c0 -23 4 -30 20 -30 16 0 20 7 20 30 0 23 -4 30 -20 30
-16 0 -20 -7 -20 -30z"/>
<path d="M4795 260 c-4 -6 5 -10 19 -10 14 0 26 5 26 10 0 6 -9 10 -19 10 -11
0 -23 -4 -26 -10z"/>
<path d="M5640 240 c0 -23 4 -30 20 -30 16 0 20 7 20 30 0 23 -4 30 -20 30
-16 0 -20 -7 -20 -30z"/>
<path d="M5990 220 c0 -5 9 -10 20 -10 11 0 20 5 20 10 0 6 -9 10 -20 10 -11
0 -20 -4 -20 -10z"/>
<path d="M6595 260 c-4 -6 5 -10 19 -10 14 0 26 5 26 10 0 6 -9 10 -19 10 -11
0 -23 -4 -26 -10z"/>
</g>
</svg>
