<?xml version="1.0" standalone="no"?>
<!DOCTYPE svg PUBLIC "-//W3C//DTD SVG 20010904//EN"
 "http://www.w3.org/TR/2001/REC-SVG-20010904/DTD/svg10.dtd">
<svg version="1.0" xmlns="http://www.w3.org/2000/svg"
 width="1473.000000pt" height="432.000000pt" viewBox="0 0 1473.000000 432.000000"
 preserveAspectRatio="xMidYMid meet">

<g transform="translate(0.000000,432.000000) scale(0.100000,-0.100000)"
fill="#000000" stroke="none">
<path d="M0 2160 l0 -2160 7365 0 7365 0 0 2160 0 2160 -7365 0 -7365 0 0
-2160z m5610 1905 c0 -43 -4 -75 -10 -75 -6 0 -10 32 -10 75 0 43 4 75 10 75
6 0 10 -32 10 -75z m-727 58 c-21 -4 -23 -10 -23 -69 0 -36 -4 -64 -10 -64 -6
0 -10 27 -10 60 0 54 -3 62 -22 70 -18 7 -10 9 32 8 30 0 45 -3 33 -5z m593
-50 c9 -32 19 -64 21 -70 3 -7 0 -13 -6 -13 -6 0 -11 7 -11 15 0 21 -56 20
-64 -1 -4 -9 -9 -14 -12 -12 -5 5 22 112 33 131 11 19 24 2 39 -50z m1212 39
c3 -11 0 -12 -15 -3 -30 15 -56 -8 -56 -49 0 -49 53 -81 61 -38 2 9 -5 18 -15
21 -14 4 -13 5 5 6 20 1 23 -3 20 -26 -4 -34 -29 -41 -63 -19 -32 21 -34 77
-4 107 22 22 60 22 67 1z m-1460 -23 l27 -1 -25 -7 c-18 -5 -26 -15 -28 -35
-4 -30 13 -49 36 -41 6 2 12 0 12 -5 0 -11 -21 -13 -44 -4 -10 4 -16 18 -16
40 0 21 -6 37 -17 43 -17 10 -17 10 0 11 9 0 18 8 18 18 1 16 2 16 6 0 3 -11
15 -18 31 -19z m840 0 l27 -1 -25 -7 c-18 -5 -26 -15 -28 -35 -4 -30 13 -49
36 -41 6 2 12 0 12 -5 0 -11 -21 -13 -44 -4 -10 4 -16 18 -16 40 0 21 -6 37
-17 43 -17 10 -17 10 0 11 9 0 18 8 18 18 1 16 2 16 6 0 3 -11 15 -18 31 -19z
m-1070 -11 c7 -7 12 -20 12 -30 0 -14 -8 -18 -37 -18 -36 -1 -37 -1 -18 -16
11 -8 25 -12 32 -10 7 3 13 1 13 -4 0 -13 -26 -13 -51 0 -36 20 -19 90 21 90
9 0 21 -5 28 -12z m107 -5 c19 27 29 20 11 -8 -15 -23 -15 -27 0 -50 18 -28 8
-35 -11 -8 -12 17 -14 17 -34 -1 -25 -23 -28 -11 -4 16 15 17 15 19 0 36 -24
27 -21 39 4 16 20 -18 22 -18 34 -1z m470 7 c4 -6 3 -10 -2 -9 -24 4 -33 -4
-33 -31 0 -27 9 -35 33 -31 5 1 6 -3 2 -9 -3 -5 -10 -10 -15 -10 -15 0 -40 31
-40 50 0 19 25 50 40 50 5 0 12 -5 15 -10z m96 -30 c7 -22 15 -40 19 -40 4 0
13 19 20 43 7 23 15 37 17 31 6 -18 -23 -89 -38 -89 -7 0 -21 21 -31 48 -10
26 -13 47 -8 47 5 0 15 -18 21 -40z m167 28 c7 -7 12 -20 12 -30 0 -14 -8 -18
-37 -18 -36 -1 -37 -1 -18 -16 11 -8 25 -12 32 -10 7 3 13 1 13 -4 0 -13 -26
-13 -51 0 -36 20 -19 90 21 90 9 0 21 -5 28 -12z m62 -53 c-8 -40 -8 -40 -9
15 0 35 3 50 8 40 5 -8 5 -33 1 -55z m58 53 c14 -14 16 -88 3 -88 -6 0 -11 19
-13 43 -2 34 -6 41 -22 39 -11 -2 -15 1 -11 7 8 14 28 14 43 -1z m197 -72 c19
-7 33 13 38 54 4 35 4 35 5 -5 1 -23 7 -46 14 -53 9 -9 8 -12 -5 -12 -9 0 -17
5 -17 11 0 8 -5 8 -15 -1 -28 -23 -45 -4 -43 47 l1 48 4 -42 c2 -23 10 -44 18
-47z m125 46 c0 -21 5 -43 12 -50 9 -9 4 -12 -22 -12 -24 0 -31 3 -21 9 9 6
12 22 9 50 -2 29 0 41 9 41 8 0 13 -14 13 -38z m59 13 c3 -19 3 -19 -16 -2
-11 9 -23 14 -28 10 -4 -5 -5 -2 -1 5 11 19 40 10 45 -13z m99 13 c7 -7 12
-20 12 -30 0 -14 -8 -18 -37 -18 -36 -1 -37 -1 -18 -16 11 -8 25 -12 32 -10 7
3 13 1 13 -4 0 -13 -26 -13 -51 0 -36 20 -19 90 21 90 9 0 21 -5 28 -12z m343
2 c12 -7 19 -21 19 -38 0 -16 5 -33 12 -40 9 -9 8 -12 -5 -12 -10 0 -17 8 -17
20 0 15 -7 20 -26 20 -16 0 -24 -5 -21 -12 2 -7 12 -12 22 -11 13 1 14 -2 6
-10 -8 -8 -16 -9 -29 -1 -26 17 -20 38 12 44 34 6 37 23 6 28 -11 2 -20 8 -20
13 0 12 17 11 41 -1z m79 -40 c0 -27 -4 -50 -10 -50 -5 0 -10 23 -10 50 0 28
5 50 10 50 6 0 10 -22 10 -50z m31 -1 c-4 -60 -8 -60 -12 0 -3 30 0 50 6 48 5
-2 8 -23 6 -48z m39 -1 c0 -28 -2 -49 -4 -47 -8 9 -13 99 -5 99 5 0 9 -23 9
-52z m108 40 c7 -7 12 -20 12 -30 0 -14 -8 -18 -37 -18 -36 -1 -37 -1 -18 -16
11 -8 25 -12 32 -10 7 3 13 1 13 -4 0 -13 -26 -13 -51 0 -36 20 -19 90 21 90
9 0 21 -5 28 -12z m252 -18 c0 -5 -20 -10 -45 -10 -25 0 -45 5 -45 10 0 6 20
10 45 10 25 0 45 -4 45 -10z m-750 -710 c0 -47 3 -60 15 -60 8 0 15 -4 15 -10
0 -5 -18 -10 -40 -10 -22 0 -40 5 -40 10 0 6 7 10 15 10 11 0 15 12 15 50 0
40 -3 48 -15 44 -8 -4 -15 -2 -15 4 0 6 6 13 13 15 32 14 37 7 37 -53z m380
49 c12 -8 9 -10 -12 -6 -16 2 -33 -2 -39 -9 -9 -11 -3 -18 26 -35 26 -16 35
-27 33 -43 -4 -27 -53 -46 -71 -27 -10 11 -8 13 10 8 12 -2 30 1 40 8 16 12
14 15 -20 35 -38 22 -47 46 -25 68 15 15 38 15 58 1z m728 -7 c3 -11 0 -12
-15 -3 -30 15 -56 -8 -56 -49 0 -49 53 -81 61 -38 2 9 -5 18 -15 21 -14 4 -13
5 5 6 20 1 23 -3 20 -26 -4 -34 -29 -41 -63 -19 -32 21 -34 77 -4 107 22 22
60 22 67 1z m-620 -23 l27 -1 -25 -7 c-18 -5 -26 -15 -28 -35 -4 -30 13 -49
36 -41 6 2 12 0 12 -5 0 -11 -21 -13 -44 -4 -10 4 -16 18 -16 40 0 21 -6 37
-17 43 -17 10 -17 10 0 11 9 0 18 8 18 18 1 16 2 16 6 0 3 -11 15 -18 31 -19z
m360 0 l27 -1 -25 -7 c-18 -5 -26 -15 -28 -35 -4 -30 13 -49 36 -41 6 2 12 0
12 -5 0 -11 -21 -13 -44 -4 -10 4 -16 18 -16 40 0 21 -6 37 -17 43 -17 10 -17
10 0 11 9 0 18 8 18 18 1 16 2 16 6 0 3 -11 15 -18 31 -19z m-247 -9 c12 -7
19 -21 19 -38 0 -16 5 -33 12 -40 9 -9 8 -12 -5 -12 -10 0 -17 8 -17 20 0 15
-7 20 -26 20 -16 0 -24 -5 -21 -12 2 -7 12 -12 22 -11 13 1 14 -2 6 -10 -8 -8
-16 -9 -29 -1 -26 17 -20 38 12 44 34 6 37 23 6 28 -11 2 -20 8 -20 13 0 12
17 11 41 -1z m99 -28 c0 -21 5 -43 12 -50 9 -9 4 -12 -22 -12 -24 0 -31 3 -21
9 9 6 12 22 9 50 -2 29 0 41 9 41 8 0 13 -14 13 -38z m59 13 c3 -19 3 -19 -16
-2 -11 9 -23 14 -28 10 -4 -5 -5 -2 -1 5 11 19 40 10 45 -13z m442 15 c12 -7
19 -21 19 -38 0 -16 5 -33 12 -40 9 -9 8 -12 -5 -12 -10 0 -17 8 -17 20 0 15
-7 20 -26 20 -16 0 -24 -5 -21 -12 2 -7 12 -12 22 -11 13 1 14 -2 6 -10 -8 -8
-16 -9 -29 -1 -26 17 -20 38 12 44 34 6 37 23 6 28 -11 2 -20 8 -20 13 0 12
17 11 41 -1z m79 -40 c0 -27 -4 -50 -10 -50 -5 0 -10 23 -10 50 0 28 5 50 10
50 6 0 10 -22 10 -50z m31 -1 c-4 -60 -8 -60 -12 0 -3 30 0 50 6 48 5 -2 8
-23 6 -48z m39 -1 c0 -28 -2 -49 -4 -47 -8 9 -13 99 -5 99 5 0 9 -23 9 -52z
m108 40 c7 -7 12 -20 12 -30 0 -14 -8 -18 -37 -18 -36 -1 -37 -1 -18 -16 11
-8 25 -12 32 -10 7 3 13 1 13 -4 0 -13 -26 -13 -51 0 -36 20 -19 90 21 90 9 0
21 -5 28 -12z m-1338 -73 c0 -8 -4 -15 -10 -15 -5 0 -10 7 -10 15 0 8 5 15 10
15 6 0 10 -7 10 -15z m630 -180 c0 -43 -4 -75 -10 -75 -6 0 -10 32 -10 75 0
43 4 75 10 75 6 0 10 -32 10 -75z m-730 50 c16 -19 6 -59 -22 -85 l-22 -20 27
0 c15 0 27 -4 27 -10 0 -5 -18 -10 -40 -10 -22 0 -40 4 -40 9 0 5 14 23 31 40
39 40 35 67 -9 64 -27 -1 -31 1 -21 13 15 18 53 18 69 -1z m340 -116 l35 -6
-42 -2 -43 -1 2 73 1 72 6 -65 6 -65 35 -6z m628 113 c3 -11 0 -12 -15 -3 -30
15 -56 -8 -56 -49 0 -49 53 -81 61 -38 2 9 -5 18 -15 21 -14 4 -13 5 5 6 20 1
23 -3 20 -26 -4 -34 -29 -41 -63 -19 -32 21 -34 77 -4 107 22 22 60 22 67 1z
m-497 -32 c29 -16 26 -67 -6 -82 -19 -8 -28 -8 -40 2 -18 15 -20 61 -3 78 15
15 24 15 49 2z m110 0 c12 -7 19 -21 19 -38 0 -16 5 -33 12 -40 9 -9 8 -12 -5
-12 -10 0 -17 8 -17 20 0 15 -7 20 -26 20 -16 0 -24 -5 -21 -12 2 -7 12 -12
22 -11 13 1 14 -2 6 -10 -8 -8 -16 -9 -29 -1 -26 17 -20 38 12 44 34 6 37 23
6 28 -11 2 -20 8 -20 13 0 12 17 11 41 -1z m114 0 c4 -6 3 -10 -2 -9 -24 4
-33 -4 -33 -31 0 -27 9 -35 33 -31 5 1 6 -3 2 -9 -3 -5 -10 -10 -15 -10 -15 0
-40 31 -40 50 0 19 25 50 40 50 5 0 12 -5 15 -10z m366 0 c12 -7 19 -21 19
-38 0 -16 5 -33 12 -40 9 -9 8 -12 -5 -12 -10 0 -17 8 -17 20 0 15 -7 20 -26
20 -16 0 -24 -5 -21 -12 2 -7 12 -12 22 -11 13 1 14 -2 6 -10 -8 -8 -16 -9
-29 -1 -26 17 -20 38 12 44 34 6 37 23 6 28 -11 2 -20 8 -20 13 0 12 17 11 41
-1z m79 -40 c0 -27 -4 -50 -10 -50 -5 0 -10 23 -10 50 0 28 5 50 10 50 6 0 10
-22 10 -50z m31 -1 c-4 -60 -8 -60 -12 0 -3 30 0 50 6 48 5 -2 8 -23 6 -48z
m39 -1 c0 -28 -2 -49 -4 -47 -8 9 -13 99 -5 99 5 0 9 -23 9 -52z m108 40 c7
-7 12 -20 12 -30 0 -14 -8 -18 -37 -18 -36 -1 -37 -1 -18 -16 11 -8 25 -12 32
-10 7 3 13 1 13 -4 0 -13 -26 -13 -51 0 -36 20 -19 90 21 90 9 0 21 -5 28 -12z
m-1218 -73 c0 -8 -4 -15 -10 -15 -5 0 -10 7 -10 15 0 8 5 15 10 15 6 0 10 -7
10 -15z m724 -126 c-3 -5 -10 -7 -15 -3 -5 3 -7 10 -3 15 3 5 10 7 15 3 5 -3
7 -10 3 -15z m360 0 c-3 -5 -10 -7 -15 -3 -5 3 -7 10 -3 15 3 5 10 7 15 3 5
-3 7 -10 3 -15z m-1184 -4 c13 -16 7 -45 -9 -45 -5 0 -7 10 -4 21 5 19 3 21
-25 17 -18 -2 -32 -2 -32 2 0 24 51 27 70 5z m360 4 c12 -8 9 -10 -12 -6 -16
2 -33 -2 -39 -9 -9 -11 -3 -18 26 -35 26 -16 35 -27 33 -43 -4 -27 -53 -46
-71 -27 -10 11 -8 13 10 8 12 -2 30 1 40 8 16 12 14 15 -20 35 -38 22 -47 46
-25 68 15 15 38 15 58 1z m108 -30 l27 -1 -25 -7 c-18 -5 -26 -15 -28 -35 -4
-30 13 -49 36 -41 6 2 12 0 12 -5 0 -11 -21 -13 -44 -4 -10 4 -16 18 -16 40 0
21 -6 37 -17 43 -17 10 -17 10 0 11 9 0 18 8 18 18 1 16 2 16 6 0 3 -11 15
-18 31 -19z m240 0 l27 -1 -25 -7 c-18 -5 -26 -15 -28 -35 -4 -30 13 -49 36
-41 6 2 12 0 12 -5 0 -11 -21 -13 -44 -4 -10 4 -16 18 -16 40 0 21 -6 37 -17
43 -17 10 -17 10 0 11 9 0 18 8 18 18 1 16 2 16 6 0 3 -11 15 -18 31 -19z
m360 0 l27 -1 -25 -7 c-18 -5 -26 -15 -28 -35 -4 -30 13 -49 36 -41 6 2 12 0
12 -5 0 -11 -21 -13 -44 -4 -10 4 -16 18 -16 40 0 21 -6 37 -17 43 -17 10 -17
10 0 11 9 0 18 8 18 18 1 16 2 16 6 0 3 -11 15 -18 31 -19z m-487 -9 c12 -7
19 -21 19 -38 0 -16 5 -33 12 -40 9 -9 8 -12 -5 -12 -10 0 -17 8 -17 20 0 15
-7 20 -26 20 -16 0 -24 -5 -21 -12 2 -7 12 -12 22 -11 13 1 14 -2 6 -10 -8 -8
-16 -9 -29 -1 -26 17 -20 38 12 44 34 6 37 23 6 28 -11 2 -20 8 -20 13 0 12
17 11 41 -1z m239 -30 c0 -27 6 -42 18 -49 13 -8 7 -10 -28 -10 -37 0 -41 2
-22 9 28 12 31 64 5 79 -16 9 -16 10 5 11 19 0 22 -5 22 -40z m118 28 c-36
-13 -35 -21 2 -35 35 -13 39 -38 8 -47 -35 -9 -58 -7 -58 5 0 6 7 9 15 5 17
-6 45 2 45 14 0 4 -13 13 -30 19 -51 17 -35 48 25 49 15 0 13 -2 -7 -10z m242
-28 c0 -27 6 -42 18 -49 13 -8 7 -10 -28 -10 -37 0 -41 2 -22 9 28 12 31 64 5
79 -16 9 -16 10 5 11 19 0 22 -5 22 -40z m134 34 c9 -3 16 -10 16 -16 0 -5 -7
-5 -17 1 -23 12 -53 -4 -53 -29 0 -22 34 -44 56 -36 8 3 14 1 14 -4 0 -13 -36
-13 -61 0 -25 14 -26 65 -1 79 20 12 25 13 46 5z m104 -6 c-36 -13 -35 -21 2
-35 35 -13 39 -38 8 -47 -35 -9 -58 -7 -58 5 0 6 7 9 15 5 17 -6 45 2 45 14 0
4 -13 13 -30 19 -51 17 -35 48 25 49 15 0 13 -2 -7 -10z m-1427 -18 c21 -12
25 -40 7 -58 -14 -14 -68 -16 -68 -2 0 6 11 10 24 10 36 0 43 20 15 41 -26 20
-10 26 22 9z m109 -55 c0 -8 -4 -15 -10 -15 -5 0 -10 7 -10 15 0 8 5 15 10 15
6 0 10 -7 10 -15z m455 -165 c8 6 23 9 35 5 15 -5 20 -15 20 -41 0 -28 -5 -36
-26 -44 -51 -20 -54 -16 -52 68 1 42 3 60 5 39 4 -31 7 -36 18 -27z m-423 -2
c2 -29 2 -61 0 -70 -5 -22 -22 -24 -22 -3 0 11 -11 15 -36 15 l-36 0 7 43 c4
23 9 45 12 50 7 12 23 8 19 -5 -18 -58 -17 -68 9 -68 23 0 25 4 25 45 0 62 17
57 22 -7z m344 -5 c9 -32 19 -64 21 -70 3 -7 0 -13 -6 -13 -6 0 -11 7 -11 15
0 21 -56 20 -64 -1 -4 -9 -9 -14 -12 -12 -5 5 22 112 33 131 11 19 24 2 39
-50z m677 -62 c23 -19 41 6 48 66 l6 58 2 -61 c1 -70 -13 -90 -54 -80 -24 6
-25 9 -23 74 l2 67 3 -57 c2 -31 10 -61 16 -67z m-205 78 l27 -1 -25 -7 c-18
-5 -26 -15 -28 -35 -4 -30 13 -49 36 -41 6 2 12 0 12 -5 0 -11 -21 -13 -44 -4
-10 4 -16 18 -16 40 0 21 -6 37 -17 43 -17 10 -17 10 0 11 9 0 18 8 18 18 1
16 2 16 6 0 3 -11 15 -18 31 -19z m-237 -9 c29 -16 26 -67 -6 -82 -19 -8 -28
-8 -40 2 -18 15 -20 61 -3 78 15 15 24 15 49 2z m84 -74 c19 -7 33 13 38 54 4
35 4 35 5 -5 1 -23 7 -46 14 -53 9 -9 8 -12 -5 -12 -9 0 -17 5 -17 11 0 8 -5
8 -15 -1 -28 -23 -45 -4 -43 47 l1 48 4 -42 c2 -23 10 -44 18 -47z m503 72
c-36 -13 -35 -21 2 -35 35 -13 39 -38 8 -47 -35 -9 -58 -7 -58 5 0 6 7 9 15 5
17 -6 45 2 45 14 0 4 -13 13 -30 19 -51 17 -35 48 25 49 15 0 13 -2 -7 -10z
m-1078 -73 c0 -8 -4 -15 -10 -15 -5 0 -10 7 -10 15 0 8 5 15 10 15 6 0 10 -7
10 -15z m724 -126 c-3 -5 -10 -7 -15 -3 -5 3 -7 10 -3 15 3 5 10 7 15 3 5 -3
7 -10 3 -15z m-574 1 c0 -5 -13 -10 -30 -10 -20 0 -30 -5 -30 -15 0 -9 9 -15
25 -15 46 0 58 -71 14 -85 -25 -8 -56 2 -63 20 -6 17 9 21 19 5 8 -12 42 -13
49 -1 12 19 -7 41 -35 41 -26 0 -29 3 -29 35 0 34 1 35 40 35 22 0 40 -4 40
-10z m330 1 c-29 -5 -35 -10 -35 -31 0 -19 6 -26 30 -31 l30 -7 -33 -1 c-29
-1 -33 -4 -30 -23 2 -17 12 -25 38 -29 l35 -6 -42 -2 -43 -1 0 70 0 70 43 -1
42 -2 -35 -6z m368 -32 l27 -1 -25 -7 c-18 -5 -26 -15 -28 -35 -4 -30 13 -49
36 -41 6 2 12 0 12 -5 0 -11 -21 -13 -44 -4 -10 4 -16 18 -16 40 0 21 -6 37
-17 43 -17 10 -17 10 0 11 9 0 18 8 18 18 1 16 2 16 6 0 3 -11 15 -18 31 -19z
m-243 -16 c19 27 29 20 11 -8 -15 -23 -15 -27 0 -50 18 -28 8 -35 -11 -8 -12
17 -14 17 -34 -1 -25 -23 -28 -11 -4 16 15 17 15 19 0 36 -24 27 -21 39 4 16
20 -18 22 -18 34 -1z m115 -23 c0 -27 6 -42 18 -49 13 -8 7 -10 -28 -10 -37 0
-41 2 -22 9 28 12 31 64 5 79 -16 9 -16 10 5 11 19 0 22 -5 22 -40z m-480 -45
c0 -8 -4 -15 -10 -15 -5 0 -10 7 -10 15 0 8 5 15 10 15 6 0 10 -7 10 -15z
m-4623 -1207 c-2 -35 -3 -7 -3 62 0 69 1 97 3 63 2 -35 2 -91 0 -125z m-807
114 c0 -24 4 -28 28 -27 25 0 27 -3 30 -47 2 -29 -1 -48 -7 -48 -6 0 -11 18
-11 40 0 33 -3 40 -20 40 -17 0 -20 -7 -20 -40 0 -22 -4 -40 -10 -40 -6 0 -10
32 -10 75 0 43 4 75 10 75 6 0 10 -13 10 -28z m278 17 c-2 -6 -8 -10 -13 -10
-5 0 -11 4 -13 10 -2 6 4 11 13 11 9 0 15 -5 13 -11z m-1648 -9 c0 -5 -16 -10
-35 -10 -28 0 -35 -4 -35 -20 0 -15 7 -20 25 -20 14 0 25 -4 25 -10 0 -5 -11
-10 -25 -10 -18 0 -25 -5 -25 -20 0 -16 7 -20 35 -20 19 0 35 -4 35 -10 0 -5
-22 -10 -50 -10 l-50 0 0 70 0 70 50 0 c28 0 50 -4 50 -10z m180 -15 c0 -9 9
-15 25 -15 14 0 25 -4 25 -10 0 -5 -12 -10 -26 -10 -22 0 -25 -4 -22 -27 2
-20 9 -29 26 -31 29 -4 29 -22 -1 -22 -31 0 -47 18 -47 51 0 15 -6 30 -12 33
-10 5 -10 7 0 12 6 3 12 12 12 20 0 8 5 14 10 14 6 0 10 -7 10 -15z m1820 -20
c0 -8 -4 -15 -9 -15 -13 0 -22 16 -14 24 11 11 23 6 23 -9z m-1892 -47 c2 -29
-1 -48 -7 -48 -6 0 -11 18 -11 40 0 33 -3 40 -20 40 -17 0 -20 -7 -20 -40 0
-22 -4 -40 -10 -40 -5 0 -10 22 -10 49 l0 49 38 -1 c37 -2 37 -2 40 -49z m230
40 c7 -7 12 -20 12 -30 0 -14 -8 -18 -36 -18 -21 0 -33 -4 -29 -10 3 -5 19
-10 36 -10 16 0 29 -4 29 -10 0 -16 -57 -12 -74 6 -19 18 -20 38 -6 65 12 21
50 25 68 7z m85 -1 c3 -7 3 -25 0 -40 -4 -20 -1 -27 11 -27 9 0 16 -4 16 -10
0 -5 -16 -10 -35 -10 -19 0 -35 5 -35 10 0 6 5 10 10 10 6 0 10 14 10 30 0 17
-4 30 -10 30 -5 0 -10 5 -10 10 0 15 37 12 43 -3z m54 -2 c3 -9 2 -19 -2 -23
-4 -4 -10 -1 -12 6 -3 6 -11 12 -19 12 -8 0 -14 5 -14 10 0 16 40 11 47 -5z
m177 -27 l18 -43 12 39 c6 22 17 41 23 43 8 3 6 -14 -7 -53 -23 -67 -36 -84
-61 -84 -25 0 -24 16 1 23 l20 5 -20 51 c-23 59 -23 61 -12 61 5 0 17 -19 26
-42z m164 30 c15 -15 15 -61 0 -76 -38 -38 -93 12 -70 63 13 27 49 34 70 13z
m72 -29 c0 -33 3 -40 18 -37 12 2 18 14 20 41 4 46 22 49 22 3 0 -19 3 -41 6
-49 4 -12 -3 -15 -33 -15 -21 0 -44 5 -50 10 -19 15 -17 88 2 88 11 0 15 -11
15 -41z m133 28 c3 -7 3 -25 0 -40 -4 -20 -1 -27 11 -27 9 0 16 -4 16 -10 0
-5 -16 -10 -35 -10 -19 0 -35 5 -35 10 0 6 5 10 10 10 6 0 10 14 10 30 0 17
-4 30 -10 30 -5 0 -10 5 -10 10 0 15 37 12 43 -3z m54 -2 c3 -9 2 -19 -2 -23
-4 -4 -10 -1 -12 6 -3 6 -11 12 -19 12 -8 0 -14 5 -14 10 0 16 40 11 47 -5z
m231 -2 c2 -9 -5 -11 -28 -7 -30 7 -31 5 -28 -22 2 -23 9 -30 31 -32 35 -4 35
-22 0 -22 -30 0 -63 25 -63 48 0 41 76 70 88 35z m230 5 c7 -7 12 -24 12 -38
0 -52 -61 -71 -82 -25 -23 51 32 101 70 63z m112 -28 c0 -29 4 -40 15 -40 8 0
15 -4 15 -10 0 -5 -23 -10 -51 -10 -31 0 -48 4 -44 10 3 6 13 10 21 10 9 0 14
11 14 30 0 20 -5 30 -15 30 -8 0 -15 5 -15 10 0 6 14 10 30 10 28 0 30 -2 30
-40z m138 23 c2 -9 -5 -11 -28 -7 -30 7 -31 5 -28 -22 2 -23 9 -30 31 -32 35
-4 35 -22 0 -22 -30 0 -63 25 -63 48 0 41 76 70 88 35z m110 5 c7 -7 12 -20
12 -30 0 -14 -8 -18 -36 -18 -21 0 -33 -4 -29 -10 3 -5 19 -10 36 -10 16 0 29
-4 29 -10 0 -16 -57 -12 -74 6 -19 18 -20 38 -6 65 12 21 50 25 68 7z m102
-73 c0 -8 -4 -15 -9 -15 -13 0 -22 16 -14 24 11 11 23 6 23 -9z"/>
<path d="M5436 4075 c-8 -41 -4 -50 19 -41 11 4 14 13 9 33 -10 45 -21 47 -28
8z"/>
<path d="M4952 4068 c-19 -19 -14 -28 18 -28 34 0 39 14 12 29 -13 7 -23 6
-30 -1z"/>
<path d="M5792 4068 c-19 -19 -14 -28 18 -28 34 0 39 14 12 29 -13 7 -23 6
-30 -1z"/>
<path d="M6392 4068 c-19 -19 -14 -28 18 -28 34 0 39 14 12 29 -13 7 -23 6
-30 -1z"/>
<path d="M6992 4068 c-19 -19 -14 -28 18 -28 34 0 39 14 12 29 -13 7 -23 6
-30 -1z"/>
<path d="M7952 3348 c-19 -19 -14 -28 18 -28 34 0 39 14 12 29 -13 7 -23 6
-30 -1z"/>
<path d="M6992 3108 c-16 -16 -15 -43 2 -57 11 -9 18 -8 30 4 20 20 20 29 0
49 -19 19 -17 19 -32 4z"/>
<path d="M7832 3108 c-19 -19 -14 -28 18 -28 34 0 39 14 12 29 -13 7 -23 6
-30 -1z"/>
<path d="M7117 2629 c-18 -11 -23 -54 -7 -64 15 -10 50 14 50 34 0 27 -21 42
-43 30z"/>
<path d="M6996 2635 c-8 -41 -4 -50 19 -41 11 4 14 13 9 33 -10 45 -21 47 -28
8z"/>
<path d="M7232 2628 c-16 -16 -15 -43 2 -57 11 -9 18 -8 30 4 20 20 20 29 0
49 -19 19 -17 19 -32 4z"/>
<path d="M505 1180 c-4 -6 5 -10 19 -10 14 0 26 5 26 10 0 6 -9 10 -19 10 -11
0 -23 -4 -26 -10z"/>
<path d="M990 1160 c0 -23 4 -30 20 -30 16 0 20 7 20 30 0 23 -4 30 -20 30
-16 0 -20 -7 -20 -30z"/>
<path d="M1710 1160 c0 -23 4 -30 20 -30 16 0 20 7 20 30 0 23 -4 30 -20 30
-16 0 -20 -7 -20 -30z"/>
<path d="M2065 1180 c-4 -6 5 -10 19 -10 14 0 26 5 26 10 0 6 -9 10 -19 10
-11 0 -23 -4 -26 -10z"/>
</g>
</svg>
